<?xml version="1.0" standalone="no"?>
<!DOCTYPE svg PUBLIC "-//W3C//DTD SVG 1.1//EN" "http://www.w3.org/Graphics/SVG/1.1/DTD/svg11.dtd" >
<svg xmlns="http://www.w3.org/2000/svg" xmlns:xlink="http://www.w3.org/1999/xlink" version="1.1">
<metadata>
Created by FontForge 20170731 at Tue Dec 13 13:51:18 2016
 By Aleksey,,,
Copyright 2010, The Yanone Kaffeesatz Project Authors (post@yanone.de)
</metadata>
<defs>
<font id="YanoneKaffeesatz-Light" horiz-adv-x="453" >
  <font-face 
    font-family="Yanone Kaffeesatz Light"
    font-weight="300"
    font-stretch="normal"
    units-per-em="1000"
    panose-1="0 0 4 0 0 0 0 0 0 0"
    ascent="800"
    descent="-200"
    x-height="500"
    cap-height="700"
    bbox="-306.028 -246 974 1061"
    underline-thickness="50"
    underline-position="-150"
    unicode-range="U+000D-FB02"
  />
<missing-glyph horiz-adv-x="261" 
 />
    <glyph glyph-name="fi" unicode="fi" horiz-adv-x="394" 
d="M90 460h-79q0 16 0.5 25.5t3.5 12t10 2.5h65v65q0 75 24.5 113.5t59.5 50t81 11.5q44 0 70 -9t26 -23t-5 -27q-44 17 -91 17q-35 0 -60.5 -8.5t-42.5 -38.5t-17 -88v-63h90q0 -28 -2 -34t-11 -6h-77v-448q0 -3 -2.5 -7.5t-10.5 -4.5h-32v460zM289 477q0 16 8 19.5t37 3.5
v-488q0 -7 -2 -9t-13 -2.5t-30 -0.5v477z" />
    <glyph glyph-name="fl" unicode="fl" horiz-adv-x="404" 
d="M343 713v-701q0 -3 -2 -7.5t-10 -4.5h-33v688q-27 10 -61 10q-28 0 -49.5 -7t-37.5 -36t-16 -88v-67h107q0 -28 -2 -34t-11 -6h-94v-448q0 -3 -2 -7.5t-10 -4.5h-33v460h-79q0 16 0.5 25.5t3.5 12t10 2.5h65v65q0 106 43 139.5t103 33.5q63 0 108 -25z" />
    <glyph glyph-name="f_f" unicode="ff" horiz-adv-x="462" 
d="M535.5 731.5q21.5 -8.5 21.5 -22.5q0 -7 -6 -23q-36 12 -75 12q-54 0 -86.5 -26t-32.5 -108v-64h110q0 -28 -2 -34t-11 -6h-97v-448q0 -3 -2.5 -7.5t-10.5 -4.5h-32v460h-173v-448q0 -3 -2 -7.5t-10 -4.5h-33v460h-79q0 16 0.5 25.5t3.5 12t10 2.5h65v75q0 99 47.5 129.5
t108.5 30.5q56 0 106 -33q23 23 53 30.5t64 7.5q41 0 62.5 -8.5zM312 565q0 61 20 103q-18 14 -38 20t-49 6q-42 0 -74 -22t-32 -96v-76h173v65z" />
    <glyph glyph-name="f_f_i" unicode="ffi" horiz-adv-x="619" 
d="M548 731q26 -9 26 -23q0 -11 -6 -27q-42 17 -91 17q-35 0 -60.5 -8.5t-42.5 -38.5t-17 -88v-63h90q0 -28 -1.5 -34t-10.5 -6h-78v-448q0 -3 -2 -7.5t-10 -4.5h-33v460h-172v-448q0 -3 -2.5 -7.5t-10.5 -4.5h-32v460h-79q0 16 0.5 25.5t3.5 12t10 2.5h65v75
q0 99 47.5 129.5t108.5 30.5q56 0 104 -32q23 22 53.5 29.5t69.5 7.5q44 0 70 -9zM312 565q0 64 19 104q-16 13 -36.5 19t-48.5 6q-42 0 -74 -22t-32 -96v-76h172v65zM519 496.5q8 3.5 38 3.5v-488q0 -7 -2 -9t-13.5 -2.5t-30.5 -0.5v477q0 16 8 19.5z" />
    <glyph glyph-name="f_f_l" unicode="ffl" horiz-adv-x="629" 
d="M565 3q-2 -2 -13 -2.5t-30 -0.5v687q-30 10 -61 10q-32 0 -53.5 -7t-36 -34.5t-14.5 -84.5v-71h90q0 -16 -0.5 -25.5t-3 -12t-9.5 -2.5h-77v-448q0 -3 -2 -7.5t-10 -4.5h-33v460h-172v-448q0 -3 -2.5 -7.5t-10.5 -4.5h-32v460h-79q0 16 0.5 25.5t3.5 12t10 2.5h65v75
q0 99 47.5 129.5t108.5 30.5q55 0 102 -31q20 21 46.5 28t58.5 7q64 0 109 -25v-702q0 -7 -2 -9zM312 565q0 64 18 105q-16 13 -36 18.5t-48 5.5q-42 0 -74 -22t-32 -96v-76h172v65z" />
    <glyph glyph-name=".notdef" horiz-adv-x="261" 
 />
    <glyph glyph-name=".null" horiz-adv-x="0" 
 />
    <glyph glyph-name="nonmarkingreturn" unicode="&#xd;" horiz-adv-x="178" 
 />
    <glyph glyph-name="NULL" horiz-adv-x="0" 
 />
    <glyph glyph-name="NULL" horiz-adv-x="0" 
 />
    <glyph glyph-name="space" unicode=" " horiz-adv-x="178" 
 />
    <glyph glyph-name="exclam" unicode="!" horiz-adv-x="187" 
d="M67 694q0 9 11 11t45 2l-6 -504q-1 -13 -10.5 -17t-34.5 -4zM64.5 5.5q-9.5 10.5 -9.5 29.5q0 17 10.5 29t27.5 12q18 0 28.5 -11.5t10.5 -29.5q0 -17 -11 -28.5t-28 -11.5q-19 0 -28.5 10.5z" />
    <glyph glyph-name="quotedbl" unicode="&#x22;" horiz-adv-x="235" 
d="M39.5 659q-2.5 52 -2.5 88q0 35 3 36q3 2 20 2q22 0 25 -1q2 -36 -4 -115.5t-10 -83.5q-1 -1 -11.5 -1h-14.5q-3 23 -5.5 75zM151.5 659q-2.5 52 -2.5 88q0 35 3 36q3 2 20 2q22 0 26 -1q1 -37 -5 -116t-10 -83q-1 -1 -11.5 -1h-14.5q-3 23 -5.5 75z" />
    <glyph glyph-name="numbersign" unicode="#" horiz-adv-x="438" 
d="M313 241h83q0 -26 -1.5 -32.5t-10.5 -6.5h-73l-4 -83q-1 -9 -8 -10.5t-34 -1.5l5 95h-120l-4 -83q-1 -8 -8.5 -10t-33.5 -2l5 95h-67q0 26 1.5 32.5t10.5 6.5h57l7 131h-76q0 26 1.5 32.5t10.5 6.5h66l4 76q1 9 8 10.5t34 1.5l-5 -88h120l4 76q1 8 8.5 10t33.5 2l-5 -88
h74q0 -26 -1.5 -32.5t-10.5 -6.5h-64zM152 241h120l7 131h-120z" />
    <glyph glyph-name="dollar" unicode="$" horiz-adv-x="438" 
d="M337 45.5q-32 -41.5 -103 -50.5v-95q0 -13 -8.5 -17t-31.5 -4v114q-40 0 -67.5 8t-41.5 17.5t-14 15.5t5 17.5t12 16.5q37 -31 112 -31q63 0 92.5 31t29.5 86q0 34 -15.5 62.5t-55.5 65.5l-112 102q-33 31 -49 58.5t-16 57.5q0 49 35.5 80t98.5 36v99q0 13 9 17t32 4
v-119q35 -1 59.5 -7.5t37 -14t12.5 -10.5q0 -7 -3.5 -17.5t-9.5 -16.5q-14 10 -42.5 17.5t-65.5 7.5q-55 0 -85.5 -19t-30.5 -58q0 -21 14.5 -43t40.5 -48l124 -112q38 -35 53.5 -68t15.5 -75q0 -66 -32 -107.5z" />
    <glyph glyph-name="percent" unicode="%" horiz-adv-x="720" 
d="M127.5 354q-29.5 14 -45 54t-15.5 116q0 94 36.5 139t104.5 45q69 0 101 -40.5t32 -143.5q0 -92 -35.5 -138t-101.5 -46q-47 0 -76.5 14zM147 -6q-7 2 -13 6t-6 10l428 698q2 -1 8.5 -3t12.5 -7t6 -11q0 -2 -180 -294.5t-247 -400.5q-2 0 -9 2zM273 413.5
q26 36.5 26 110.5q0 83 -22 114.5t-68 31.5q-48 0 -73 -35t-25 -116q0 -82 22 -112t69 -30q45 0 71 36.5zM439.5 6q-29.5 14 -45.5 54t-16 116q0 93 37 138.5t105 45.5q69 0 101 -40.5t32 -143.5q0 -91 -35.5 -137.5t-101.5 -46.5q-47 0 -76.5 14zM584.5 65
q25.5 37 25.5 111q0 83 -22 114t-68 31q-48 0 -73 -35t-25 -116q0 -82 22 -112t69 -30q46 0 71.5 37z" />
    <glyph glyph-name="ampersand" unicode="&#x26;" horiz-adv-x="517" 
d="M488 467q-8 -4 -32 -4l-82 1q23 -22 43 -69.5t20 -124.5q0 -95 -30 -163q59 -64 85 -80q-2 -11 -11 -23.5t-19 -12.5q-6 0 -28 20t-52 53q-55 -74 -160 -74q-102 0 -142.5 52t-40.5 130q0 59 34 108t84 77q-84 135 -84 211q0 72 46 105t121 33q40 0 72.5 -7t51 -17
t18.5 -18q0 -17 -10 -32q-53 34 -129 34q-56 0 -90 -22t-34 -81q0 -63 77.5 -183.5t176.5 -234.5q21 55 21 131q0 77 -26.5 135t-67.5 86q49 6 103 6q65 0 92 -2q1 -4 1 -20q0 -10 -8 -14zM350 99q-97 111 -172 224q-40 -22 -66 -62t-26 -92q0 -56 29.5 -96t103.5 -40
q86 0 131 66z" />
    <glyph glyph-name="quotesingle" unicode="'" horiz-adv-x="123" 
d="M39.5 659q-2.5 52 -2.5 88q0 35 3 36q3 2 20 2q22 0 25 -1q2 -36 -4 -115.5t-10 -83.5q-1 -1 -11.5 -1h-14.5q-3 23 -5.5 75z" />
    <glyph glyph-name="parenleft" unicode="(" horiz-adv-x="295" 
d="M187 -130.5q-44 67.5 -80 184.5t-36 269q0 146 37.5 253.5t82.5 168t56 60.5q9 0 14 -6.5t10 -23.5q-60 -66 -107 -178.5t-47 -276.5q0 -121 26.5 -220.5t61.5 -165.5t66 -101q-3 -14 -10 -22.5t-16 -8.5q-14 0 -58 67.5z" />
    <glyph glyph-name="parenright" unicode=")" horiz-adv-x="295" 
d="M33 -189.5q-7 8.5 -9 22.5q55 67 104.5 191.5t49.5 299.5q0 160 -47.5 273.5t-106.5 177.5q4 16 9 23t15 7q11 0 55.5 -60t82 -167.5t37.5 -254.5q0 -149 -36 -266t-80 -186t-57 -69q-10 0 -17 8.5z" />
    <glyph glyph-name="asterisk" unicode="*" horiz-adv-x="472" 
d="M211 671q-1 6 5 9t15 3q16 0 29 -7l-13 -168q-2 -12 -12 -12q-3 0 -11 2zM22 518q-1 19 12 32.5t24 8.5l143 -76v-5q0 -19 -15 -14zM265 476q0 9 10 13l158 71q7 -4 12 -14t5 -19q0 -12 -9 -15l-169 -51q-7 7 -7 15zM248 416q-1 2 -1 6q0 8 15 13l112 -147
q8 -10 -5 -21.5t-31 -13.5zM111 261q-8 0 -18 9.5t-15 20.5l119 137q5 5 9 5q8 0 15 -10l-100 -156q-5 -6 -10 -6z" />
    <glyph glyph-name="plus" unicode="+" horiz-adv-x="438" 
d="M395 302q0 -26 -2 -33.5t-10 -7.5h-142v-142q0 -8 -7.5 -10t-34.5 -2v154h-154q0 26 2 33.5t10 7.5h142v143q0 8 8 10t34 2v-155h154z" />
    <glyph glyph-name="comma" unicode="," horiz-adv-x="178" 
d="M55 -106.5q-6 4.5 -7 11.5q16 27 22.5 50t7.5 48q-18 11 -18 36q0 16 9.5 26.5t25.5 10.5q18 0 26.5 -10t8.5 -34q0 -28 -12 -61.5t-27.5 -57.5t-23.5 -24q-6 0 -12 4.5z" />
    <glyph glyph-name="hyphen" unicode="-" horiz-adv-x="295" 
d="M47 294.5q2 7.5 11 7.5h191q0 -26 -2 -33.5t-10 -7.5h-192q0 26 2 33.5z" />
    <glyph glyph-name="period" unicode="." horiz-adv-x="178" 
d="M54 36q0 17 10 28.5t27 11.5q19 0 29 -11.5t10 -28.5q0 -18 -10.5 -29.5t-28.5 -11.5q-37 0 -37 41z" />
    <glyph glyph-name="slash" unicode="/" horiz-adv-x="296" 
d="M236 751q3 10 11 12t39 2l-225 -772q-3 -9 -11.5 -11t-39.5 -2z" />
    <glyph glyph-name="zero" unicode="0" horiz-adv-x="438" 
d="M80.5 65q-41.5 73 -41.5 231q0 151 44.5 227.5t141.5 76.5q95 0 134.5 -70.5t39.5 -224.5q0 -158 -42.5 -235.5t-139.5 -77.5q-95 0 -136.5 73zM321.5 101q31.5 67 31.5 207q0 132 -28 191.5t-98 59.5q-75 0 -108 -68.5t-33 -202.5t31.5 -194t98.5 -60q74 0 105.5 67z
" />
    <glyph glyph-name="one" unicode="1" horiz-adv-x="438" 
d="M39 36q0 4 64.5 5.5t99.5 1.5l14 509q-7 0 -61.5 -10.5t-74.5 -14.5q-2 4 -4.5 15t-2.5 19q0 4 82 22t93 18q7 0 15 -4l-13 -554h94q19 0 34.5 1t19.5 2q0 -46 -6 -46h-353q-1 6 -1 36z" />
    <glyph glyph-name="two" unicode="2" horiz-adv-x="438" 
d="M39 19q0 9 2.5 15.5t9 15.5t11.5 18q22 35 49 67.5t70 79.5q50 54 79 90.5t48.5 78t19.5 85.5q0 43 -20.5 65t-76.5 22q-54 0 -96 -11.5t-68 -28.5q-6 16 -6 35q0 9 22.5 20.5t62 20t88.5 8.5q57 0 88 -15t43 -42.5t12 -72.5q0 -50 -21 -96t-53 -86t-85 -98
q-40 -44 -68 -77.5t-52 -69.5h205q23 0 53 1.5t42 1.5q0 -16 -1 -31t-5 -15h-350q-3 9 -3 19z" />
    <glyph glyph-name="three" unicode="3" horiz-adv-x="438" 
d="M101.5 -93q-25.5 7 -38.5 17t-13 19q0 16 7 35q22 -18 47 -26t62 -8q52 0 91.5 27.5t61 76t21.5 107.5q0 47 -22.5 72.5t-57.5 34.5t-86 11l-2 33q68 38 106 81.5t38 89.5q0 31 -21 55t-75 24q-55 0 -93 -10.5t-68 -30.5q-5 10 -5 34q0 11 21 23t60 20t90 8
q78 0 108.5 -32t30.5 -84q0 -93 -123 -180q65 -6 105.5 -41.5t40.5 -109.5t-27.5 -131.5t-78.5 -89.5t-118 -32q-36 0 -61.5 7z" />
    <glyph glyph-name="four" unicode="4" horiz-adv-x="438" 
d="M267 163h-214q-11 11 -11 31q0 33 35 112t87.5 161.5t104.5 128.5q9 8 22 8q14 0 24 -7l-3 -391q33 0 57.5 0.5t32.5 0.5q0 -1 1 -5t1 -13q0 -26 -15 -26h-77v-145q0 -10 -1.5 -13t-12.5 -4t-31 -1v163zM267 206l8 336q-57 -61 -114 -155t-78 -181h184z" />
    <glyph glyph-name="five" unicode="5" horiz-adv-x="438" 
d="M95.5 -93.5q-26.5 6.5 -40.5 16t-14 17.5q0 23 6 37q39 -34 112 -34q98 0 141 66.5t43 180.5q0 90 -55 123t-130 33q-47 0 -76 -8t-31 -8l27 270h306q0 -28 -4.5 -35t-22.5 -7l-240 2l-19 -182q4 2 23.5 4.5t51.5 2.5q84 3 150 -37t66 -154q0 -141 -53.5 -217.5
t-176.5 -76.5q-37 0 -63.5 6.5z" />
    <glyph glyph-name="six" unicode="6" horiz-adv-x="438" 
d="M359.5 389q41.5 -48 41.5 -146q0 -123 -47 -187.5t-144 -64.5q-70 0 -107 36.5t-49.5 100.5t-12.5 164q0 212 63.5 310.5t166.5 98.5q46 0 78 -7.5t32 -20.5q0 -18 -4 -32q-23 9 -46 13t-62 4q-50 0 -90 -34.5t-65.5 -106.5t-29.5 -180q25 49 66 74.5t97 25.5
q71 0 112.5 -48zM319 86.5q38 53.5 38 145.5q0 82 -31.5 122.5t-90.5 40.5q-47 0 -86 -29t-65 -83q0 -120 26.5 -185t100.5 -65q70 0 108 53.5z" />
    <glyph glyph-name="seven" unicode="7" horiz-adv-x="438" 
d="M85 -72q41 194 113.5 361.5t145.5 269.5h-27l-248 -1q-15 0 -15 42h360q-212 -329 -283 -684q-46 0 -46 12z" />
    <glyph glyph-name="eight" unicode="8" horiz-adv-x="438" 
d="M385.5 264.5q17.5 -34.5 17.5 -83.5q0 -88 -44.5 -139t-129.5 -51q-93 0 -139.5 51.5t-46.5 138.5q0 65 38 118t95 79q-44 23 -66 40q-30 21 -45 53t-15 67q0 82 49.5 125t122.5 43q72 0 122.5 -34.5t50.5 -126.5q0 -59 -35 -100t-89 -72q37 -21 64 -45
q33 -29 50.5 -63.5zM108.5 483.5q14.5 -25.5 46.5 -47.5q10 -8 30 -18.5t42 -21.5q55 25 90.5 62.5t35.5 84.5q0 68 -37.5 94t-89.5 26q-56 0 -94 -30.5t-38 -91.5q0 -32 14.5 -57.5zM325 74q35 40 35 107q0 43 -17 72t-47 54q-23 21 -74 48q-58 -21 -97 -68t-39 -105
q0 -66 36.5 -107t104.5 -41q63 0 98 40z" />
    <glyph glyph-name="nine" unicode="9" horiz-adv-x="438" 
d="M335.5 578q36.5 -32 49.5 -96t14 -174q-1 -209 -64 -310t-189 -101q-35 0 -58.5 5t-23.5 16t4 31q30 -9 75 -9q196 0 212 318q-52 -98 -159 -98q-70 0 -113.5 50t-43.5 146q0 127 47 190.5t144 63.5q69 0 105.5 -32zM289 231q38 28 67 80v1q0 83 -8.5 137t-36 86.5
t-81.5 32.5q-72 0 -109.5 -51.5t-37.5 -152.5q0 -80 33.5 -120.5t90.5 -40.5q44 0 82 28z" />
    <glyph glyph-name="colon" unicode=":" horiz-adv-x="178" 
d="M53 387q0 16 10 28t27 12q19 0 29 -11.5t10 -28.5q0 -18 -10.5 -29.5t-28.5 -11.5q-37 0 -37 41zM53 36q0 16 10 28t27 12q19 0 29 -11.5t10 -28.5q0 -18 -10.5 -29.5t-28.5 -11.5q-37 0 -37 41z" />
    <glyph glyph-name="semicolon" unicode=";" horiz-adv-x="178" 
d="M55 387q0 16 10 28t27 12q19 0 29 -11.5t10 -28.5q0 -18 -10.5 -29.5t-28.5 -11.5q-37 0 -37 41zM53 -106.5q-6 4.5 -8 11.5q17 28 23.5 50.5t6.5 47.5q-18 11 -18 36q0 16 9.5 26.5t25.5 10.5q18 0 27 -10t9 -34q0 -28 -12 -61.5t-27.5 -57.5t-23.5 -24q-6 0 -12 4.5z
" />
    <glyph glyph-name="less" unicode="&#x3c;" horiz-adv-x="400" 
d="M308 123l-254 111q-8 11 -8 27t16 25l270 133q14 -14 16 -30q0 -10 -9 -15l-234 -115l246 -106q0 -16 -7 -26.5t-14 -10.5q-8 0 -22 7z" />
    <glyph glyph-name="equal" unicode="=" horiz-adv-x="438" 
d="M47 379.5q2 7.5 10 7.5h338q0 -26 -2 -34t-10 -8h-338q0 27 2 34.5zM47 210.5q2 7.5 10 7.5h338q0 -27 -2 -34.5t-10 -7.5h-338q0 27 2 34.5z" />
    <glyph glyph-name="greater" unicode="&#x3e;" horiz-adv-x="400" 
d="M53 141q0 11 9 15l233 115l-246 106q1 16 7.5 26.5t13.5 10.5q8 0 23 -7l254 -111q8 -13 8 -27q0 -16 -16 -25l-271 -134q-15 18 -15 31z" />
    <glyph glyph-name="question" unicode="?" horiz-adv-x="296" 
d="M104 202q-2 7 -4.5 20t-2.5 28q0 49 25 93q15 24 42 59q35 46 53 80.5t18 78.5q0 104 -102 104q-60 0 -101 -31q-5 13 -5 35q0 9 17 18.5t43.5 16t55.5 6.5q60 0 99.5 -32.5t39.5 -109.5q0 -56 -22 -98t-62 -93q-6 -8 -17.5 -23.5t-17.5 -25.5q-21 -35 -21 -77
q0 -17 3.5 -35t2.5 -19q-6 -6 -22 -6q-7 0 -19 2q-1 2 -3 9zM100.5 6q-9.5 11 -9.5 30q0 17 10.5 28.5t27.5 11.5q18 0 28.5 -11.5t10.5 -28.5t-11 -29t-28 -12q-19 0 -28.5 11z" />
    <glyph glyph-name="at" unicode="@" horiz-adv-x="760" 
d="M521.5 -130.5q53.5 15.5 101.5 40.5q12 -21 12 -37q0 -9 -32 -24t-87.5 -26.5t-122.5 -11.5q-110 0 -180.5 28.5t-114 127.5t-43.5 298q0 220 94 320t260 100q154 0 226 -78.5t72 -253.5q0 -214 -52 -282t-108 -68q-37 0 -63 26q-15 -11 -46 -19.5t-75 -8.5
q-56 0 -87 29.5t-31 110.5q0 94 42.5 131.5t116.5 37.5q41 0 61 -7l3 64q2 49 -20.5 67.5t-66.5 18.5q-65 0 -111 -25q-5 10 -5 26q1 10 9 16q42 23 122 23q59 0 87.5 -27.5t26.5 -91.5l-7 -221q-3 -78 -5 -94q20 -17 45 -17q22 0 49.5 23.5t49 91t21.5 190.5q0 107 -26 172
t-81.5 95.5t-148.5 30.5q-148 0 -227.5 -89.5t-79.5 -296.5q0 -172 36 -260.5t96.5 -116.5t156.5 -28q79 0 132.5 15.5zM465 271q-25 5 -55 5q-58 0 -90.5 -29.5t-32.5 -104.5q0 -63 23.5 -84t67.5 -21q29 0 54.5 12t26.5 28z" />
    <glyph glyph-name="A" unicode="A" horiz-adv-x="436" 
d="M428 8q0 -9 -19 -9q-17 0 -27 1l-54 199h-220l-50 -190q-1 -7 -5.5 -8.5t-16.5 -1.5q-16 0 -28 1l192 698q2 6 15 6q11 0 19 -2l193 -690zM317 242l-54 200q-41 151 -45 197q-6 -46 -46 -197l-53 -200h198z" />
    <glyph glyph-name="B" unicode="B" horiz-adv-x="398" 
d="M59 683q0 17 25 17h100q70 0 118.5 -33t48.5 -119q0 -81 -30.5 -118.5t-69.5 -43.5q46 -2 83.5 -33.5t37.5 -113.5q0 -139 -60 -189t-133 -50h-120v683zM189 402q114 0 114 140q0 117 -120 117h-79v-257h85zM179 41q63 0 103 44.5t40 149.5q0 56 -18 83.5t-47 35t-78 7.5
h-75v-320h75z" />
    <glyph glyph-name="C" unicode="C" horiz-adv-x="359" 
d="M124 11q-35 20 -59 91t-24 213q0 166 28 253t69.5 114t96.5 27q29 0 50 -8t31.5 -19.5t10.5 -21.5q0 -7 -2.5 -15t-6.5 -13q-10 10 -31.5 22t-47.5 12q-44 0 -76 -24.5t-53.5 -102.5t-21.5 -226q0 -112 17.5 -172.5t45 -81t63.5 -20.5q33 0 63.5 15.5t45.5 34.5
q9 -18 9 -30q0 -14 -17 -30t-45.5 -27t-62.5 -11q-48 0 -83 20z" />
    <glyph glyph-name="D" unicode="D" horiz-adv-x="419" 
d="M61 683q0 8 5 12.5t20 4.5h99q99 0 147 -73.5t48 -239.5q0 -153 -26 -238.5t-69.5 -117t-104.5 -31.5h-119v683zM180 43q45 0 77.5 25.5t53 102t20.5 219.5q0 144 -35 206t-113 62h-78v-615h75z" />
    <glyph glyph-name="E" unicode="E" horiz-adv-x="344" 
d="M106 42h207q0 -29 -1.5 -35.5t-9.5 -6.5h-241v688q0 3 3 7.5t10 4.5h239q0 -29 -1 -35.5t-8 -6.5h-198v-254h185q0 -28 -1.5 -35t-8.5 -7h-175v-320z" />
    <glyph glyph-name="F" unicode="F" horiz-adv-x="332" 
d="M313 700q0 -29 -1 -35t-8 -6h-198v-254h185q0 -28 -1.5 -35.5t-8.5 -7.5h-175v-350q0 -4 -2 -8t-10 -4h-33v688q0 3 3 7.5t10 4.5h239z" />
    <glyph glyph-name="G" unicode="G" horiz-adv-x="404" 
d="M126 17.5q-40 27.5 -62.5 104.5t-22.5 220q0 146 25.5 226.5t70.5 111t113 30.5q44 0 74 -13t30 -30q0 -16 -7 -30q-36 29 -89 29q-56 0 -93 -27.5t-57 -98t-20 -196.5q0 -131 18 -199t48 -89.5t76 -21.5q35 0 59 14.5t31 28.5v277h-107v27q0 13 14 13h136v-343
q-47 -61 -135 -61q-62 0 -102 27.5z" />
    <glyph glyph-name="H" unicode="H" horiz-adv-x="441" 
d="M339 696.5q2 2.5 13 3t30 0.5v-688q0 -7 -2 -9t-13 -2.5t-30 -0.5v360h-233v-348q0 -7 -2 -9t-13 -2.5t-30 -0.5v688q0 7 2 9t13 2.5t30 0.5v-296h233v284q0 6 2 8.5z" />
    <glyph glyph-name="I" unicode="I" horiz-adv-x="164" 
d="M59 676q0 13 2 17.5t10.5 5.5t33.5 1v-688q0 -6 -2.5 -8.5t-13.5 -3t-30 -0.5v676z" />
    <glyph glyph-name="J" unicode="J" horiz-adv-x="298" 
d="M45 5.5q-27 15.5 -27 34.5q0 14 10 29q33 -37 85 -37q36 0 53.5 20t22.5 51t5 81v493q0 13 2 17t10 5t33 1v-531q0 -81 -24 -130t-98 -49q-45 0 -72 15.5z" />
    <glyph glyph-name="K" unicode="K" horiz-adv-x="391" 
d="M370 9q0 -10 -18 -10q-19 0 -28 1q-44 138 -83.5 212t-84.5 119q-21 21 -52 34v-353q0 -7 -2 -9t-13 -2.5t-30 -0.5v688q0 7 2 9t13 2.5t30 0.5v-303l217 301q10 2 28 2q20 0 20 -9q0 -1 -4 -9l-216 -288q66 -40 122.5 -134t97.5 -245q1 -2 1 -6z" />
    <glyph glyph-name="L" unicode="L" horiz-adv-x="332" 
d="M59 682q0 10 2 13t13.5 4t30.5 1v-658h209v-30q0 -7 -3 -9.5t-10 -2.5h-242v682z" />
    <glyph glyph-name="M" unicode="M" horiz-adv-x="502" 
d="M443 700v-688q0 -7 -2 -9t-13 -2.5t-30 -0.5l1 306l6 277l-79 -260l-59 -176q-3 -9 -11 -9h-23l-57 185l-80 257l5 -189l2 -77l1 -302q0 -6 -2.5 -8.5t-13.5 -3t-29 -0.5v688q0 12 12 12h29l114 -369l37 -123l35 119l112 361q4 12 12 12h33z" />
    <glyph glyph-name="N" unicode="N" horiz-adv-x="461" 
d="M359 697q2 2 13 2.5t30 0.5v-688q0 -12 -13 -12h-30l-125 283q-1 2 -84 206l-49 120l3 -351v-246q0 -7 -2 -9t-13 -2.5t-30 -0.5v688q0 12 12 12h31l122 -278q23 -58 60 -147.5t63 -152.5l12 -28q-2 144 -2 355v239q0 7 2 9z" />
    <glyph glyph-name="O" unicode="O" 
d="M117.5 23.5q-39.5 33.5 -58 112.5t-18.5 219q0 190 46.5 272.5t146.5 82.5q66 0 104 -34t55.5 -110.5t17.5 -209.5q0 -134 -19.5 -214t-60.5 -116t-108 -36q-66 0 -105.5 33.5zM304.5 67.5q30.5 31.5 45 101.5t14.5 188q0 115 -13 182t-41.5 96t-76.5 29q-50 0 -81 -31.5
t-46.5 -102.5t-15.5 -190q0 -112 13.5 -178t42.5 -96t78 -30q50 0 80.5 31.5z" />
    <glyph glyph-name="P" unicode="P" horiz-adv-x="373" 
d="M307.5 650q40.5 -50 40.5 -138q0 -106 -46.5 -158.5t-129.5 -52.5h-68v-289q0 -7 -2 -9t-13 -2.5t-30 -0.5v688q0 12 12 12h106q90 0 130.5 -50zM300 516q0 143 -121 143h-75v-316h70q126 0 126 173z" />
    <glyph glyph-name="Q" unicode="Q" 
d="M392 -77q8 -8 8 -25q0 -13 -25 -21.5t-56 -8.5q-42 0 -67 28.5t-39 93.5q-62 2 -99.5 36.5t-55 113.5t-17.5 215q0 190 46.5 272.5t146.5 82.5q66 0 104 -34t55.5 -110.5t17.5 -209.5q0 -179 -35 -263.5t-113 -98.5q9 -50 23 -69t41 -19q38 0 65 17zM103.5 162
q13.5 -66 42.5 -96t78 -30q50 0 80.5 31.5t45 101.5t14.5 188q0 115 -13 182t-41.5 96t-76.5 29q-50 0 -81 -31.5t-46.5 -102.5t-15.5 -190q0 -112 13.5 -178z" />
    <glyph glyph-name="R" unicode="R" horiz-adv-x="380" 
d="M319.5 379.5q-28.5 -49.5 -80.5 -68.5q32 -44 63.5 -118.5t41.5 -178.5q0 -9 -4 -11.5t-18 -3.5l-25 1q-14 120 -44.5 194t-58.5 108q-7 -1 -22 -1h-68v-289q0 -7 -2 -9t-13 -2.5t-30 -0.5v688q0 3 2.5 7.5t9.5 4.5h106q90 0 130.5 -50t40.5 -138q0 -83 -28.5 -132.5z
M174 343q63 0 94.5 44t31.5 127q0 67 -27.5 106t-93.5 39h-75v-316h70z" />
    <glyph glyph-name="S" unicode="S" horiz-adv-x="374" 
d="M95 -1.5q-30 8.5 -44.5 20t-14.5 22.5q0 8 4 16.5t11 14.5q41 -37 115 -37q65 0 96.5 35t31.5 96q0 45 -16 80.5t-58 78.5l-111 112q-36 39 -53 71.5t-17 69.5q0 59 44 95.5t121 36.5q61 0 93 -13t32 -29q0 -15 -13 -28q-14 11 -43.5 20t-67.5 9q-54 0 -86.5 -24.5
t-32.5 -65.5q0 -30 14.5 -55t43.5 -56l123 -123q42 -45 58 -84t16 -91q0 -82 -42.5 -131t-130.5 -49q-43 0 -73 8.5z" />
    <glyph glyph-name="T" unicode="T" horiz-adv-x="365" 
d="M359 700v-31q0 -12 -13 -12h-143v-645q0 -7 -2 -9t-13 -2.5t-30 -0.5v657h-152v31q0 12 13 12h340z" />
    <glyph glyph-name="U" unicode="U" horiz-adv-x="467" 
d="M123 20q-40 30 -52 78.5t-12 120.5v468q0 7 2 9.5t13.5 3t30.5 0.5v-482q0 -59 9 -98t38.5 -63t87.5 -24q35 0 70 7t53 16v632q0 6 2.5 8.5t13.5 3t29 0.5v-676q-22 -14 -69 -24t-99 -10q-77 0 -117 30z" />
    <glyph glyph-name="V" unicode="V" horiz-adv-x="421" 
d="M188.5 5.5q-7.5 14.5 -14.5 43.5q-45 170 -96 364t-71 269q-2 8 -2 11q0 7 11 7h34l122 -458q20 -78 38 -173q1 -9 5 -27q23 126 40 200l111 440q2 10 4.5 14t9.5 4h37l-179 -707q-16 -2 -33 -2q-9 0 -16.5 14.5z" />
    <glyph glyph-name="W" unicode="W" horiz-adv-x="638" 
d="M635 700l-145 -707q-5 0 -13.5 -1.5t-19.5 -1.5q-15 0 -25 49l-85 362q-6 28 -12 66.5t-11 70.5l-6 40q-16 -111 -27 -175l-87 -410q-18 -2 -36 -2q-14 0 -25 61l-137 630l-1 8q0 10 10 10h35l100 -459q12 -61 23 -133l8 -50h3q8 87 28 183l82 404q3 10 5 13.5t9 3.5h33
l93 -421q10 -44 15.5 -81t7.5 -48q2 -14 8 -52h3q1 9 5 34q14 103 22 147l90 441q2 10 4.5 14t9.5 4h36z" />
    <glyph glyph-name="X" unicode="X" horiz-adv-x="427" 
d="M416 6q0 -6 -8 -6h-46l-73 156q-44 95 -63 141q-5 9 -13 28q-55 -122 -77 -168l-73 -151q-4 -6 -12 -6h-40l174 364l-147 328q-2 4 -0.5 5.5t15 2t36.5 0.5l55 -123q45 -102 74 -175q36 86 75 175l52 115q2 5 4.5 6t14.5 1.5t33 0.5l-151 -337l168 -352z" />
    <glyph glyph-name="Y" unicode="Y" horiz-adv-x="360" 
d="M204 12q0 -7 -2 -9t-13 -2.5t-30 -0.5v287l-153 405q-2 4 0.5 5.5t15 2t34.5 0.5l52 -145q21 -56 47.5 -137.5t27.5 -90.5q1 7 25.5 83t48.5 145l48 136q2 5 4.5 6.5t14.5 2t31 0.5l-151 -413v-275z" />
    <glyph glyph-name="Z" unicode="Z" horiz-adv-x="396" 
d="M27 19q0 10 5 23l279 616h-221q-37 0 -41 -1v30q0 13 13 13h298q5 -8 5 -17q0 -8 -5 -23l-282 -618h237q38 0 50 4v-34q0 -12 -12 -12h-317q-9 5 -9 19z" />
    <glyph glyph-name="bracketleft" unicode="[" horiz-adv-x="426" 
d="M160 804q0 11 6.5 14t29.5 3h220q0 -27 -3 -33.5t-18 -6.5h-190v-936h210q0 -29 -4.5 -36t-17.5 -7h-233v1002z" />
    <glyph glyph-name="backslash" unicode="\" horiz-adv-x="294" 
d="M11 751q-3 10 4.5 12t38.5 2l228 -782q3 -9 -4.5 -11t-38.5 -2z" />
    <glyph glyph-name="bracketright" unicode="]" horiz-adv-x="426" 
d="M13.5 -166.5q3.5 6.5 18.5 6.5h190v940h-210q0 21 2 29.5t6 10.5t14 2h232v-1005q0 -11 -6 -14t-30 -3h-220q0 27 3.5 33.5z" />
    <glyph glyph-name="asciicircum" unicode="^" horiz-adv-x="430" 
d="M67.5 221q-5.5 7 -6.5 17l157 144l140 -130q8 -7 8 -16q0 -8 -6.5 -14.5t-16.5 -7.5l-129 110l-112 -99q-13 -11 -20 -11q-9 0 -14.5 7z" />
    <glyph glyph-name="underscore" unicode="_" horiz-adv-x="385" 
d="M20 -54q2 8 10 8h338q0 -27 -2 -34.5t-11 -7.5h-337q0 26 2 34z" />
    <glyph glyph-name="grave" unicode="`" horiz-adv-x="257" 
d="M103.5 632.5q-47.5 36.5 -54.5 43.5q1 10 7.5 23.5t14.5 13.5q4 0 51.5 -39.5t85.5 -77.5q-2 -4 -8 -15t-10 -11q-39 26 -86.5 62.5z" />
    <glyph glyph-name="a" unicode="a" horiz-adv-x="372" 
d="M78 17q-39 29 -39 121q0 96 42 129t113 33q54 0 84 -11v91q0 50 -21.5 68t-63.5 18q-47 0 -86.5 -7.5t-61.5 -17.5q-6 12 -6 26t7 18q17 10 61.5 17.5t95.5 7.5q61 0 90.5 -27.5t29.5 -93.5v-62q0 -183 -6 -300q-57 -37 -134 -37q-66 -2 -105 27zM239.5 38
q23.5 8 33.5 17q5 56 5 199q-29 10 -71 10q-38 0 -63.5 -8.5t-42 -35.5t-16.5 -81q0 -48 14 -72t36 -30.5t56 -6.5q25 0 48.5 8z" />
    <glyph glyph-name="b" unicode="b" horiz-adv-x="409" 
d="M62 20v692q0 16 8 19.5t37 3.5v-268q26 21 57.5 32t73.5 11q65 -1 99.5 -45t34.5 -145q0 -196 -56.5 -263t-138.5 -67q-78 0 -115 30zM281 87.5q42 56.5 42 217.5q0 91 -24.5 127t-79.5 36q-67 0 -112 -44v-373q22 -20 75 -20q57 0 99 56.5z" />
    <glyph glyph-name="c" unicode="c" horiz-adv-x="338" 
d="M112 8.5q-32 18.5 -50.5 73t-18.5 157.5q0 161 51 216t130 55q33 0 58.5 -11.5t25.5 -26.5q0 -14 -7 -28q-33 25 -80 25q-57 0 -94.5 -46.5t-37.5 -186.5q0 -83 14 -127.5t39 -61t63 -16.5q31 0 56.5 10t40.5 24q6 -15 6 -28q0 -10 -15 -21t-41.5 -18.5t-58.5 -7.5
q-49 0 -81 18.5z" />
    <glyph glyph-name="d" unicode="d" horiz-adv-x="407" 
d="M119.5 7q-34.5 17 -55.5 71.5t-21 159.5q0 91 23 152t61.5 90.5t87.5 29.5q55 0 86 -23v225q0 16 8 19.5t37 3.5v-715q-25 -13 -61.5 -21.5t-78.5 -8.5q-52 0 -86.5 17zM302 53l-1 393q-16 13 -32 18t-43 5q-59 0 -97 -56.5t-38 -171.5q0 -89 14.5 -134.5t39.5 -60
t66 -14.5q56 0 91 21z" />
    <glyph glyph-name="e" unicode="e" horiz-adv-x="379" 
d="M279.5 43.5q32.5 9.5 55.5 25.5q6 -16 6 -32q0 -10 -19 -21.5t-50 -18.5t-66 -7q-54 0 -89 17t-55.5 68t-20.5 147q0 121 26 184.5t64.5 83.5t88.5 20q64 0 94.5 -41.5t30.5 -116.5q0 -73 -8 -116q-59 -11 -131 -14.5t-120 -2.5q0 -78 15 -118t42 -53.5t69 -13.5
q35 0 67.5 9.5zM128 427.5q-36 -41.5 -41 -169.5h32q120 0 178 14q4 33 4 69q-1 66 -19 97t-65 31q-53 0 -89 -41.5z" />
    <glyph glyph-name="f" unicode="f" horiz-adv-x="246" 
d="M94 460h-79q0 16 0.5 25.5t3.5 12t10 2.5h65v65q0 103 46 139t115 36q42 0 63 -8t21 -20q0 -13 -5 -26q-36 12 -75 12q-54 0 -87 -26t-33 -108v-64h110q0 -28 -1.5 -34t-10.5 -6h-98v-448q0 -12 -12 -12h-33v460z" />
    <glyph glyph-name="g" unicode="g" horiz-adv-x="406" 
d="M354 24.5q35 -22.5 35 -76.5q0 -38 -21.5 -71.5t-65.5 -54t-107 -20.5q-90 0 -124 29.5t-34 76.5q0 34 25 69t60 60q-69 18 -69 51q0 19 18.5 43t45.5 45q-64 38 -64 154q0 88 46 134t118 46q22 0 47 -6h122q5 -7 5 -20q0 -19 -21 -19q-20 0 -62 6q30 -16 46.5 -48.5
t16.5 -80.5q0 -83 -40 -135.5t-122 -52.5q-34 0 -61 8q-19 -15 -33.5 -32.5t-14.5 -30.5q0 -25 155 -43q64 -9 99 -31.5zM132 436.5q-33 -36.5 -33 -106.5q0 -65 23 -101.5t90 -36.5q56 0 85 45t29 112q0 62 -29 93t-82 31q-50 0 -83 -36.5zM277 -141q33 14 50 36.5t17 47.5
q0 40 -28 55t-85 20q-47 6 -71 10q-31 -21 -54.5 -53t-23.5 -60q0 -33 24.5 -51.5t91.5 -18.5q46 0 79 14z" />
    <glyph glyph-name="h" unicode="h" horiz-adv-x="402" 
d="M58 712q0 16 8 19.5t37 3.5v-269q29 22 63.5 33t68.5 11q69 0 94 -33.5t25 -101.5v-363q0 -7 -2 -9t-13.5 -2.5t-30.5 -0.5v367q0 49 -18.5 74.5t-68.5 25.5q-30 0 -62 -11t-56 -34v-410q0 -7 -2 -9t-13 -2.5t-30 -0.5v712z" />
    <glyph glyph-name="i" unicode="i" horiz-adv-x="169" 
d="M62 477q0 16 8 19.5t37 3.5v-488q0 -7 -2 -9t-13 -2.5t-30 -0.5v477zM63 607.5q-6 9.5 -6 30.5q2 40 29 40q15 0 21 -9.5t6 -30.5q-2 -40 -30 -40q-14 0 -20 9.5z" />
    <glyph glyph-name="j" unicode="j" horiz-adv-x="181" 
d="M-87 -181.5q-30 13.5 -30 30.5q0 15 8 27q43 -28 100 -28q33 0 50 13.5t22.5 40t5.5 72.5v503q0 16 7.5 19.5t36.5 3.5v-537q0 -77 -25 -117.5t-95 -40.5q-50 0 -80 13.5zM69 607.5q-6 9.5 -6 30.5q2 40 29 40q15 0 21 -9.5t6 -30.5q-2 -40 -30 -40q-14 0 -20 9.5z" />
    <glyph glyph-name="k" unicode="k" horiz-adv-x="394" 
d="M61 712q0 16 8 19.5t37 3.5v-292q30 31 71.5 49t76.5 18q46 0 67 -22.5t21 -65.5q0 -60 -37.5 -99.5t-75.5 -59.5q24 -1 51.5 -16.5t49.5 -47.5t30 -81q3 -22 3 -51q0 -24 -3 -53q-1 -8 -3.5 -10.5t-14.5 -3t-32 -0.5q4 31 4 63q0 51 -12 85q-15 47 -44.5 67t-62.5 20
q-13 0 -24 -3q-19 -6 -38.5 -13.5t-26.5 -10.5v-196q0 -7 -1.5 -9t-12.5 -2.5t-31 -0.5v712zM242.5 314.5q51.5 41.5 51.5 97.5t-57 56q-32 0 -66 -17.5t-65 -53.5v-152q85 28 136.5 69.5z" />
    <glyph glyph-name="l" unicode="l" horiz-adv-x="168" 
d="M61 712q0 16 8 19.5t37 3.5v-723q0 -7 -2 -9t-13 -2.5t-30 -0.5v712z" />
    <glyph glyph-name="m" unicode="m" horiz-adv-x="603" 
d="M507 493.5q24 -16.5 32 -47t8 -83.5v-351q0 -7 -2 -9t-13 -2.5t-30 -0.5v368q0 56 -14 78.5t-58 22.5q-57 0 -102 -31v-426q0 -7 -2 -9t-13 -2.5t-30 -0.5v369q0 40 -4 59.5t-19.5 30t-51.5 10.5q-51 0 -102 -23v-434q0 -6 -2.5 -8.5t-13.5 -3t-29 -0.5v477q75 33 147 33
q73 0 99 -37q26 17 61 27t67 10q48 0 72 -16.5z" />
    <glyph glyph-name="n" unicode="n" horiz-adv-x="408" 
d="M59 475q86 35 163 35q78 0 107 -32.5t29 -106.5v-359q0 -7 -2 -9t-13.5 -2.5t-30.5 -0.5v360q0 60 -18.5 84.5t-72.5 24.5q-27 0 -60 -6.5t-57 -18.5v-432q0 -7 -2 -9t-13 -2.5t-30 -0.5v475z" />
    <glyph glyph-name="o" unicode="o" horiz-adv-x="392" 
d="M104 8.5q-33 18.5 -51 75t-18 165.5q0 261 167 261q54 0 87.5 -23t50.5 -80t17 -157q0 -131 -42.5 -195.5t-123.5 -64.5q-54 0 -87 18.5zM278.5 84q30.5 54 30.5 168q0 86 -12.5 134t-36 66t-60.5 18q-57 0 -87 -51.5t-30 -174.5q0 -86 12.5 -132.5t35.5 -64t61 -17.5
q56 0 86.5 54z" />
    <glyph glyph-name="p" unicode="p" horiz-adv-x="406" 
d="M61 -179v648q63 41 144 41q82 0 123.5 -48t41.5 -165q0 -179 -51.5 -243t-118.5 -64q-31 0 -56.5 12t-37.5 27v-222q-11 -4 -24 -4q-21 0 -21 18zM281 83.5q41 51.5 41 201.5q0 72 -13.5 112t-39 56t-66.5 16q-54 0 -97 -27v-359q14 -25 36.5 -38t47.5 -13q50 0 91 51.5z
" />
    <glyph glyph-name="q" unicode="q" horiz-adv-x="414" 
d="M308 -197v243q-40 -56 -119 -56q-147 0 -147 232q0 145 54 216.5t147 71.5q35 0 61 -7.5t49 -24.5v-657q0 -13 -4.5 -16t-23.5 -3q-12 0 -17 1zM265 48.5q28 17.5 43 51.5v350q-11 8 -31 13.5t-43 5.5q-143 0 -143 -249q0 -114 33.5 -151.5t82.5 -37.5q30 0 58 17.5z" />
    <glyph glyph-name="r" unicode="r" horiz-adv-x="280" 
d="M59 466q62 44 133 44q35 0 54 -9t19 -23q0 -7 -2 -15t-5 -13q-27 16 -60 16q-55 0 -94 -30v-424q0 -6 -2.5 -8.5t-13.5 -3t-29 -0.5v466z" />
    <glyph glyph-name="s" unicode="s" horiz-adv-x="377" 
d="M78 2q-35 12 -35 29t10 28q23 -14 49.5 -20.5t64.5 -6.5q55 0 86 21t31 63q0 31 -14.5 56t-46.5 48l-109 73q-41 27 -54.5 50.5t-13.5 54.5q0 52 44 82t117 30q42 0 71.5 -8.5t43.5 -19.5t14 -20q0 -11 -12 -26q-27 17 -53.5 25t-59.5 8q-51 0 -83.5 -18.5t-32.5 -51.5
q0 -21 11 -37.5t42 -37.5l114 -76q37 -29 54 -58.5t17 -66.5q0 -65 -43 -99t-120 -34q-57 0 -92 12z" />
    <glyph glyph-name="t" unicode="t" horiz-adv-x="300" 
d="M135.5 9.5q-18.5 19.5 -23.5 51.5t-5 87v311h-77q0 27 2 34t9 7h66v160q0 14 7.5 17t37.5 3v-180h127q0 -28 -1.5 -34.5t-8.5 -6.5h-117v-313q0 -41 2.5 -64t13.5 -37t34 -14q20 0 33.5 4t32.5 13q4 -11 4 -25q0 -16 -23.5 -24.5t-55.5 -8.5q-39 0 -57.5 19.5z" />
    <glyph glyph-name="u" unicode="u" horiz-adv-x="424" 
d="M120 8q-32 18 -44.5 57.5t-12.5 108.5v314q0 7 2 9t13 2.5t30 0.5v-333q0 -54 9 -82.5t31.5 -41t66.5 -12.5q23 0 51.5 5.5t50.5 18.5v433q0 6 2.5 8.5t13.5 3t29 0.5v-476q-33 -17 -73.5 -25.5t-78.5 -8.5q-58 0 -90 18z" />
    <glyph glyph-name="v" unicode="v" horiz-adv-x="361" 
d="M150 41l-122 444q-2 8 0.5 11t14 3.5t30.5 0.5l48 -179q21 -78 39.5 -161.5t23.5 -107.5h1q5 24 22 107.5t37 162.5l43 165q2 7 4.5 9.5t13.5 3t29 0.5l-133 -507q-6 -1 -29 -1q-8 0 -22 49z" />
    <glyph glyph-name="w" unicode="w" horiz-adv-x="557" 
d="M487.5 496.5q2.5 2.5 13.5 3t30 0.5q-18 -79 -67 -293t-50 -214l-27 -1q-4 0 -12 15.5t-14 39.5l-17 69q-35 142 -57 255l-8 35q-25 -139 -61 -290l-29 -123l-33 -1q-9 0 -21 49q-29 123 -62 258.5t-46 187.5q-2 7 0.5 9.5t14.5 3t31 0.5l44 -190q18 -81 32.5 -155
t18.5 -95h3q2 11 35 166l14 64l36 180q1 7 4.5 9.5t11.5 2.5h29l44 -195q18 -71 33 -139t19 -88h3q5 37 18 109.5t28 140.5l38 177q1 7 3.5 9.5z" />
    <glyph glyph-name="x" unicode="x" horiz-adv-x="447" 
d="M422 5q0 -4 -13.5 -4.5t-38.5 -0.5l-57 86q-37 56 -91 146q-69 -113 -92 -147l-50 -75q-4 -7 -12 -8.5t-43 -1.5l171 264l-146 228q-3 4 -1.5 5.5t14 2t33.5 0.5l56 -84q57 -90 75 -121q29 50 76 122l49 75q3 5 6 6t15 1.5t33 0.5l-152 -233l165 -254q3 -4 3 -8z" />
    <glyph glyph-name="y" unicode="y" horiz-adv-x="375" 
d="M22 -186q-18 7 -18 19q0 7 2.5 15t6.5 13q11 -6 28 -9.5t31 -3.5q67 0 99 136l-134 502q-2 8 -0.5 10.5t13 3t30.5 0.5l83 -315q11 -44 19.5 -90t10.5 -59q2 13 9.5 58.5t18.5 91.5l74 299q2 8 4.5 11t14 3.5t31.5 0.5l-136 -532q-23 -88 -55 -124.5t-81 -36.5
q-33 0 -51 7z" />
    <glyph glyph-name="z" unicode="z" horiz-adv-x="375" 
d="M36 7.5q-3 6.5 -3 15.5q0 11 4 19l251 418h-128q-78 0 -121 -5q-1 11 -1 23q0 22 15 22h283q1 -1 3.5 -5t2.5 -10q0 -13 -6 -25l-250 -417h127q86 0 126 7q1 -5 1 -22q0 -16 -3.5 -22t-14.5 -6h-282q-1 1 -4 7.5z" />
    <glyph glyph-name="braceleft" unicode="{" horiz-adv-x="289" 
d="M140.5 -120.5q-33.5 30.5 -33.5 103.5q0 41 7 99q1 9 4 43.5t3 69.5q0 39 -15.5 57t-45.5 24q-4 9 -4 21q0 18 14 27q19 11 29 19.5t16 26.5t6 51q0 32 -3 66.5t-4 43.5q-7 58 -7 97q0 62 41 89t114 27q9 -12 9 -27q0 -7 -4 -12t-9 -6q-52 -2 -78.5 -21t-26.5 -68
q0 -29 5 -74q7 -84 7 -124q0 -49 -15.5 -73.5t-45.5 -37.5q31 -10 46 -31t15 -62q0 -38 -7 -124q-5 -52 -5 -86q0 -46 12.5 -68t34 -28.5t65.5 -10.5q2 -16 2 -18q0 -24 -17 -24q-76 0 -109.5 30.5z" />
    <glyph glyph-name="bar" unicode="|" horiz-adv-x="365" 
d="M160 801q0 7 2.5 10t13.5 3.5t29 0.5v-1002q0 -9 -7 -11t-38 -2v1001z" />
    <glyph glyph-name="braceright" unicode="}" horiz-adv-x="289" 
d="M19 -123q0 15 12 17q52 2 78.5 21.5t26.5 67.5q0 29 -5 76q-7 84 -7 122q0 49 16 74t45 37q-30 10 -45.5 31t-15.5 63q0 39 7 123q5 52 5 86q0 46 -12.5 68t-34 29t-65.5 11q-2 14 -2 17q0 11 4.5 17.5t12.5 6.5q76 0 109.5 -30.5t33.5 -103.5q0 -42 -7 -98
q-1 -8 -4 -43.5t-3 -70.5q0 -39 15.5 -57t45.5 -24q4 -9 4 -20q0 -19 -14 -27q-20 -12 -29.5 -20.5t-15.5 -26.5t-6 -50q0 -33 3 -67.5t4 -43.5q7 -58 7 -97q0 -116 -155 -116q-8 11 -8 28z" />
    <glyph glyph-name="asciitilde" unicode="~" horiz-adv-x="400" 
d="M225 234.5q-18 7.5 -39 21.5q-17 12 -30 17.5t-30 5.5q-24 0 -42 -10t-29 -20t-15 -13q-8 -5 -16.5 2t-10.5 20q13 23 44.5 43t72.5 20q23 0 38.5 -6.5t35.5 -19.5q19 -13 34 -19.5t36 -6.5q25 0 46 11.5t35 31.5q5 5 12 5t13 -7t8 -18q-43 -65 -118 -65q-27 0 -45 7.5z
" />
    <glyph glyph-name="uni00A0" unicode="&#xa0;" horiz-adv-x="178" 
 />
    <glyph glyph-name="exclamdown" unicode="&#xa1;" horiz-adv-x="187" 
d="M67 439q-10 11 -10 29t10.5 29.5t28.5 11.5q19 0 28 -11t9 -30q0 -16 -10 -28t-27 -12q-19 0 -29 11zM72 305q0 13 10 17t34 4l5 -511q1 -9 -10.5 -11t-44.5 -2z" />
    <glyph glyph-name="cent" unicode="&#xa2;" horiz-adv-x="438" 
d="M346 17.5q-14 -10.5 -37 -19t-48 -8.5v-111q0 -13 -8.5 -17.5t-31.5 -4.5v134q-43 3 -69.5 21.5t-42 68.5t-15.5 143q0 148 40.5 210t105.5 73v113q0 13 9 17.5t32 4.5v-133q29 -1 53.5 -12t24.5 -19q0 -7 -2 -17.5t-5 -17.5q-18 12 -33.5 18t-39.5 6q-39 0 -69 -17.5
t-50 -71.5t-20 -156q0 -85 14 -126t39 -52.5t70 -11.5q46 0 90 34q7 -16 7 -30q0 -8 -14 -18.5z" />
    <glyph glyph-name="sterling" unicode="&#xa3;" horiz-adv-x="390" 
d="M337 42q4 -11 4 -22q0 -13 -15 -16.5t-41 -3.5h-184q-9 136 -9 279h-77q0 27 2 34.5t10 7.5h65v6q0 151 41 209.5t116 58.5q41 0 70.5 -13t29.5 -31q0 -15 -9 -30q-20 15 -39.5 22t-46.5 7q-37 0 -62.5 -17.5t-40 -65t-14.5 -135.5v-11h153q0 -27 -2 -34.5t-10 -7.5h-141
q2 -158 7 -233z" />
    <glyph glyph-name="currency" unicode="&#xa4;" horiz-adv-x="539" 
d="M522 62q-11 -11 -19 -18t-12 -7t-8 4l-76 77q-51 -49 -139 -49t-136 48l-85 -85l-11 11t-11 12.5t-3 7.5q0 4 4 8l80 79q-31 54 -31 137q0 81 29 134l-87 86q19 19 25.5 23t12.5 -2l74 -73q51 53 147 53q89 0 136 -51l81 80q24 -24 24 -31q0 -4 -4 -8l-76 -76
q27 -51 27 -131q0 -86 -32 -139zM382 156.5q40 47.5 40 137.5q0 85 -37.5 130t-106.5 45q-77 0 -118.5 -49t-41.5 -140q0 -82 39 -126.5t111 -44.5q74 0 114 47.5z" />
    <glyph glyph-name="yen" unicode="&#xa5;" horiz-adv-x="438" 
d="M239 220h136q0 -23 -4 -31t-16 -8h-116v-169q0 -7 -2 -9t-13 -2.5t-30 -0.5v181h-138q0 23 4 31t16 8h118v64l-21 56h-117q0 23 4 31t16 8h82l-117 313q-2 4 0 5.5t15 2t35 0.5l52 -145q22 -61 47.5 -137t26.5 -84q1 7 25.5 80t48.5 141l49 136q2 5 4.5 6.5t14.5 2
t31 0.5l-117 -321h101q0 -23 -3.5 -31t-16.5 -8h-96l-19 -53v-67z" />
    <glyph glyph-name="brokenbar" unicode="&#xa6;" horiz-adv-x="225" 
d="M90 334v390q0 10 5 14t18 4q14 0 22 -3v-393q0 -9 -4.5 -12t-18.5 -3t-22 3zM90 -194v398q0 10 5 14t18 4q14 0 22 -3v-401q0 -9 -4.5 -12t-18.5 -3t-22 3z" />
    <glyph glyph-name="section" unicode="&#xa7;" horiz-adv-x="375" 
d="M270 191q25 -26 34.5 -45t9.5 -45q0 -48 -39.5 -76.5t-105.5 -28.5q-43 0 -74 14t-37 28q-1 4 -1 9q0 15 11 28q21 -16 44.5 -24t56.5 -8q45 0 70.5 17.5t25.5 46.5q0 18 -8 32t-28 35q-12 12 -54 48q-61 53 -78 71q-25 27 -35.5 49.5t-10.5 53.5q0 29 16 56.5t49 45.5
l-10 10q-25 27 -35 45.5t-10 45.5q0 47 39.5 76t105.5 29q44 0 75 -14t36 -28q2 -4 2 -10q0 -16 -11 -27q-42 32 -101 32q-45 0 -71 -17.5t-26 -46.5q0 -19 8 -33t28 -34q12 -12 54 -48q61 -52 78 -72q25 -27 35.5 -49t10.5 -53q0 -28 -16.5 -55.5t-48.5 -46.5zM201 251
l25 -20q24 9 40 32.5t16 42.5q0 23 -9 40.5t-28 39.5q-16 18 -70 62l-26 21q-24 -9 -39.5 -32t-15.5 -43q0 -24 8.5 -41.5t28.5 -38.5q15 -19 70 -63z" />
    <glyph glyph-name="dieresis" unicode="&#xa8;" horiz-adv-x="257" 
d="M49 638q0 39 28 39q14 0 20 -9.5t5 -29.5q0 -39 -28 -39q-26 0 -25 39zM161.5 608.5q-6.5 9.5 -6.5 29.5q2 39 29 39q14 0 20 -9.5t5 -29.5q0 -39 -28 -39q-13 0 -19.5 9.5z" />
    <glyph glyph-name="copyright" unicode="&#xa9;" horiz-adv-x="462" 
d="M125 339.5q-41 18.5 -63 66t-22 134.5q0 112 51.5 166.5t145.5 54.5q95 0 140.5 -49.5t45.5 -171.5q0 -106 -50 -162.5t-142 -56.5q-65 0 -106 18.5zM343 404q43 47 43 139q0 99 -37.5 140.5t-110.5 41.5q-161 0 -161 -189q0 -99 37 -139t112 -40q74 0 117 47z
M187.5 414.5q-17.5 7.5 -27.5 33.5t-10 79q0 90 26.5 119.5t67.5 29.5q15 0 30.5 -6t15.5 -10q-1 -5 -3 -12.5t-4 -12.5q-2 1 -11.5 6t-22.5 5q-30 0 -48 -24t-18 -95q0 -39 6.5 -58.5t18 -25.5t31.5 -6t44 13q3 -4 5 -10.5t2 -10.5q0 -6 -18 -14t-37 -8q-30 0 -47.5 7.5z
" />
    <glyph glyph-name="ordfeminine" unicode="&#xaa;" horiz-adv-x="339" 
d="M82.5 312.5q-29.5 23.5 -29.5 95.5q0 70 31.5 95t89.5 25q39 0 72 -11v86q0 40 -21 53t-55 13q-53 0 -103 -26q-9 6 -9 23q0 9 4 13q18 13 48.5 22t73.5 9q45 0 73.5 -21.5t28.5 -72.5v-299q-16 -10 -50 -19t-70 -9q-54 0 -83.5 23.5zM215 330q21 5 31 11v140
q-13 5 -30.5 8t-30.5 3q-32 0 -51 -5t-31 -24t-12 -58q0 -47 22 -63.5t61 -16.5q20 0 41 5z" />
    <glyph glyph-name="guillemotleft" unicode="&#xab;" horiz-adv-x="418" 
d="M138.5 74q-37.5 57 -72 113.5t-34.5 67.5q0 10 33.5 64.5t69.5 109t47 71.5q8 0 14 -5t9 -10.5t4 -7.5q0 -10 -29.5 -59t-61.5 -98.5t-42 -64.5q10 -15 43 -66.5t63.5 -101.5t30.5 -58q0 -3 -8 -16t-17 -13q-12 17 -49.5 74zM297 87.5q-37 50.5 -71.5 101t-34.5 61.5
q0 10 33 61t69 102t47 66q11 0 19 -9.5t8 -12.5q0 -10 -29.5 -56t-61 -91.5t-41.5 -59.5q10 -14 43 -59t63 -89.5t30 -52.5q0 -3 -8 -15t-17 -12q-12 15 -49 65.5z" />
    <glyph glyph-name="logicalnot" unicode="&#xac;" horiz-adv-x="400" 
d="M356 111q-14 -4 -22 -4q-9 0 -15.5 5t-6.5 13v124h-275q-4 12 -4 22q0 9 5 15.5t12 6.5h306v-182z" />
    <glyph glyph-name="uni00AD" unicode="&#xad;" horiz-adv-x="295" 
d="M47 294.5q2 7.5 11 7.5h191q0 -26 -2 -33.5t-10 -7.5h-192q0 26 2 33.5z" />
    <glyph glyph-name="registered" unicode="&#xae;" horiz-adv-x="462" 
d="M377.5 711.5q45.5 -49.5 45.5 -171.5q0 -106 -50 -162.5t-142 -56.5q-65 0 -106 18.5t-63 66t-22 134.5q0 112 51.5 166.5t145.5 54.5q95 0 140.5 -49.5zM343 404q43 47 43 139q0 99 -37.5 140.5t-110.5 41.5q-161 0 -161 -189q0 -99 37 -139t112 -40q74 0 117 47z
M267 532q42 -45 50 -114q0 -8 -10 -8h-20q-8 49 -23 77t-28 38h-11h-26v-107q0 -6 -5 -7t-24 -1v264q0 1 1 2.5t4 1.5h52q44 0 64 -19.5t20 -52.5q0 -54 -44 -74zM281 606q0 46 -55 46h-27v-101q10 -1 25 -1q57 0 57 56z" />
    <glyph glyph-name="macron" unicode="&#xaf;" horiz-adv-x="257" 
d="M3 632q2 22 19 22h229q3 -8 3 -21q-2 -23 -18 -23h-231q-2 8 -2 22z" />
    <glyph glyph-name="degree" unicode="&#xb0;" horiz-adv-x="376" 
d="M123 583.5q-21 18.5 -21 69.5q0 44 24 66.5t67 22.5t63.5 -20t20.5 -68q0 -43 -23.5 -66t-66.5 -23t-64 18.5zM242 654q0 30 -12 42t-36 12q-28 0 -42.5 -13t-14.5 -44q0 -27 12.5 -39t37.5 -12q55 0 55 54z" />
    <glyph glyph-name="plusminus" unicode="&#xb1;" horiz-adv-x="439" 
d="M395 318q0 -26 -2 -33.5t-10 -7.5h-142v-142q0 -8 -7.5 -10t-34.5 -2v154h-154q0 26 2 33.5t10 7.5h142v143q0 8 8 10t34 2v-155h154zM47 45.5q2 7.5 10 7.5h338q0 -26 -2 -33.5t-10 -7.5h-338q0 26 2 33.5z" />
    <glyph glyph-name="uni00B2" unicode="&#xb2;" horiz-adv-x="408" 
d="M56 307q0 18 9 28q30 32 92 86q64 56 95 93t31 78q0 33 -18 53t-65 20q-39 0 -67 -13.5t-52 -34.5q-7 9 -9.5 15t-2.5 14q0 11 21.5 26.5t55 26.5t68.5 11q67 0 93.5 -29t26.5 -80q0 -35 -18.5 -68t-46 -61.5t-73.5 -69.5q-49 -42 -75 -70h227q4 -11 4 -20q0 -23 -16 -23
h-277q-3 11 -3 18z" />
    <glyph glyph-name="uni00B3" unicode="&#xb3;" horiz-adv-x="425" 
d="M338 477q20 -26 20 -60q0 -67 -46 -102.5t-126 -35.5q-40 0 -70 9t-42 21q-7 6 -7 16q0 7 3.5 14.5t10.5 11.5q19 -15 44 -22.5t64 -7.5q56 0 89.5 24.5t33.5 66.5q0 30 -20 49.5t-52 24.5q-32 4 -86 4q-2 3 -3.5 9.5t-1.5 11.5q0 7 4 12t12 5q43 0 71 -4q31 20 44 40
t13 45q0 23 -20 41t-65 18q-37 0 -68.5 -11t-54.5 -30q-10 10 -10 23q0 12 7 17q17 17 53 30t84 13q64 0 93 -26t29 -65q0 -30 -15 -57t-44 -47q36 -12 56 -38z" />
    <glyph glyph-name="acute" unicode="&#xb4;" horiz-adv-x="259" 
d="M58 583.5q-6 11.5 -8 15.5q38 38 86 77.5t51 39.5q8 0 14.5 -13.5t7.5 -23.5q-6 -7 -53.5 -43.5t-87.5 -63.5q-4 0 -10 11.5z" />
    <glyph glyph-name="uni00B5" unicode="&#xb5;" horiz-adv-x="428" 
d="M63 -191v676q0 10 5 14.5t17 4.5q15 0 22 -3v-372q0 -50 28 -73t77 -23q60 0 107 21v431q0 10 4.5 14.5t17.5 4.5q15 0 23 -3v-478q-33 -14 -73.5 -23.5t-78.5 -9.5q-74 0 -105 40v-208q0 -16 -25 -16q-12 0 -19 3z" />
    <glyph glyph-name="paragraph" unicode="&#xb6;" horiz-adv-x="549" 
d="M315 0v208q-16 -9 -43.5 -14t-50.5 -5q-76 0 -125.5 53.5t-49.5 180.5q0 138 52.5 212t146.5 74q37 0 63.5 -6.5t51.5 -19.5v-669q0 -10 -6 -13.5t-18 -3.5q-6 0 -21 3zM439 1v670q0 10 5 14t18 4q15 0 22 -3v-672q0 -10 -4.5 -13t-18.5 -3q-10 0 -22 3zM274 233
q25 5 41 15v406q-26 15 -76 15q-71 0 -109 -63t-38 -180q0 -109 39 -153t99 -44q19 -1 44 4z" />
    <glyph glyph-name="periodcentered" unicode="&#xb7;" horiz-adv-x="204" 
d="M61 270q0 16 10 28t27 12q19 0 29 -11.5t10 -28.5q0 -18 -10.5 -29.5t-28.5 -11.5q-37 0 -37 41z" />
    <glyph glyph-name="cedilla" unicode="&#xb8;" horiz-adv-x="257" 
d="M95.5 -184.5q-15.5 3.5 -19.5 5.5q0 4 3 14.5t7 14.5q2 3 7 2t16 -5t20 -4q35 0 35 36q0 21 -9 28t-25 7q-12 0 -23.5 -2t-14.5 -3l19 94h33l-14 -63q1 0 5 0.5t14 0.5q20 0 34 -13.5t14 -41.5q0 -38 -20.5 -56t-48.5 -18q-17 0 -32.5 3.5z" />
    <glyph glyph-name="uni00B9" unicode="&#xb9;" horiz-adv-x="417" 
d="M67 308q0 12 3.5 18t12.5 6h121v328l-128 -27q-6 9 -6 22q0 16 17 22q40 11 87.5 22t57.5 11q13 0 17 -2v-376h100q1 -8 1 -21q0 -12 -3 -17t-11 -5h-266q-3 9 -3 19z" />
    <glyph glyph-name="ordmasculine" unicode="&#xba;" horiz-adv-x="352" 
d="M102.5 307q-27.5 17 -42.5 62.5t-15 128.5q0 109 36.5 160.5t100.5 51.5q44 0 71 -18.5t40.5 -64.5t13.5 -128q0 -104 -35 -156.5t-100 -52.5q-42 0 -69.5 17zM243 371.5q25 42.5 25 129.5q0 96 -21 132t-64 36q-48 0 -73 -41t-25 -135t21 -129t66 -35q46 0 71 42.5z" />
    <glyph glyph-name="guillemotright" unicode="&#xbb;" horiz-adv-x="415" 
d="M219.5 3.5q-6.5 2.5 -12.5 9t-6 15.5q0 8 30.5 58.5t64 101.5t43.5 67q-10 15 -42 64.5t-62 98.5t-30 59q0 7 6 12t13 7.5t9 3.5q11 -17 47 -71.5t69.5 -109t33.5 -64.5q0 -11 -34.5 -67.5t-71.5 -113.5t-49 -74q-2 1 -8.5 3.5zM64 24q-6 3 -11.5 9t-5.5 16q0 8 30 52.5
t63 89.5t43 59q-1 3 -7 11.5t-15 21.5q-110 156 -110 174q0 7 6 12t12 7.5t8 3.5q11 -15 47 -66.5t69.5 -102.5t33.5 -61q0 -11 -34.5 -62t-71.5 -101.5t-49 -65.5q-2 0 -8 3z" />
    <glyph glyph-name="onequarter" unicode="&#xbc;" horiz-adv-x="998" 
d="M59 308q0 24 17 24h120v328l-128 -27q-6 9 -6 22q0 16 17 22q41 11 88.5 22t57.5 11q12 0 16 -2v-376h100l2 -21q0 -11 -3.5 -16.5t-11.5 -5.5h-266q-3 9 -3 19zM298.5 -4q-8.5 5 -12.5 14l422 690q4 10 15 10q17 0 29 -19l-424 -693q-2 -7 -13 -7q-8 0 -16.5 5zM845 -3
v79h-192q-7 11 -7 19q0 9 8 31q20 63 75 148t106 133q13 14 35 14q12 0 18 -3v-299h75q3 -7 3 -22q0 -9 -3 -15t-9 -6h-66v-64q0 -17 -25 -17q-4 0 -18 2zM846 117l2 244q-41 -38 -88.5 -109.5t-66.5 -134.5h153z" />
    <glyph glyph-name="onehalf" unicode="&#xbd;" horiz-adv-x="991" 
d="M59 308q0 24 17 24h120v328l-128 -27q-6 9 -6 22q0 16 17 22q41 11 88.5 22t57.5 11q12 0 16 -2v-376h100l2 -21q0 -11 -3.5 -16.5t-11.5 -5.5h-266q-3 9 -3 19zM298.5 -4q-8.5 5 -12.5 14l422 690q4 10 15 10q17 0 29 -19l-424 -693q-2 -7 -13 -7q-8 0 -16.5 5zM646 18
q0 18 9 28q23 24 52 50t39 35q66 58 96.5 94.5t30.5 77.5q0 33 -18 53t-65 20q-39 0 -66 -13t-53 -35q-7 8 -9 14.5t-2 14.5q0 11 21.5 26.5t55 26.5t67.5 11q67 0 93.5 -29t26.5 -80q0 -35 -19 -68.5t-46.5 -62t-74.5 -69.5q-58 -54 -73 -69h228q3 -12 3 -20q0 -23 -15 -23
h-277q-4 9 -4 18z" />
    <glyph glyph-name="threequarters" unicode="&#xbe;" horiz-adv-x="1006" 
d="M331 477q20 -26 20 -60q0 -67 -46.5 -102.5t-126.5 -35.5q-40 0 -70 9t-42 21q-7 7 -7 16q0 7 4 14t10 12q20 -15 44.5 -22.5t63.5 -7.5q56 0 90 24.5t34 66.5q0 30 -20 49.5t-52 24.5q-32 4 -87 4q-4 8 -4 21q0 7 4 12t12 5q43 0 70 -4q31 20 44 40t13 45q0 23 -19.5 41
t-65.5 18q-72 0 -123 -41q-9 9 -9 23q0 13 6 17q18 18 53.5 30.5t84.5 12.5q64 0 92.5 -26t28.5 -65q0 -30 -15 -57t-43 -47q36 -12 56 -38zM306.5 -4q-8.5 5 -12.5 14l422 690q4 10 15 10q17 0 29 -19l-424 -693q-2 -7 -13 -7q-8 0 -16.5 5zM853 -3v79h-192q-7 11 -7 19
q0 9 8 31q20 63 75 148t106 133q13 14 35 14q12 0 18 -3v-299h75q3 -7 3 -22q0 -9 -3 -15t-9 -6h-66v-64q0 -17 -25 -17q-4 0 -18 2zM854 117l2 244q-41 -38 -88.5 -109.5t-66.5 -134.5h153z" />
    <glyph glyph-name="questiondown" unicode="&#xbf;" horiz-adv-x="300" 
d="M139 437.5q-10 11.5 -10 28.5q0 18 10.5 29.5t28.5 11.5q37 0 37 -41q0 -16 -10 -28t-27 -12q-19 0 -29 11.5zM54 -161.5q-40 32.5 -40 109.5q0 55 22 98t61 92q28 37 36 50q22 36 22 77q0 16 -3.5 34t-2.5 19q4 6 22 6q13 0 18 -1q1 -2 3.5 -9.5t5 -20t2.5 -28.5
q0 -48 -26 -92q-12 -21 -42 -61q-35 -47 -53 -81t-18 -77q0 -103 103 -103q59 0 101 30q5 -12 5 -35q0 -8 -17 -17.5t-43.5 -16t-55.5 -6.5q-60 0 -100 32.5z" />
    <glyph glyph-name="Agrave" unicode="&#xc0;" horiz-adv-x="436" 
d="M428 8q0 -9 -19 -9q-17 0 -27 1l-54 199h-220l-50 -190q-1 -7 -5.5 -8.5t-16.5 -1.5q-16 0 -28 1l192 698q2 6 15 6q11 0 19 -2l193 -690zM317 242l-54 200q-41 151 -45 197q-6 -46 -46 -197l-53 -200h198zM195.5 832.5q-47.5 36.5 -54.5 43.5q1 10 7.5 23.5t14.5 13.5
q4 0 51.5 -39.5t85.5 -77.5q-2 -4 -8 -15t-10 -11q-39 26 -86.5 62.5z" />
    <glyph glyph-name="Aacute" unicode="&#xc1;" horiz-adv-x="436" 
d="M428 8q0 -9 -19 -9q-17 0 -27 1l-54 199h-220l-50 -190q-1 -7 -5.5 -8.5t-16.5 -1.5q-16 0 -28 1l192 698q2 6 15 6q11 0 19 -2l193 -690zM317 242l-54 200q-41 151 -45 197q-6 -46 -46 -197l-53 -200h198zM149 783.5q-6 11.5 -8 15.5q38 38 86 77.5t51 39.5
q8 0 14.5 -13.5t7.5 -23.5q-6 -7 -53.5 -43.5t-87.5 -63.5q-4 0 -10 11.5z" />
    <glyph glyph-name="Acircumflex" unicode="&#xc2;" horiz-adv-x="436" 
d="M428 8q0 -9 -19 -9q-17 0 -27 1l-54 199h-220l-50 -190q-1 -7 -5.5 -8.5t-16.5 -1.5q-16 0 -28 1l192 698q2 6 15 6q11 0 19 -2l193 -690zM317 242l-54 200q-41 151 -45 197q-6 -46 -46 -197l-53 -200h198zM256.5 821q-32.5 35 -35.5 41q-12 -14 -47.5 -51t-42.5 -37
q-18 0 -32 17l111 110q6 2 12 2q10 0 18 -8q15 -15 55.5 -57t40.5 -46q0 -5 -11.5 -12t-23.5 -7q-12 13 -44.5 48z" />
    <glyph glyph-name="Atilde" unicode="&#xc3;" horiz-adv-x="436" 
d="M428 8q0 -9 -19 -9q-17 0 -27 1l-54 199h-220l-50 -190q-1 -7 -5.5 -8.5t-16.5 -1.5q-16 0 -28 1l192 698q2 6 15 6q11 0 19 -2l193 -690zM317 242l-54 200q-41 151 -45 197q-6 -46 -46 -197l-53 -200h198zM227 790.5q-13 8.5 -26 24.5l-8.5 8.5t-13 10t-13.5 3.5
q-17 0 -29 -9.5t-22.5 -23.5t-13.5 -14q-8 0 -16.5 10.5t-8.5 12.5q23 37 46.5 51.5t52.5 14.5q16 0 26.5 -7t21.5 -20q11 -12 20.5 -18.5t23.5 -6.5q24 0 37 10t22.5 23.5t12.5 13.5q8 0 14 -11.5t6 -14.5q-13 -25 -36 -45.5t-61 -20.5q-22 0 -35 8.5z" />
    <glyph glyph-name="Adieresis" unicode="&#xc4;" horiz-adv-x="436" 
d="M428 8q0 -9 -19 -9q-17 0 -27 1l-54 199h-220l-50 -190q-1 -7 -5.5 -8.5t-16.5 -1.5q-16 0 -28 1l192 698q2 6 15 6q11 0 19 -2l193 -690zM317 242l-54 200q-41 151 -45 197q-6 -46 -46 -197l-53 -200h198zM138 838q0 39 28 39q14 0 20 -9.5t5 -29.5q0 -39 -28 -39
q-26 0 -25 39zM250.5 808.5q-6.5 9.5 -6.5 29.5q2 39 29 39q14 0 20 -9.5t5 -29.5q0 -39 -28 -39q-13 0 -19.5 9.5z" />
    <glyph glyph-name="Aring" unicode="&#xc5;" horiz-adv-x="436" 
d="M428 8q0 -9 -19 -9q-17 0 -27 1l-54 199h-220l-50 -190q-1 -7 -5.5 -8.5t-16.5 -1.5q-16 0 -28 1l192 698q2 6 15 6q11 0 19 -2l193 -690zM317 242l-54 200q-41 151 -45 197q-6 -46 -46 -197l-53 -200h198zM152 778.5q-22 20.5 -22 67.5q0 45 24.5 67t67.5 22t63 -20
t20 -69q0 -43 -23.5 -65.5t-66.5 -22.5q-41 0 -63 20.5zM269 847q0 28 -11.5 40t-35.5 12q-28 0 -41.5 -12.5t-13.5 -42.5q0 -24 12 -37.5t36 -13.5q54 0 54 54z" />
    <glyph glyph-name="AE" unicode="&#xc6;" horiz-adv-x="653" 
d="M416 42h206q0 -29 -1.5 -35.5t-9.5 -6.5h-240v199h-208l-95 -190q-2 -6 -6.5 -8t-15.5 -2q-16 0 -28 1l342 691q2 4 6 6.5t8 2.5h248q0 -29 -1 -35.5t-8 -6.5h-197v-254h185q0 -28 -1.5 -35t-9.5 -7h-174v-320zM371 242v402q-46 -117 -89 -205l-98 -197h187z" />
    <glyph glyph-name="Ccedilla" unicode="&#xc7;" horiz-adv-x="359" 
d="M318 31.5q-14 -14.5 -38 -25.5t-53 -14l-12 -52q1 0 5 0.5t14 0.5q20 0 34 -13.5t14 -41.5q0 -38 -20.5 -56t-48.5 -18q-17 0 -32.5 3.5t-19.5 5.5q0 4 3 14.5t7 14.5q2 3 7 2t16 -5t20 -4q35 0 35 36q0 21 -9 28t-25 7q-13 0 -24 -2t-14 -3l17 82q-44 2 -76.5 25
t-54.5 94t-22 205q0 166 28 253t69.5 114t96.5 27q29 0 50 -8t31.5 -19.5t10.5 -21.5q0 -7 -2.5 -15t-6.5 -13q-10 10 -31.5 22t-47.5 12q-44 0 -76 -24.5t-53.5 -102.5t-21.5 -226q0 -112 17.5 -172.5t45 -81t63.5 -20.5q33 0 63.5 15.5t45.5 34.5q9 -18 9 -30
q0 -13 -14 -27.5z" />
    <glyph glyph-name="Egrave" unicode="&#xc8;" horiz-adv-x="344" 
d="M106 42h207q0 -29 -1.5 -35.5t-9.5 -6.5h-241v688q0 3 3 7.5t10 4.5h239q0 -29 -1 -35.5t-8 -6.5h-198v-254h185q0 -28 -1.5 -35t-8.5 -7h-175v-320zM164.5 832.5q-47.5 36.5 -54.5 43.5q1 10 7.5 23.5t14.5 13.5q4 0 51.5 -39.5t85.5 -77.5q-2 -4 -8 -15t-10 -11
q-39 26 -86.5 62.5z" />
    <glyph glyph-name="Eacute" unicode="&#xc9;" horiz-adv-x="344" 
d="M106 42h207q0 -29 -1.5 -35.5t-9.5 -6.5h-241v688q0 3 3 7.5t10 4.5h239q0 -29 -1 -35.5t-8 -6.5h-198v-254h185q0 -28 -1.5 -35t-8.5 -7h-175v-320zM118 783.5q-6 11.5 -8 15.5q38 38 86 77.5t51 39.5q8 0 14.5 -13.5t7.5 -23.5q-6 -7 -53.5 -43.5t-87.5 -63.5
q-4 0 -10 11.5z" />
    <glyph glyph-name="Ecircumflex" unicode="&#xca;" horiz-adv-x="344" 
d="M106 42h207q0 -29 -1.5 -35.5t-9.5 -6.5h-241v688q0 3 3 7.5t10 4.5h239q0 -29 -1 -35.5t-8 -6.5h-198v-254h185q0 -28 -1.5 -35t-8.5 -7h-175v-320zM225.5 821q-32.5 35 -35.5 41q-12 -14 -47.5 -51t-42.5 -37q-18 0 -32 17l111 110q6 2 12 2q10 0 18 -8
q15 -15 55.5 -57t40.5 -46q0 -5 -11.5 -12t-23.5 -7q-12 13 -44.5 48z" />
    <glyph glyph-name="Edieresis" unicode="&#xcb;" horiz-adv-x="344" 
d="M106 42h207q0 -29 -1.5 -35.5t-9.5 -6.5h-241v688q0 3 3 7.5t10 4.5h239q0 -29 -1 -35.5t-8 -6.5h-198v-254h185q0 -28 -1.5 -35t-8.5 -7h-175v-320zM107 838q0 39 28 39q14 0 20 -9.5t5 -29.5q0 -39 -28 -39q-26 0 -25 39zM219.5 808.5q-6.5 9.5 -6.5 29.5q2 39 29 39
q14 0 20 -9.5t5 -29.5q0 -39 -28 -39q-13 0 -19.5 9.5z" />
    <glyph glyph-name="Igrave" unicode="&#xcc;" horiz-adv-x="164" 
d="M59 676q0 13 2 17.5t10.5 5.5t33.5 1v-688q0 -6 -2.5 -8.5t-13.5 -3t-30 -0.5v676zM59.5 832.5q-47.5 36.5 -54.5 43.5q1 10 7.5 23.5t14.5 13.5q4 0 51.5 -39.5t85.5 -77.5q-2 -4 -8 -15t-10 -11q-39 26 -86.5 62.5z" />
    <glyph glyph-name="Iacute" unicode="&#xcd;" horiz-adv-x="164" 
d="M59 676q0 13 2 17.5t10.5 5.5t33.5 1v-688q0 -6 -2.5 -8.5t-13.5 -3t-30 -0.5v676zM13 783.5q-6 11.5 -8 15.5q38 38 86 77.5t51 39.5q8 0 14.5 -13.5t7.5 -23.5q-6 -7 -53.5 -43.5t-87.5 -63.5q-4 0 -10 11.5z" />
    <glyph glyph-name="Icircumflex" unicode="&#xce;" horiz-adv-x="164" 
d="M59 676q0 13 2 17.5t10.5 5.5t33.5 1v-688q0 -6 -2.5 -8.5t-13.5 -3t-30 -0.5v676zM120.5 821q-32.5 35 -35.5 41q-12 -14 -47.5 -51t-42.5 -37q-18 0 -32 17l111 110q6 2 12 2q10 0 18 -8q15 -15 55.5 -57t40.5 -46q0 -5 -11.5 -12t-23.5 -7q-12 13 -44.5 48z" />
    <glyph glyph-name="Idieresis" unicode="&#xcf;" horiz-adv-x="164" 
d="M59 676q0 13 2 17.5t10.5 5.5t33.5 1v-688q0 -6 -2.5 -8.5t-13.5 -3t-30 -0.5v676zM2 838q0 39 28 39q14 0 20 -9.5t5 -29.5q0 -39 -28 -39q-26 0 -25 39zM114.5 808.5q-6.5 9.5 -6.5 29.5q2 39 29 39q14 0 20 -9.5t5 -29.5q0 -39 -28 -39q-13 0 -19.5 9.5z" />
    <glyph glyph-name="Eth" unicode="&#xd0;" horiz-adv-x="419" 
d="M332 627q48 -73 48 -237q0 -155 -26 -241t-69.5 -117.5t-104.5 -31.5h-119v349h-47q0 26 2 33.5t11 7.5h34v293q0 8 5 12.5t20 4.5h99q99 0 147 -73zM257.5 68.5q32.5 25.5 53 102t20.5 219.5q0 144 -35 206t-113 62h-78v-268h114q0 -26 -2 -33.5t-11 -7.5h-101v-305
l75 -1q45 0 77.5 25.5z" />
    <glyph glyph-name="Ntilde" unicode="&#xd1;" horiz-adv-x="461" 
d="M359 697q2 2 13 2.5t30 0.5v-688q0 -12 -13 -12h-30l-125 283q-1 2 -84 206l-49 120l3 -351v-246q0 -7 -2 -9t-13 -2.5t-30 -0.5v688q0 12 12 12h31l122 -278q23 -58 60 -147.5t63 -152.5l12 -28q-2 144 -2 355v239q0 7 2 9zM239 790.5q-13 8.5 -26 24.5l-8.5 8.5t-13 10
t-13.5 3.5q-17 0 -29 -9.5t-22.5 -23.5t-13.5 -14q-8 0 -16.5 10.5t-8.5 12.5q23 37 46.5 51.5t52.5 14.5q16 0 26.5 -7t21.5 -20q11 -12 20.5 -18.5t23.5 -6.5q24 0 37 10t22.5 23.5t12.5 13.5q8 0 14 -11.5t6 -14.5q-13 -25 -36 -45.5t-61 -20.5q-22 0 -35 8.5z" />
    <glyph glyph-name="Ograve" unicode="&#xd2;" 
d="M117.5 23.5q-39.5 33.5 -58 112.5t-18.5 219q0 190 46.5 272.5t146.5 82.5q66 0 104 -34t55.5 -110.5t17.5 -209.5q0 -134 -19.5 -214t-60.5 -116t-108 -36q-66 0 -105.5 33.5zM304.5 67.5q30.5 31.5 45 101.5t14.5 188q0 115 -13 182t-41.5 96t-76.5 29q-50 0 -81 -31.5
t-46.5 -102.5t-15.5 -190q0 -112 13.5 -178t42.5 -96t78 -30q50 0 80.5 31.5zM203.5 832.5q-47.5 36.5 -54.5 43.5q1 10 7.5 23.5t14.5 13.5q4 0 51.5 -39.5t85.5 -77.5q-2 -4 -8 -15t-10 -11q-39 26 -86.5 62.5z" />
    <glyph glyph-name="Oacute" unicode="&#xd3;" 
d="M117.5 23.5q-39.5 33.5 -58 112.5t-18.5 219q0 190 46.5 272.5t146.5 82.5q66 0 104 -34t55.5 -110.5t17.5 -209.5q0 -134 -19.5 -214t-60.5 -116t-108 -36q-66 0 -105.5 33.5zM304.5 67.5q30.5 31.5 45 101.5t14.5 188q0 115 -13 182t-41.5 96t-76.5 29q-50 0 -81 -31.5
t-46.5 -102.5t-15.5 -190q0 -112 13.5 -178t42.5 -96t78 -30q50 0 80.5 31.5zM157 783.5q-6 11.5 -8 15.5q38 38 86 77.5t51 39.5q8 0 14.5 -13.5t7.5 -23.5q-6 -7 -53.5 -43.5t-87.5 -63.5q-4 0 -10 11.5z" />
    <glyph glyph-name="Ocircumflex" unicode="&#xd4;" 
d="M117.5 23.5q-39.5 33.5 -58 112.5t-18.5 219q0 190 46.5 272.5t146.5 82.5q66 0 104 -34t55.5 -110.5t17.5 -209.5q0 -134 -19.5 -214t-60.5 -116t-108 -36q-66 0 -105.5 33.5zM304.5 67.5q30.5 31.5 45 101.5t14.5 188q0 115 -13 182t-41.5 96t-76.5 29q-50 0 -81 -31.5
t-46.5 -102.5t-15.5 -190q0 -112 13.5 -178t42.5 -96t78 -30q50 0 80.5 31.5zM264.5 821q-32.5 35 -35.5 41q-12 -14 -47.5 -51t-42.5 -37q-18 0 -32 17l111 110q6 2 12 2q10 0 18 -8q15 -15 55.5 -57t40.5 -46q0 -5 -11.5 -12t-23.5 -7q-12 13 -44.5 48z" />
    <glyph glyph-name="Otilde" unicode="&#xd5;" 
d="M117.5 23.5q-39.5 33.5 -58 112.5t-18.5 219q0 190 46.5 272.5t146.5 82.5q66 0 104 -34t55.5 -110.5t17.5 -209.5q0 -134 -19.5 -214t-60.5 -116t-108 -36q-66 0 -105.5 33.5zM304.5 67.5q30.5 31.5 45 101.5t14.5 188q0 115 -13 182t-41.5 96t-76.5 29q-50 0 -81 -31.5
t-46.5 -102.5t-15.5 -190q0 -112 13.5 -178t42.5 -96t78 -30q50 0 80.5 31.5zM235 790.5q-13 8.5 -26 24.5l-8.5 8.5t-13 10t-13.5 3.5q-17 0 -29 -9.5t-22.5 -23.5t-13.5 -14q-8 0 -16.5 10.5t-8.5 12.5q23 37 46.5 51.5t52.5 14.5q16 0 26.5 -7t21.5 -20
q11 -12 20.5 -18.5t23.5 -6.5q24 0 37 10t22.5 23.5t12.5 13.5q8 0 14 -11.5t6 -14.5q-13 -25 -36 -45.5t-61 -20.5q-22 0 -35 8.5z" />
    <glyph glyph-name="Odieresis" unicode="&#xd6;" 
d="M117.5 23.5q-39.5 33.5 -58 112.5t-18.5 219q0 190 46.5 272.5t146.5 82.5q66 0 104 -34t55.5 -110.5t17.5 -209.5q0 -134 -19.5 -214t-60.5 -116t-108 -36q-66 0 -105.5 33.5zM304.5 67.5q30.5 31.5 45 101.5t14.5 188q0 115 -13 182t-41.5 96t-76.5 29q-50 0 -81 -31.5
t-46.5 -102.5t-15.5 -190q0 -112 13.5 -178t42.5 -96t78 -30q50 0 80.5 31.5zM146 838q0 39 28 39q14 0 20 -9.5t5 -29.5q0 -39 -28 -39q-26 0 -25 39zM258.5 808.5q-6.5 9.5 -6.5 29.5q2 39 29 39q14 0 20 -9.5t5 -29.5q0 -39 -28 -39q-13 0 -19.5 9.5z" />
    <glyph glyph-name="multiply" unicode="&#xd7;" horiz-adv-x="438" 
d="M247 282l96 -109l-11 -11t-12.5 -11t-7.5 -3q-4 0 -8 4l-86 97l-86 -97q-4 -4 -7 -4q-4 0 -10.5 5.5t-12 11l-8.5 8.5l96 108l-97 110q11 11 19 17.5t13 6.5q3 0 7 -4l87 -98l86 98q4 4 7 4q5 0 13 -6.5t18 -17.5z" />
    <glyph glyph-name="Oslash" unicode="&#xd8;" horiz-adv-x="455" 
d="M412 356q0 -134 -19.5 -214t-60.5 -116t-108 -36q-78 0 -117 46q-16 -41 -22 -53q-9 0 -19 3.5t-11 12.5q-1 1 7 20.5t12 29.5l9 23q-40 83 -40 283q0 129 20.5 206.5t62 113t107.5 35.5q74 0 114 -44q18 49 21 53q2 0 9 -1.5t14 -4.5t8 -9q1 -2 -19 -57l-7 -19
q39 -81 39 -272zM125 590.5q-34 -74.5 -34 -250.5q0 -161 27 -229l199 517q-28 37 -84 37q-74 0 -108 -74.5zM303 65q31 29 46.5 99t15.5 193q0 165 -28 234q-34 -89 -71.5 -186t-67.5 -175l-60 -156q29 -38 84 -38q50 0 81 29z" />
    <glyph glyph-name="Ugrave" unicode="&#xd9;" horiz-adv-x="467" 
d="M123 20q-40 30 -52 78.5t-12 120.5v468q0 7 2 9.5t13.5 3t30.5 0.5v-482q0 -59 9 -98t38.5 -63t87.5 -24q35 0 70 7t53 16v632q0 6 2.5 8.5t13.5 3t29 0.5v-676q-22 -14 -69 -24t-99 -10q-77 0 -117 30zM211.5 832.5q-47.5 36.5 -54.5 43.5q1 10 7.5 23.5t14.5 13.5
q4 0 51.5 -39.5t85.5 -77.5q-2 -4 -8 -15t-10 -11q-39 26 -86.5 62.5z" />
    <glyph glyph-name="Uacute" unicode="&#xda;" horiz-adv-x="467" 
d="M123 20q-40 30 -52 78.5t-12 120.5v468q0 7 2 9.5t13.5 3t30.5 0.5v-482q0 -59 9 -98t38.5 -63t87.5 -24q35 0 70 7t53 16v632q0 6 2.5 8.5t13.5 3t29 0.5v-676q-22 -14 -69 -24t-99 -10q-77 0 -117 30zM165 783.5q-6 11.5 -8 15.5q38 38 86 77.5t51 39.5q8 0 14.5 -13.5
t7.5 -23.5q-6 -7 -53.5 -43.5t-87.5 -63.5q-4 0 -10 11.5z" />
    <glyph glyph-name="Ucircumflex" unicode="&#xdb;" horiz-adv-x="467" 
d="M123 20q-40 30 -52 78.5t-12 120.5v468q0 7 2 9.5t13.5 3t30.5 0.5v-482q0 -59 9 -98t38.5 -63t87.5 -24q35 0 70 7t53 16v632q0 6 2.5 8.5t13.5 3t29 0.5v-676q-22 -14 -69 -24t-99 -10q-77 0 -117 30zM272.5 821q-32.5 35 -35.5 41q-12 -14 -47.5 -51t-42.5 -37
q-18 0 -32 17l111 110q6 2 12 2q10 0 18 -8q15 -15 55.5 -57t40.5 -46q0 -5 -11.5 -12t-23.5 -7q-12 13 -44.5 48z" />
    <glyph glyph-name="Udieresis" unicode="&#xdc;" horiz-adv-x="467" 
d="M123 20q-40 30 -52 78.5t-12 120.5v468q0 7 2 9.5t13.5 3t30.5 0.5v-482q0 -59 9 -98t38.5 -63t87.5 -24q35 0 70 7t53 16v632q0 6 2.5 8.5t13.5 3t29 0.5v-676q-22 -14 -69 -24t-99 -10q-77 0 -117 30zM154 838q0 39 28 39q14 0 20 -9.5t5 -29.5q0 -39 -28 -39
q-26 0 -25 39zM266.5 808.5q-6.5 9.5 -6.5 29.5q2 39 29 39q14 0 20 -9.5t5 -29.5q0 -39 -28 -39q-13 0 -19.5 9.5z" />
    <glyph glyph-name="Yacute" unicode="&#xdd;" horiz-adv-x="360" 
d="M204 12q0 -7 -2 -9t-13 -2.5t-30 -0.5v287l-153 405q-2 4 0.5 5.5t15 2t34.5 0.5l52 -145q21 -56 47.5 -137.5t27.5 -90.5q1 7 25.5 83t48.5 145l48 136q2 5 4.5 6.5t14.5 2t31 0.5l-151 -413v-275zM111 783.5q-6 11.5 -8 15.5q38 38 86 77.5t51 39.5q8 0 14.5 -13.5
t7.5 -23.5q-6 -7 -53.5 -43.5t-87.5 -63.5q-4 0 -10 11.5z" />
    <glyph glyph-name="Thorn" unicode="&#xde;" horiz-adv-x="373" 
d="M59 688q0 8 6.5 10t24.5 2h14v-138h73q90 0 130.5 -50t40.5 -138q0 -106 -46.5 -159t-129.5 -53h-68v-150q0 -6 -2.5 -8.5t-13.5 -3t-29 -0.5v688zM269 249q31 44 31 128q0 66 -27.5 104.5t-93.5 38.5h-75v-314l70 -1q64 0 95 44z" />
    <glyph glyph-name="germandbls" unicode="&#xdf;" horiz-adv-x="473" 
d="M61.5 -4.5q-7.5 3.5 -7.5 4.5q1 3 4 15.5t3 30.5l-1 503q0 155 156 155q67 0 110 -22t62.5 -54.5t19.5 -64.5t-19 -52.5t-56 -45.5q-31 -20 -46 -35t-15 -37q0 -21 16.5 -38.5t52.5 -44.5q55 -40 85.5 -78.5t30.5 -96.5q0 -69 -41 -106.5t-111 -37.5q-34 0 -61 7
t-41.5 17t-14.5 18q0 18 14 32q35 -33 97 -33q49 0 79.5 25.5t30.5 75.5q0 44 -26 75.5t-75 69.5q-42 33 -63 57.5t-21 55.5q0 32 19 52.5t56 44.5q31 19 46.5 35t15.5 39q0 24 -15 47t-47 38t-79 15q-60 0 -87.5 -32.5t-27.5 -107.5l1 -501q0 -16 -5 -22.5t-21 -6.5
q-11 0 -18.5 3.5z" />
    <glyph glyph-name="agrave" unicode="&#xe0;" horiz-adv-x="372" 
d="M78 17q-39 29 -39 121q0 96 42 129t113 33q54 0 84 -11v91q0 50 -21.5 68t-63.5 18q-47 0 -86.5 -7.5t-61.5 -17.5q-6 12 -6 26t7 18q17 10 61.5 17.5t95.5 7.5q61 0 90.5 -27.5t29.5 -93.5v-62q0 -183 -6 -300q-57 -37 -134 -37q-66 -2 -105 27zM239.5 38
q23.5 8 33.5 17q5 56 5 199q-29 10 -71 10q-38 0 -63.5 -8.5t-42 -35.5t-16.5 -81q0 -48 14 -72t36 -30.5t56 -6.5q25 0 48.5 8zM158.5 632.5q-47.5 36.5 -54.5 43.5q1 10 7.5 23.5t14.5 13.5q4 0 51.5 -39.5t85.5 -77.5q-2 -4 -8 -15t-10 -11q-39 26 -86.5 62.5z" />
    <glyph glyph-name="aacute" unicode="&#xe1;" horiz-adv-x="372" 
d="M78 17q-39 29 -39 121q0 96 42 129t113 33q54 0 84 -11v91q0 50 -21.5 68t-63.5 18q-47 0 -86.5 -7.5t-61.5 -17.5q-6 12 -6 26t7 18q17 10 61.5 17.5t95.5 7.5q61 0 90.5 -27.5t29.5 -93.5v-62q0 -183 -6 -300q-57 -37 -134 -37q-66 -2 -105 27zM239.5 38
q23.5 8 33.5 17q5 56 5 199q-29 10 -71 10q-38 0 -63.5 -8.5t-42 -35.5t-16.5 -81q0 -48 14 -72t36 -30.5t56 -6.5q25 0 48.5 8zM112 583.5q-6 11.5 -8 15.5q38 38 86 77.5t51 39.5q8 0 14.5 -13.5t7.5 -23.5q-6 -7 -53.5 -43.5t-87.5 -63.5q-4 0 -10 11.5z" />
    <glyph glyph-name="acircumflex" unicode="&#xe2;" horiz-adv-x="372" 
d="M78 17q-39 29 -39 121q0 96 42 129t113 33q54 0 84 -11v91q0 50 -21.5 68t-63.5 18q-47 0 -86.5 -7.5t-61.5 -17.5q-6 12 -6 26t7 18q17 10 61.5 17.5t95.5 7.5q61 0 90.5 -27.5t29.5 -93.5v-62q0 -183 -6 -300q-57 -37 -134 -37q-66 -2 -105 27zM239.5 38
q23.5 8 33.5 17q5 56 5 199q-29 10 -71 10q-38 0 -63.5 -8.5t-42 -35.5t-16.5 -81q0 -48 14 -72t36 -30.5t56 -6.5q25 0 48.5 8zM219.5 621q-32.5 35 -35.5 41q-12 -14 -47.5 -51t-42.5 -37q-18 0 -32 17l111 110q6 2 12 2q10 0 18 -8q15 -15 55.5 -57t40.5 -46
q0 -5 -11.5 -12t-23.5 -7q-12 13 -44.5 48z" />
    <glyph glyph-name="atilde" unicode="&#xe3;" horiz-adv-x="372" 
d="M78 17q-39 29 -39 121q0 96 42 129t113 33q54 0 84 -11v91q0 50 -21.5 68t-63.5 18q-47 0 -86.5 -7.5t-61.5 -17.5q-6 12 -6 26t7 18q17 10 61.5 17.5t95.5 7.5q61 0 90.5 -27.5t29.5 -93.5v-62q0 -183 -6 -300q-57 -37 -134 -37q-66 -2 -105 27zM239.5 38
q23.5 8 33.5 17q5 56 5 199q-29 10 -71 10q-38 0 -63.5 -8.5t-42 -35.5t-16.5 -81q0 -48 14 -72t36 -30.5t56 -6.5q25 0 48.5 8zM190 590.5q-13 8.5 -26 24.5l-8.5 8.5t-13 10t-13.5 3.5q-17 0 -29 -9.5t-22.5 -23.5t-13.5 -14q-8 0 -16.5 10.5t-8.5 12.5q23 37 46.5 51.5
t52.5 14.5q16 0 26.5 -7t21.5 -20q11 -12 20.5 -18.5t23.5 -6.5q24 0 37 10t22.5 23.5t12.5 13.5q8 0 14 -11.5t6 -14.5q-13 -25 -36 -45.5t-61 -20.5q-22 0 -35 8.5z" />
    <glyph glyph-name="adieresis" unicode="&#xe4;" horiz-adv-x="372" 
d="M78 17q-39 29 -39 121q0 96 42 129t113 33q54 0 84 -11v91q0 50 -21.5 68t-63.5 18q-47 0 -86.5 -7.5t-61.5 -17.5q-6 12 -6 26t7 18q17 10 61.5 17.5t95.5 7.5q61 0 90.5 -27.5t29.5 -93.5v-62q0 -183 -6 -300q-57 -37 -134 -37q-66 -2 -105 27zM239.5 38
q23.5 8 33.5 17q5 56 5 199q-29 10 -71 10q-38 0 -63.5 -8.5t-42 -35.5t-16.5 -81q0 -48 14 -72t36 -30.5t56 -6.5q25 0 48.5 8zM101 638q0 39 28 39q14 0 20 -9.5t5 -29.5q0 -39 -28 -39q-26 0 -25 39zM213.5 608.5q-6.5 9.5 -6.5 29.5q2 39 29 39q14 0 20 -9.5t5 -29.5
q0 -39 -28 -39q-13 0 -19.5 9.5z" />
    <glyph glyph-name="aring" unicode="&#xe5;" horiz-adv-x="372" 
d="M78 17q-39 29 -39 121q0 96 42 129t113 33q54 0 84 -11v91q0 50 -21.5 68t-63.5 18q-47 0 -86.5 -7.5t-61.5 -17.5q-6 12 -6 26t7 18q17 10 61.5 17.5t95.5 7.5q61 0 90.5 -27.5t29.5 -93.5v-62q0 -183 -6 -300q-57 -37 -134 -37q-66 -2 -105 27zM239.5 38
q23.5 8 33.5 17q5 56 5 199q-29 10 -71 10q-38 0 -63.5 -8.5t-42 -35.5t-16.5 -81q0 -48 14 -72t36 -30.5t56 -6.5q25 0 48.5 8zM115 578.5q-22 20.5 -22 67.5q0 45 24.5 67t67.5 22t63 -20t20 -69q0 -43 -23.5 -65.5t-66.5 -22.5q-41 0 -63 20.5zM232 647q0 28 -11.5 40
t-35.5 12q-28 0 -41.5 -12.5t-13.5 -42.5q0 -24 12 -37.5t36 -13.5q54 0 54 54z" />
    <glyph glyph-name="ae" unicode="&#xe6;" horiz-adv-x="635" 
d="M576 70q5 -12 5 -41q0 -6 -19.5 -15t-50 -15.5t-64.5 -6.5q-47 0 -78 11t-50 43v-24q-48 -30 -136 -30q-43 -1 -73.5 8t-50.5 41.5t-20 98.5q0 97 42 131t112 34q55 0 85 -11v88q0 50 -23 68t-68 18q-43 0 -79.5 -8t-59.5 -21q-5 11 -5 27q0 5 2.5 10.5t6.5 7.5
q18 11 56.5 18.5t94.5 7.5q51 0 79 -20t35 -66q22 52 58 69t85 17q126 0 126 -154q0 -77 -8 -120q-42 -7 -91 -7q-83 0 -160 16v-24q0 -81 15 -121t40.5 -52t67.5 -12q77 0 126 34zM373 433q-35 -36 -44 -148q90 -18 153 -18q28 0 56 5q4 33 4 73q-1 65 -19 94.5t-65 29.5
q-50 0 -85 -36zM278 259q-35 10 -71 10q-58 0 -90 -26t-32 -105q0 -47 14 -71t35.5 -30.5t55.5 -6.5q27 0 53 6.5t35 16.5v206z" />
    <glyph glyph-name="ccedilla" unicode="&#xe7;" horiz-adv-x="338" 
d="M261.5 41q25.5 10 40.5 24q6 -15 6 -28q0 -15 -29 -29.5t-72 -17.5l-11 -50q1 0 5 0.5t14 0.5q20 0 34 -13.5t14 -41.5q0 -38 -20.5 -56t-48.5 -18q-17 0 -32.5 3.5t-19.5 5.5q0 4 3 14.5t7 14.5q2 3 7 2t16 -5t20 -4q35 0 35 36q0 21 -9 28t-25 7q-13 0 -24 -2t-14 -3
l16 82q-42 3 -70.5 24t-44.5 74.5t-16 149.5q0 161 51 216t130 55q33 0 58.5 -11.5t25.5 -26.5q0 -14 -7 -28q-33 25 -80 25q-57 0 -94.5 -46.5t-37.5 -186.5q0 -83 14 -127.5t39 -61t63 -16.5q31 0 56.5 10z" />
    <glyph glyph-name="egrave" unicode="&#xe8;" horiz-adv-x="379" 
d="M279.5 43.5q32.5 9.5 55.5 25.5q6 -16 6 -32q0 -10 -19 -21.5t-50 -18.5t-66 -7q-54 0 -89 17t-55.5 68t-20.5 147q0 121 26 184.5t64.5 83.5t88.5 20q64 0 94.5 -41.5t30.5 -116.5q0 -73 -8 -116q-59 -11 -131 -14.5t-120 -2.5q0 -78 15 -118t42 -53.5t69 -13.5
q35 0 67.5 9.5zM128 427.5q-36 -41.5 -41 -169.5h32q120 0 178 14q4 33 4 69q-1 66 -19 97t-65 31q-53 0 -89 -41.5zM186.5 632.5q-47.5 36.5 -54.5 43.5q1 10 7.5 23.5t14.5 13.5q4 0 51.5 -39.5t85.5 -77.5q-2 -4 -8 -15t-10 -11q-39 26 -86.5 62.5z" />
    <glyph glyph-name="eacute" unicode="&#xe9;" horiz-adv-x="379" 
d="M279.5 43.5q32.5 9.5 55.5 25.5q6 -16 6 -32q0 -10 -19 -21.5t-50 -18.5t-66 -7q-54 0 -89 17t-55.5 68t-20.5 147q0 121 26 184.5t64.5 83.5t88.5 20q64 0 94.5 -41.5t30.5 -116.5q0 -73 -8 -116q-59 -11 -131 -14.5t-120 -2.5q0 -78 15 -118t42 -53.5t69 -13.5
q35 0 67.5 9.5zM128 427.5q-36 -41.5 -41 -169.5h32q120 0 178 14q4 33 4 69q-1 66 -19 97t-65 31q-53 0 -89 -41.5zM140 583.5q-6 11.5 -8 15.5q38 38 86 77.5t51 39.5q8 0 14.5 -13.5t7.5 -23.5q-6 -7 -53.5 -43.5t-87.5 -63.5q-4 0 -10 11.5z" />
    <glyph glyph-name="ecircumflex" unicode="&#xea;" horiz-adv-x="379" 
d="M279.5 43.5q32.5 9.5 55.5 25.5q6 -16 6 -32q0 -10 -19 -21.5t-50 -18.5t-66 -7q-54 0 -89 17t-55.5 68t-20.5 147q0 121 26 184.5t64.5 83.5t88.5 20q64 0 94.5 -41.5t30.5 -116.5q0 -73 -8 -116q-59 -11 -131 -14.5t-120 -2.5q0 -78 15 -118t42 -53.5t69 -13.5
q35 0 67.5 9.5zM128 427.5q-36 -41.5 -41 -169.5h32q120 0 178 14q4 33 4 69q-1 66 -19 97t-65 31q-53 0 -89 -41.5zM247.5 621q-32.5 35 -35.5 41q-12 -14 -47.5 -51t-42.5 -37q-18 0 -32 17l111 110q6 2 12 2q10 0 18 -8q15 -15 55.5 -57t40.5 -46q0 -5 -11.5 -12
t-23.5 -7q-12 13 -44.5 48z" />
    <glyph glyph-name="edieresis" unicode="&#xeb;" horiz-adv-x="379" 
d="M279.5 43.5q32.5 9.5 55.5 25.5q6 -16 6 -32q0 -10 -19 -21.5t-50 -18.5t-66 -7q-54 0 -89 17t-55.5 68t-20.5 147q0 121 26 184.5t64.5 83.5t88.5 20q64 0 94.5 -41.5t30.5 -116.5q0 -73 -8 -116q-59 -11 -131 -14.5t-120 -2.5q0 -78 15 -118t42 -53.5t69 -13.5
q35 0 67.5 9.5zM128 427.5q-36 -41.5 -41 -169.5h32q120 0 178 14q4 33 4 69q-1 66 -19 97t-65 31q-53 0 -89 -41.5zM129 638q0 39 28 39q14 0 20 -9.5t5 -29.5q0 -39 -28 -39q-26 0 -25 39zM241.5 608.5q-6.5 9.5 -6.5 29.5q2 39 29 39q14 0 20 -9.5t5 -29.5q0 -39 -28 -39
q-13 0 -19.5 9.5z" />
    <glyph glyph-name="igrave" unicode="&#xec;" horiz-adv-x="169" 
d="M62 477q0 16 8 19.5t37 3.5v-488q0 -7 -2 -9t-13 -2.5t-30 -0.5v477zM62.5 632.5q-47.5 36.5 -54.5 43.5q1 10 7.5 23.5t14.5 13.5q4 0 51.5 -39.5t85.5 -77.5q-2 -4 -8 -15t-10 -11q-39 26 -86.5 62.5z" />
    <glyph glyph-name="iacute" unicode="&#xed;" horiz-adv-x="169" 
d="M62 477q0 16 8 19.5t37 3.5v-488q0 -7 -2 -9t-13 -2.5t-30 -0.5v477zM16 583.5q-6 11.5 -8 15.5q38 38 86 77.5t51 39.5q8 0 14.5 -13.5t7.5 -23.5q-6 -7 -53.5 -43.5t-87.5 -63.5q-4 0 -10 11.5z" />
    <glyph glyph-name="icircumflex" unicode="&#xee;" horiz-adv-x="169" 
d="M62 477q0 16 8 19.5t37 3.5v-488q0 -7 -2 -9t-13 -2.5t-30 -0.5v477zM123.5 621q-32.5 35 -35.5 41q-12 -14 -47.5 -51t-42.5 -37q-18 0 -32 17l111 110q6 2 12 2q10 0 18 -8q15 -15 55.5 -57t40.5 -46q0 -5 -11.5 -12t-23.5 -7q-12 13 -44.5 48z" />
    <glyph glyph-name="idieresis" unicode="&#xef;" horiz-adv-x="169" 
d="M62 477q0 16 8 19.5t37 3.5v-488q0 -7 -2 -9t-13 -2.5t-30 -0.5v477zM5 638q0 39 28 39q14 0 20 -9.5t5 -29.5q0 -39 -28 -39q-26 0 -25 39zM117.5 608.5q-6.5 9.5 -6.5 29.5q2 39 29 39q14 0 20 -9.5t5 -29.5q0 -39 -28 -39q-13 0 -19.5 9.5z" />
    <glyph glyph-name="eth" unicode="&#xf0;" horiz-adv-x="435" 
d="M371.5 494.5q25.5 -88.5 25.5 -205.5q0 -139 -36.5 -219t-138.5 -80q-91 0 -136 63.5t-45 202.5q0 123 45.5 187.5t129.5 64.5q77 0 119 -49q-24 99 -86 173l-96 -38q-11 27 -11 34t7 10l69 27q-28 28 -67 56q4 10 13 16t18 6q10 0 19 -7q34 -25 62 -53l78 31
q11 -28 11 -34t-7 -9l-53 -21q54 -67 79.5 -155.5zM305 66q29 36 38 92.5t9 136.5q0 44 -5 94q-44 78 -123 78q-66 0 -102 -56t-36 -159q0 -222 135 -222q55 0 84 36z" />
    <glyph glyph-name="ntilde" unicode="&#xf1;" horiz-adv-x="408" 
d="M59 475q86 35 163 35q78 0 107 -32.5t29 -106.5v-359q0 -7 -2 -9t-13.5 -2.5t-30.5 -0.5v360q0 60 -18.5 84.5t-72.5 24.5q-27 0 -60 -6.5t-57 -18.5v-432q0 -7 -2 -9t-13 -2.5t-30 -0.5v475zM213 590.5q-13 8.5 -26 24.5l-8.5 8.5t-13 10t-13.5 3.5q-17 0 -29 -9.5
t-22.5 -23.5t-13.5 -14q-8 0 -16.5 10.5t-8.5 12.5q23 37 46.5 51.5t52.5 14.5q16 0 26.5 -7t21.5 -20q11 -12 20.5 -18.5t23.5 -6.5q24 0 37 10t22.5 23.5t12.5 13.5q8 0 14 -11.5t6 -14.5q-13 -25 -36 -45.5t-61 -20.5q-22 0 -35 8.5z" />
    <glyph glyph-name="ograve" unicode="&#xf2;" horiz-adv-x="392" 
d="M104 8.5q-33 18.5 -51 75t-18 165.5q0 261 167 261q54 0 87.5 -23t50.5 -80t17 -157q0 -131 -42.5 -195.5t-123.5 -64.5q-54 0 -87 18.5zM278.5 84q30.5 54 30.5 168q0 86 -12.5 134t-36 66t-60.5 18q-57 0 -87 -51.5t-30 -174.5q0 -86 12.5 -132.5t35.5 -64t61 -17.5
q56 0 86.5 54zM177.5 632.5q-47.5 36.5 -54.5 43.5q1 10 7.5 23.5t14.5 13.5q4 0 51.5 -39.5t85.5 -77.5q-2 -4 -8 -15t-10 -11q-39 26 -86.5 62.5z" />
    <glyph glyph-name="oacute" unicode="&#xf3;" horiz-adv-x="392" 
d="M104 8.5q-33 18.5 -51 75t-18 165.5q0 261 167 261q54 0 87.5 -23t50.5 -80t17 -157q0 -131 -42.5 -195.5t-123.5 -64.5q-54 0 -87 18.5zM278.5 84q30.5 54 30.5 168q0 86 -12.5 134t-36 66t-60.5 18q-57 0 -87 -51.5t-30 -174.5q0 -86 12.5 -132.5t35.5 -64t61 -17.5
q56 0 86.5 54zM131 583.5q-6 11.5 -8 15.5q38 38 86 77.5t51 39.5q8 0 14.5 -13.5t7.5 -23.5q-6 -7 -53.5 -43.5t-87.5 -63.5q-4 0 -10 11.5z" />
    <glyph glyph-name="ocircumflex" unicode="&#xf4;" horiz-adv-x="392" 
d="M104 8.5q-33 18.5 -51 75t-18 165.5q0 261 167 261q54 0 87.5 -23t50.5 -80t17 -157q0 -131 -42.5 -195.5t-123.5 -64.5q-54 0 -87 18.5zM278.5 84q30.5 54 30.5 168q0 86 -12.5 134t-36 66t-60.5 18q-57 0 -87 -51.5t-30 -174.5q0 -86 12.5 -132.5t35.5 -64t61 -17.5
q56 0 86.5 54zM238.5 621q-32.5 35 -35.5 41q-12 -14 -47.5 -51t-42.5 -37q-18 0 -32 17l111 110q6 2 12 2q10 0 18 -8q15 -15 55.5 -57t40.5 -46q0 -5 -11.5 -12t-23.5 -7q-12 13 -44.5 48z" />
    <glyph glyph-name="otilde" unicode="&#xf5;" horiz-adv-x="392" 
d="M104 8.5q-33 18.5 -51 75t-18 165.5q0 261 167 261q54 0 87.5 -23t50.5 -80t17 -157q0 -131 -42.5 -195.5t-123.5 -64.5q-54 0 -87 18.5zM278.5 84q30.5 54 30.5 168q0 86 -12.5 134t-36 66t-60.5 18q-57 0 -87 -51.5t-30 -174.5q0 -86 12.5 -132.5t35.5 -64t61 -17.5
q56 0 86.5 54zM209 590.5q-13 8.5 -26 24.5l-8.5 8.5t-13 10t-13.5 3.5q-17 0 -29 -9.5t-22.5 -23.5t-13.5 -14q-8 0 -16.5 10.5t-8.5 12.5q23 37 46.5 51.5t52.5 14.5q16 0 26.5 -7t21.5 -20q11 -12 20.5 -18.5t23.5 -6.5q24 0 37 10t22.5 23.5t12.5 13.5q8 0 14 -11.5
t6 -14.5q-13 -25 -36 -45.5t-61 -20.5q-22 0 -35 8.5z" />
    <glyph glyph-name="odieresis" unicode="&#xf6;" horiz-adv-x="392" 
d="M104 8.5q-33 18.5 -51 75t-18 165.5q0 261 167 261q54 0 87.5 -23t50.5 -80t17 -157q0 -131 -42.5 -195.5t-123.5 -64.5q-54 0 -87 18.5zM278.5 84q30.5 54 30.5 168q0 86 -12.5 134t-36 66t-60.5 18q-57 0 -87 -51.5t-30 -174.5q0 -86 12.5 -132.5t35.5 -64t61 -17.5
q56 0 86.5 54zM120 638q0 39 28 39q14 0 20 -9.5t5 -29.5q0 -39 -28 -39q-26 0 -25 39zM232.5 608.5q-6.5 9.5 -6.5 29.5q2 39 29 39q14 0 20 -9.5t5 -29.5q0 -39 -28 -39q-13 0 -19.5 9.5z" />
    <glyph glyph-name="divide" unicode="&#xf7;" horiz-adv-x="438" 
d="M190 386q-9 10 -9 28q0 16 9.5 27t25.5 11q18 0 27.5 -10.5t9.5 -27.5q0 -16 -10.5 -27t-26.5 -11q-17 0 -26 10zM47 294.5q2 7.5 10 7.5h338q0 -26 -2 -33.5t-10 -7.5h-338q0 26 2 33.5zM190 116q-9 10 -9 28q0 16 9.5 27t25.5 11q17 0 27 -11t10 -27q0 -17 -10.5 -27.5
t-26.5 -10.5q-17 0 -26 10z" />
    <glyph glyph-name="oslash" unicode="&#xf8;" horiz-adv-x="429" 
d="M356 425q24 -60 24 -175q0 -131 -41.5 -195.5t-118.5 -64.5q-44 0 -73.5 11t-49.5 40q-16 -29 -25.5 -44t-11.5 -18q-11 1 -19 6t-8 15q0 1 46 79q-20 58 -20 170q0 261 165 261q38 0 65.5 -11t46.5 -36l36 59q2 -1 9 -3t13 -6.5t6 -10.5q0 -5 -44 -77zM136.5 417.5
q-30.5 -51.5 -30.5 -173.5q0 -79 11 -126l187 310q-14 22 -33.5 31.5t-46.5 9.5q-57 0 -87.5 -51.5zM302.5 84q30.5 54 30.5 168q0 92 -15 140q-23 -39 -164 -273l-24 -40q14 -27 35 -38t51 -11q56 0 86.5 54z" />
    <glyph glyph-name="ugrave" unicode="&#xf9;" horiz-adv-x="424" 
d="M120 8q-32 18 -44.5 57.5t-12.5 108.5v314q0 7 2 9t13 2.5t30 0.5v-333q0 -54 9 -82.5t31.5 -41t66.5 -12.5q23 0 51.5 5.5t50.5 18.5v433q0 6 2.5 8.5t13.5 3t29 0.5v-476q-33 -17 -73.5 -25.5t-78.5 -8.5q-58 0 -90 18zM190.5 632.5q-47.5 36.5 -54.5 43.5
q1 10 7.5 23.5t14.5 13.5q4 0 51.5 -39.5t85.5 -77.5q-2 -4 -8 -15t-10 -11q-39 26 -86.5 62.5z" />
    <glyph glyph-name="uacute" unicode="&#xfa;" horiz-adv-x="424" 
d="M120 8q-32 18 -44.5 57.5t-12.5 108.5v314q0 7 2 9t13 2.5t30 0.5v-333q0 -54 9 -82.5t31.5 -41t66.5 -12.5q23 0 51.5 5.5t50.5 18.5v433q0 6 2.5 8.5t13.5 3t29 0.5v-476q-33 -17 -73.5 -25.5t-78.5 -8.5q-58 0 -90 18zM144 583.5q-6 11.5 -8 15.5q38 38 86 77.5
t51 39.5q8 0 14.5 -13.5t7.5 -23.5q-6 -7 -53.5 -43.5t-87.5 -63.5q-4 0 -10 11.5z" />
    <glyph glyph-name="ucircumflex" unicode="&#xfb;" horiz-adv-x="424" 
d="M120 8q-32 18 -44.5 57.5t-12.5 108.5v314q0 7 2 9t13 2.5t30 0.5v-333q0 -54 9 -82.5t31.5 -41t66.5 -12.5q23 0 51.5 5.5t50.5 18.5v433q0 6 2.5 8.5t13.5 3t29 0.5v-476q-33 -17 -73.5 -25.5t-78.5 -8.5q-58 0 -90 18zM251.5 621q-32.5 35 -35.5 41q-12 -14 -47.5 -51
t-42.5 -37q-18 0 -32 17l111 110q6 2 12 2q10 0 18 -8q15 -15 55.5 -57t40.5 -46q0 -5 -11.5 -12t-23.5 -7q-12 13 -44.5 48z" />
    <glyph glyph-name="udieresis" unicode="&#xfc;" horiz-adv-x="424" 
d="M120 8q-32 18 -44.5 57.5t-12.5 108.5v314q0 7 2 9t13 2.5t30 0.5v-333q0 -54 9 -82.5t31.5 -41t66.5 -12.5q23 0 51.5 5.5t50.5 18.5v433q0 6 2.5 8.5t13.5 3t29 0.5v-476q-33 -17 -73.5 -25.5t-78.5 -8.5q-58 0 -90 18zM133 638q0 39 28 39q14 0 20 -9.5t5 -29.5
q0 -39 -28 -39q-26 0 -25 39zM245.5 608.5q-6.5 9.5 -6.5 29.5q2 39 29 39q14 0 20 -9.5t5 -29.5q0 -39 -28 -39q-13 0 -19.5 9.5z" />
    <glyph glyph-name="yacute" unicode="&#xfd;" horiz-adv-x="375" 
d="M22 -186q-18 7 -18 19q0 7 2.5 15t6.5 13q11 -6 28 -9.5t31 -3.5q67 0 99 136l-134 502q-2 8 -0.5 10.5t13 3t30.5 0.5l83 -315q11 -44 19.5 -90t10.5 -59q2 13 9.5 58.5t18.5 91.5l74 299q2 8 4.5 11t14 3.5t31.5 0.5l-136 -532q-23 -88 -55 -124.5t-81 -36.5
q-33 0 -51 7zM119 583.5q-6 11.5 -8 15.5q38 38 86 77.5t51 39.5q8 0 14.5 -13.5t7.5 -23.5q-6 -7 -53.5 -43.5t-87.5 -63.5q-4 0 -10 11.5z" />
    <glyph glyph-name="thorn" unicode="&#xfe;" horiz-adv-x="406" 
d="M328.5 461q41.5 -48 41.5 -169q0 -175 -55 -238t-121 -63q-59 0 -88 33v-221q-12 -3 -26 -3q-11 0 -15 3t-4 14v895q0 16 8 19.5t37 3.5v-243q42 17 99 17q82 0 123.5 -48zM278.5 86q43.5 54 43.5 199q0 105 -29.5 144t-88.5 39q-56 0 -98 -28v-368q26 -41 78 -41
q51 1 94.5 55z" />
    <glyph glyph-name="ydieresis" unicode="&#xff;" horiz-adv-x="375" 
d="M22 -186q-18 7 -18 19q0 7 2.5 15t6.5 13q11 -6 28 -9.5t31 -3.5q67 0 99 136l-134 502q-2 8 -0.5 10.5t13 3t30.5 0.5l83 -315q11 -44 19.5 -90t10.5 -59q2 13 9.5 58.5t18.5 91.5l74 299q2 8 4.5 11t14 3.5t31.5 0.5l-136 -532q-23 -88 -55 -124.5t-81 -36.5
q-33 0 -51 7zM108 638q0 39 28 39q14 0 20 -9.5t5 -29.5q0 -39 -28 -39q-26 0 -25 39zM220.5 608.5q-6.5 9.5 -6.5 29.5q2 39 29 39q14 0 20 -9.5t5 -29.5q0 -39 -28 -39q-13 0 -19.5 9.5z" />
    <glyph glyph-name="Amacron" unicode="&#x100;" horiz-adv-x="436" 
d="M428 8q0 -9 -19 -9q-17 0 -27 1l-54 199h-220l-50 -190q-1 -7 -5.5 -8.5t-16.5 -1.5q-16 0 -28 1l192 698q2 6 15 6q11 0 19 -2l193 -690zM317 242l-54 200q-41 151 -45 197q-6 -46 -46 -197l-53 -200h198zM92 832q2 22 19 22h229q3 -8 3 -21q-2 -23 -18 -23h-231
q-2 8 -2 22z" />
    <glyph glyph-name="amacron" unicode="&#x101;" horiz-adv-x="372" 
d="M78 17q-39 29 -39 121q0 96 42 129t113 33q54 0 84 -11v91q0 50 -21.5 68t-63.5 18q-47 0 -86.5 -7.5t-61.5 -17.5q-6 12 -6 26t7 18q17 10 61.5 17.5t95.5 7.5q61 0 90.5 -27.5t29.5 -93.5v-62q0 -183 -6 -300q-57 -37 -134 -37q-66 -2 -105 27zM239.5 38
q23.5 8 33.5 17q5 56 5 199q-29 10 -71 10q-38 0 -63.5 -8.5t-42 -35.5t-16.5 -81q0 -48 14 -72t36 -30.5t56 -6.5q25 0 48.5 8zM55 632q2 22 19 22h229q3 -8 3 -21q-2 -23 -18 -23h-231q-2 8 -2 22z" />
    <glyph glyph-name="Abreve" unicode="&#x102;" horiz-adv-x="436" 
d="M428 8q0 -9 -19 -9q-17 0 -27 1l-54 199h-220l-50 -190q-1 -7 -5.5 -8.5t-16.5 -1.5q-16 0 -28 1l192 698q2 6 15 6q11 0 19 -2l193 -690zM317 242l-54 200q-41 151 -45 197q-6 -46 -46 -197l-53 -200h198zM155 795.5q-27 20.5 -42 47t-15 42.5q0 10 7 15.5t21 8.5
q32 -91 91 -91q34 0 52 21.5t33 58.5q4 8 12 8t15.5 -6.5t8.5 -15.5q-14 -45 -43.5 -77t-78.5 -32q-34 0 -61 20.5z" />
    <glyph glyph-name="abreve" unicode="&#x103;" horiz-adv-x="372" 
d="M78 17q-39 29 -39 121q0 96 42 129t113 33q54 0 84 -11v91q0 50 -21.5 68t-63.5 18q-47 0 -86.5 -7.5t-61.5 -17.5q-6 12 -6 26t7 18q17 10 61.5 17.5t95.5 7.5q61 0 90.5 -27.5t29.5 -93.5v-62q0 -183 -6 -300q-57 -37 -134 -37q-66 -2 -105 27zM239.5 38
q23.5 8 33.5 17q5 56 5 199q-29 10 -71 10q-38 0 -63.5 -8.5t-42 -35.5t-16.5 -81q0 -48 14 -72t36 -30.5t56 -6.5q25 0 48.5 8zM118 595.5q-27 20.5 -42 47t-15 42.5q0 10 7 15.5t21 8.5q32 -91 91 -91q34 0 52 21.5t33 58.5q4 8 12 8t15.5 -6.5t8.5 -15.5
q-14 -45 -43.5 -77t-78.5 -32q-34 0 -61 20.5z" />
    <glyph glyph-name="Aogonek" unicode="&#x104;" horiz-adv-x="436" 
d="M323 -175q-20 20 -20 60q0 36 22.5 68.5t53.5 55.5l-51 190h-219l-51 -190q-1 -7 -5.5 -8.5t-16.5 -1.5q-16 0 -28 1l192 698q2 6 15 6q11 0 19 -2l192 -686q1 -3 1 -7q0 -6 -7 -10q-32 -21 -53.5 -50t-21.5 -60q0 -24 9.5 -36t32.5 -12q18 0 31 9q8 -14 8 -22
q0 -12 -13.5 -17.5t-34.5 -5.5q-35 0 -55 20zM318 242l-55 200q-41 151 -45 197q-6 -46 -46 -197l-54 -200h200z" />
    <glyph glyph-name="aogonek" unicode="&#x105;" horiz-adv-x="372" 
d="M215.5 -173q-19.5 22 -19.5 65q0 54 40 103q-22 -5 -64 -5q-62 0 -97.5 30t-35.5 118q0 96 42 129t113 33q54 0 84 -11v91q0 50 -21.5 68t-63.5 18q-47 0 -86.5 -7.5t-61.5 -17.5q-6 12 -6 26t7 18q17 10 61.5 17.5t95.5 7.5q61 0 90.5 -27.5t29.5 -93.5v-62
q0 -183 -6 -300q-37 -27 -58 -61.5t-21 -69.5q0 -28 9.5 -41t31.5 -13q17 0 32 8q3 -4 6 -15q1 -7 0 -11q-3 -19 -47 -19q-35 0 -54.5 22zM239.5 38q23.5 8 33.5 17q5 56 5 199q-29 10 -71 10q-38 0 -63.5 -8.5t-42 -35.5t-16.5 -81q0 -48 14 -72t36 -30.5t56 -6.5
q25 0 48.5 8z" />
    <glyph glyph-name="Cacute" unicode="&#x106;" horiz-adv-x="359" 
d="M124 11q-35 20 -59 91t-24 213q0 166 28 253t69.5 114t96.5 27q29 0 50 -8t31.5 -19.5t10.5 -21.5q0 -7 -2.5 -15t-6.5 -13q-10 10 -31.5 22t-47.5 12q-44 0 -76 -24.5t-53.5 -102.5t-21.5 -226q0 -112 17.5 -172.5t45 -81t63.5 -20.5q33 0 63.5 15.5t45.5 34.5
q9 -18 9 -30q0 -14 -17 -30t-45.5 -27t-62.5 -11q-48 0 -83 20zM141 783.5q-6 11.5 -8 15.5q38 38 86 77.5t51 39.5q8 0 14.5 -13.5t7.5 -23.5q-6 -7 -53.5 -43.5t-87.5 -63.5q-4 0 -10 11.5z" />
    <glyph glyph-name="cacute" unicode="&#x107;" horiz-adv-x="338" 
d="M112 8.5q-32 18.5 -50.5 73t-18.5 157.5q0 161 51 216t130 55q33 0 58.5 -11.5t25.5 -26.5q0 -14 -7 -28q-33 25 -80 25q-57 0 -94.5 -46.5t-37.5 -186.5q0 -83 14 -127.5t39 -61t63 -16.5q31 0 56.5 10t40.5 24q6 -15 6 -28q0 -10 -15 -21t-41.5 -18.5t-58.5 -7.5
q-49 0 -81 18.5zM121 583.5q-6 11.5 -8 15.5q38 38 86 77.5t51 39.5q8 0 14.5 -13.5t7.5 -23.5q-6 -7 -53.5 -43.5t-87.5 -63.5q-4 0 -10 11.5z" />
    <glyph glyph-name="Ccaron" unicode="&#x10c;" horiz-adv-x="359" 
d="M124 11q-35 20 -59 91t-24 213q0 166 28 253t69.5 114t96.5 27q29 0 50 -8t31.5 -19.5t10.5 -21.5q0 -7 -2.5 -15t-6.5 -13q-10 10 -31.5 22t-47.5 12q-44 0 -76 -24.5t-53.5 -102.5t-21.5 -226q0 -112 17.5 -172.5t45 -81t63.5 -20.5q33 0 63.5 15.5t45.5 34.5
q9 -18 9 -30q0 -14 -17 -30t-45.5 -27t-62.5 -11q-48 0 -83 20zM154 827q-53 52 -60 62q2 7 9.5 17.5t14.5 10.5t46 -41.5t53 -56.5q26 32 53.5 62t35.5 39q19 -11 19 -23q0 -6 -24.5 -36.5t-51 -58t-32.5 -27.5q-10 0 -63 52z" />
    <glyph glyph-name="ccaron" unicode="&#x10d;" horiz-adv-x="338" 
d="M112 8.5q-32 18.5 -50.5 73t-18.5 157.5q0 161 51 216t130 55q33 0 58.5 -11.5t25.5 -26.5q0 -14 -7 -28q-33 25 -80 25q-57 0 -94.5 -46.5t-37.5 -186.5q0 -83 14 -127.5t39 -61t63 -16.5q31 0 56.5 10t40.5 24q6 -15 6 -28q0 -10 -15 -21t-41.5 -18.5t-58.5 -7.5
q-49 0 -81 18.5zM134 627q-53 52 -60 62q2 7 9.5 17.5t14.5 10.5t46 -41.5t53 -56.5q26 32 53.5 62t35.5 39q19 -11 19 -23q0 -6 -24.5 -36.5t-51 -58t-32.5 -27.5q-10 0 -63 52z" />
    <glyph glyph-name="Dcaron" unicode="&#x10e;" horiz-adv-x="419" 
d="M61 683q0 8 5 12.5t20 4.5h99q99 0 147 -73.5t48 -239.5q0 -153 -26 -238.5t-69.5 -117t-104.5 -31.5h-119v683zM180 43q45 0 77.5 25.5t53 102t20.5 219.5q0 144 -35 206t-113 62h-78v-615h75zM130 827q-53 52 -60 62q2 7 9.5 17.5t14.5 10.5t46 -41.5t53 -56.5
q26 32 53.5 62t35.5 39q19 -11 19 -23q0 -6 -24.5 -36.5t-51 -58t-32.5 -27.5q-10 0 -63 52z" />
    <glyph glyph-name="dcaron" unicode="&#x10f;" horiz-adv-x="461" 
d="M119.5 7q-34.5 17 -55.5 71.5t-21 159.5q0 91 23 152t61.5 90.5t87.5 29.5q55 0 86 -23v225q0 16 8 19.5t37 3.5v-715q-25 -13 -61.5 -21.5t-78.5 -8.5q-52 0 -86.5 17zM302 53l-1 393q-16 13 -32 18t-43 5q-59 0 -97 -56.5t-38 -171.5q0 -89 14.5 -134.5t39.5 -60
t66 -14.5q56 0 91 21zM399 495.5q-6 4.5 -7 11.5q21 43 23 120q-18 11 -18 36q0 16 9.5 26.5t24.5 10.5q18 0 27 -9.5t9 -33.5q0 -28 -10 -67.5t-23.5 -69t-21.5 -29.5q-7 0 -13 4.5z" />
    <glyph glyph-name="Dcroat" unicode="&#x110;" horiz-adv-x="419" 
d="M332 626.5q48 -73.5 48 -239.5q0 -153 -26 -238.5t-69.5 -117t-104.5 -31.5h-119v315h-75q-2 7 -2 21q1 9 5.5 15t12.5 6h59v326q0 8 5 12.5t20 4.5h99q99 0 147 -73.5zM257.5 68.5q32.5 25.5 53 102t20.5 219.5q0 144 -35 206t-113 62h-78v-301h117q3 -8 3 -20
q-2 -22 -18 -22h-102v-272h75q45 0 77.5 25.5z" />
    <glyph glyph-name="dcroat" unicode="&#x111;" horiz-adv-x="396" 
d="M400 623q-2 -23 -18 -23h-36v-580q-25 -13 -61.5 -21.5t-78.5 -8.5q-52 0 -86.5 17t-55.5 71.5t-21 159.5q0 91 23 152t61.5 90.5t87.5 29.5q55 0 86 -23v113h-150q-2 8 -2 22q2 22 19 22h133v68q0 16 8 19.5t37 3.5v-91h51q3 -8 3 -21zM302 53l-1 393q-16 13 -32 18
t-43 5q-59 0 -97 -56.5t-38 -171.5q0 -89 14.5 -134.5t39.5 -60t66 -14.5q56 0 91 21z" />
    <glyph glyph-name="Emacron" unicode="&#x112;" horiz-adv-x="344" 
d="M106 42h207q0 -29 -1.5 -35.5t-9.5 -6.5h-241v688q0 3 3 7.5t10 4.5h239q0 -29 -1 -35.5t-8 -6.5h-198v-254h185q0 -28 -1.5 -35t-8.5 -7h-175v-320zM61 832q2 22 19 22h229q3 -8 3 -21q-2 -23 -18 -23h-231q-2 8 -2 22z" />
    <glyph glyph-name="emacron" unicode="&#x113;" horiz-adv-x="379" 
d="M279.5 43.5q32.5 9.5 55.5 25.5q6 -16 6 -32q0 -10 -19 -21.5t-50 -18.5t-66 -7q-54 0 -89 17t-55.5 68t-20.5 147q0 121 26 184.5t64.5 83.5t88.5 20q64 0 94.5 -41.5t30.5 -116.5q0 -73 -8 -116q-59 -11 -131 -14.5t-120 -2.5q0 -78 15 -118t42 -53.5t69 -13.5
q35 0 67.5 9.5zM128 427.5q-36 -41.5 -41 -169.5h32q120 0 178 14q4 33 4 69q-1 66 -19 97t-65 31q-53 0 -89 -41.5zM83 632q2 22 19 22h229q3 -8 3 -21q-2 -23 -18 -23h-231q-2 8 -2 22z" />
    <glyph glyph-name="Edotaccent" unicode="&#x116;" horiz-adv-x="344" 
d="M106 42h207q0 -29 -1.5 -35.5t-9.5 -6.5h-241v688q0 3 3 7.5t10 4.5h239q0 -29 -1 -35.5t-8 -6.5h-198v-254h185q0 -28 -1.5 -35t-8.5 -7h-175v-320zM165 807.5q-6 9.5 -6 30.5q2 40 29 40q15 0 21 -9.5t6 -30.5q-2 -40 -30 -40q-14 0 -20 9.5z" />
    <glyph glyph-name="edotaccent" unicode="&#x117;" horiz-adv-x="379" 
d="M279.5 43.5q32.5 9.5 55.5 25.5q6 -16 6 -32q0 -10 -19 -21.5t-50 -18.5t-66 -7q-54 0 -89 17t-55.5 68t-20.5 147q0 121 26 184.5t64.5 83.5t88.5 20q64 0 94.5 -41.5t30.5 -116.5q0 -73 -8 -116q-59 -11 -131 -14.5t-120 -2.5q0 -78 15 -118t42 -53.5t69 -13.5
q35 0 67.5 9.5zM128 427.5q-36 -41.5 -41 -169.5h32q120 0 178 14q4 33 4 69q-1 66 -19 97t-65 31q-53 0 -89 -41.5zM187 607.5q-6 9.5 -6 30.5q2 40 29 40q15 0 21 -9.5t6 -30.5q-2 -40 -30 -40q-14 0 -20 9.5z" />
    <glyph glyph-name="Eogonek" unicode="&#x118;" horiz-adv-x="344" 
d="M207 -175.5q-20 19.5 -20 59.5q0 33 18.5 63.5t46.5 52.5h-191v688q0 3 3 7.5t10 4.5h239q0 -29 -1 -35.5t-8 -6.5h-198v-254h185q0 -28 -1.5 -35t-8.5 -7h-175v-320h207q0 -26 -2 -32.5t-10 -12.5q-30 -20 -51 -49t-21 -60q0 -47 41 -47q17 0 32 9q8 -14 8 -22
q0 -12 -14 -17.5t-35 -5.5q-34 0 -54 19.5z" />
    <glyph glyph-name="eogonek" unicode="&#x119;" horiz-adv-x="379" 
d="M238.5 -175q-19.5 20 -19.5 60q0 30 11.5 59t29.5 53q-28 -7 -55 -7q-53 0 -88 17.5t-55.5 68t-20.5 146.5q0 121 26 184.5t64.5 83.5t88.5 20q64 0 94.5 -41.5t30.5 -116.5q0 -73 -8 -116q-89 -17 -250 -17q0 -80 15.5 -120t42 -52.5t67.5 -12.5q35 0 67.5 9.5
t55.5 25.5q6 -16 6 -32q0 -7 -16 -20q-26 -20 -45.5 -56.5t-19.5 -71.5q0 -24 10 -35.5t32 -11.5q17 0 32 8q3 -4 6 -15q1 -7 0 -11q-3 -19 -47 -19q-35 0 -54.5 20zM297 272q4 33 4 69q-1 66 -19 97t-65 31q-34 0 -60.5 -14t-46.5 -60.5t-23 -136.5q147 0 210 14z" />
    <glyph glyph-name="Ecaron" unicode="&#x11a;" horiz-adv-x="344" 
d="M106 42h207q0 -29 -1.5 -35.5t-9.5 -6.5h-241v688q0 3 3 7.5t10 4.5h239q0 -29 -1 -35.5t-8 -6.5h-198v-254h185q0 -28 -1.5 -35t-8.5 -7h-175v-320zM131 827q-53 52 -60 62q2 7 9.5 17.5t14.5 10.5t46 -41.5t53 -56.5q26 32 53.5 62t35.5 39q19 -11 19 -23
q0 -6 -24.5 -36.5t-51 -58t-32.5 -27.5q-10 0 -63 52z" />
    <glyph glyph-name="ecaron" unicode="&#x11b;" horiz-adv-x="379" 
d="M279.5 43.5q32.5 9.5 55.5 25.5q6 -16 6 -32q0 -10 -19 -21.5t-50 -18.5t-66 -7q-54 0 -89 17t-55.5 68t-20.5 147q0 121 26 184.5t64.5 83.5t88.5 20q64 0 94.5 -41.5t30.5 -116.5q0 -73 -8 -116q-59 -11 -131 -14.5t-120 -2.5q0 -78 15 -118t42 -53.5t69 -13.5
q35 0 67.5 9.5zM128 427.5q-36 -41.5 -41 -169.5h32q120 0 178 14q4 33 4 69q-1 66 -19 97t-65 31q-53 0 -89 -41.5zM153 627q-53 52 -60 62q2 7 9.5 17.5t14.5 10.5t46 -41.5t53 -56.5q26 32 53.5 62t35.5 39q19 -11 19 -23q0 -6 -24.5 -36.5t-51 -58t-32.5 -27.5
q-10 0 -63 52z" />
    <glyph glyph-name="Gbreve" unicode="&#x11e;" horiz-adv-x="404" 
d="M126 17.5q-40 27.5 -62.5 104.5t-22.5 220q0 146 25.5 226.5t70.5 111t113 30.5q44 0 74 -13t30 -30q0 -16 -7 -30q-36 29 -89 29q-56 0 -93 -27.5t-57 -98t-20 -196.5q0 -131 18 -199t48 -89.5t76 -21.5q35 0 59 14.5t31 28.5v277h-107v27q0 13 14 13h136v-343
q-47 -61 -135 -61q-62 0 -102 27.5zM162 795.5q-27 20.5 -42 47t-15 42.5q0 10 7 15.5t21 8.5q32 -91 91 -91q34 0 52 21.5t33 58.5q4 8 12 8t15.5 -6.5t8.5 -15.5q-14 -45 -43.5 -77t-78.5 -32q-34 0 -61 20.5z" />
    <glyph glyph-name="gbreve" unicode="&#x11f;" horiz-adv-x="406" 
d="M354 24.5q35 -22.5 35 -76.5q0 -38 -21.5 -71.5t-65.5 -54t-107 -20.5q-90 0 -124 29.5t-34 76.5q0 34 25 69t60 60q-69 18 -69 51q0 19 18.5 43t45.5 45q-64 38 -64 154q0 88 46 134t118 46q22 0 47 -6h122q5 -7 5 -20q0 -19 -21 -19q-20 0 -62 6q30 -16 46.5 -48.5
t16.5 -80.5q0 -83 -40 -135.5t-122 -52.5q-34 0 -61 8q-19 -15 -33.5 -32.5t-14.5 -30.5q0 -25 155 -43q64 -9 99 -31.5zM132 436.5q-33 -36.5 -33 -106.5q0 -65 23 -101.5t90 -36.5q56 0 85 45t29 112q0 62 -29 93t-82 31q-50 0 -83 -36.5zM277 -141q33 14 50 36.5t17 47.5
q0 40 -28 55t-85 20q-47 6 -71 10q-31 -21 -54.5 -53t-23.5 -60q0 -33 24.5 -51.5t91.5 -18.5q46 0 79 14zM148 595.5q-27 20.5 -42 47t-15 42.5q0 10 7 15.5t21 8.5q32 -91 91 -91q34 0 52 21.5t33 58.5q4 8 12 8t15.5 -6.5t8.5 -15.5q-14 -45 -43.5 -77t-78.5 -32
q-34 0 -61 20.5z" />
    <glyph glyph-name="Gcommaaccent" unicode="&#x122;" horiz-adv-x="404" 
d="M126 17.5q-40 27.5 -62.5 104.5t-22.5 220q0 146 25.5 226.5t70.5 111t113 30.5q44 0 74 -13t30 -30q0 -16 -7 -30q-36 29 -89 29q-56 0 -93 -27.5t-57 -98t-20 -196.5q0 -131 18 -199t48 -89.5t76 -21.5q35 0 59 14.5t31 28.5v277h-107v27q0 13 14 13h136v-343
q-47 -61 -135 -61q-62 0 -102 27.5zM182 -241.5q-6 4.5 -7 11.5q16 27 22.5 50t7.5 48q-18 10 -18 36q0 16 9.5 26.5t25.5 10.5q18 0 26.5 -10t8.5 -34q0 -28 -12 -61.5t-27.5 -57.5t-23.5 -24q-6 0 -12 4.5z" />
    <glyph glyph-name="gcommaaccent" unicode="&#x123;" horiz-adv-x="406" 
d="M178.5 568q-8.5 10 -8.5 34q0 27 12 60t27.5 57t23.5 24q6 0 12 -4.5t7 -11.5q-16 -27 -22.5 -49t-7.5 -47q18 -10 18 -36q0 -16 -9.5 -26.5t-25.5 -10.5q-18 0 -26.5 10zM354 24.5q35 -22.5 35 -76.5q0 -38 -21.5 -71.5t-65.5 -54t-107 -20.5q-90 0 -124 29.5t-34 76.5
q0 34 25 69t60 60q-69 18 -69 51q0 19 18.5 43t45.5 45q-64 38 -64 154q0 88 46 134t118 46q22 0 47 -6h122q5 -7 5 -20q0 -19 -21 -19q-20 0 -62 6q30 -16 46.5 -48.5t16.5 -80.5q0 -83 -40 -135.5t-122 -52.5q-34 0 -61 8q-19 -15 -33.5 -32.5t-14.5 -30.5q0 -25 155 -43
q64 -9 99 -31.5zM132 436.5q-33 -36.5 -33 -106.5q0 -65 23 -101.5t90 -36.5q56 0 85 45t29 112q0 62 -29 93t-82 31q-50 0 -83 -36.5zM277 -141q33 14 50 36.5t17 47.5q0 40 -28 55t-85 20q-47 6 -71 10q-31 -21 -54.5 -53t-23.5 -60q0 -33 24.5 -51.5t91.5 -18.5
q46 0 79 14z" />
    <glyph glyph-name="Itilde" unicode="&#x128;" horiz-adv-x="164" 
d="M59 676q0 13 2 17.5t10.5 5.5t33.5 1v-688q0 -6 -2.5 -8.5t-13.5 -3t-30 -0.5v676zM91 790.5q-13 8.5 -26 24.5l-8.5 8.5t-13 10t-13.5 3.5q-17 0 -29 -9.5t-22.5 -23.5t-13.5 -14q-8 0 -16.5 10.5t-8.5 12.5q23 37 46.5 51.5t52.5 14.5q16 0 26.5 -7t21.5 -20
q11 -12 20.5 -18.5t23.5 -6.5q24 0 37 10t22.5 23.5t12.5 13.5q8 0 14 -11.5t6 -14.5q-13 -25 -36 -45.5t-61 -20.5q-22 0 -35 8.5z" />
    <glyph glyph-name="itilde" unicode="&#x129;" horiz-adv-x="169" 
d="M62 477q0 16 8 19.5t37 3.5v-488q0 -7 -2 -9t-13 -2.5t-30 -0.5v477zM94 590.5q-13 8.5 -26 24.5l-8.5 8.5t-13 10t-13.5 3.5q-17 0 -29 -9.5t-22.5 -23.5t-13.5 -14q-8 0 -16.5 10.5t-8.5 12.5q23 37 46.5 51.5t52.5 14.5q16 0 26.5 -7t21.5 -20q11 -12 20.5 -18.5
t23.5 -6.5q24 0 37 10t22.5 23.5t12.5 13.5q8 0 14 -11.5t6 -14.5q-13 -25 -36 -45.5t-61 -20.5q-22 0 -35 8.5z" />
    <glyph glyph-name="Imacron" unicode="&#x12a;" horiz-adv-x="164" 
d="M59 676q0 13 2 17.5t10.5 5.5t33.5 1v-688q0 -6 -2.5 -8.5t-13.5 -3t-30 -0.5v676zM-44 832q2 22 19 22h229q3 -8 3 -21q-2 -23 -18 -23h-231q-2 8 -2 22z" />
    <glyph glyph-name="imacron" unicode="&#x12b;" horiz-adv-x="169" 
d="M62 477q0 16 8 19.5t37 3.5v-488q0 -7 -2 -9t-13 -2.5t-30 -0.5v477zM-1 632q0 10 5 16t14 6h149q3 -8 3 -21q0 -23 -18 -23h-150q-3 8 -3 22z" />
    <glyph glyph-name="Iogonek" unicode="&#x12e;" horiz-adv-x="163" 
d="M12 -175.5q-20 19.5 -20 57.5q0 66 67 127v667q0 13 2 17.5t10 5.5t33 1v-688q0 -5 -2.5 -8.5t-5.5 -5.5t-4 -3q-24 -20 -41.5 -49.5t-17.5 -60.5q0 -43 42 -43q14 0 32 8q7 -11 7 -22q1 -11 -12 -17t-34 -6q-36 0 -56 19.5z" />
    <glyph glyph-name="iogonek" unicode="&#x12f;" horiz-adv-x="169" 
d="M63 607.5q-6 9.5 -6 30.5q2 40 29 40q15 0 21 -9.5t6 -30.5q-2 -40 -30 -40q-14 0 -20 9.5zM15 -175.5q-20 19.5 -20 57.5q0 65 66 127v467q0 13 2.5 17.5t11 5.5t33.5 1v-488q0 -5 -2.5 -8.5t-5.5 -5.5t-4 -3q-24 -20 -41.5 -49.5t-17.5 -60.5q0 -43 42 -43q14 0 32 8
q7 -11 7 -22q1 -11 -12.5 -17t-34.5 -6q-36 0 -56 19.5z" />
    <glyph glyph-name="Idotaccent" unicode="&#x130;" horiz-adv-x="164" 
d="M59 676q0 13 2 17.5t10.5 5.5t33.5 1v-688q0 -6 -2.5 -8.5t-13.5 -3t-30 -0.5v676zM60 807.5q-6 9.5 -6 30.5q2 40 29 40q15 0 21 -9.5t6 -30.5q-2 -40 -30 -40q-14 0 -20 9.5z" />
    <glyph glyph-name="dotlessi" unicode="&#x131;" horiz-adv-x="169" 
d="M62 477q0 16 8 19.5t37 3.5v-488q0 -7 -2 -9t-13 -2.5t-30 -0.5v477z" />
    <glyph glyph-name="IJ" unicode="&#x132;" horiz-adv-x="462" 
d="M59 676q0 13 2 17.5t10.5 5.5t33.5 1v-688q0 -6 -2.5 -8.5t-13.5 -3t-30 -0.5v676zM209 5.5q-27 15.5 -27 34.5q0 14 10 29q33 -37 85 -37q36 0 53.5 20t22.5 51t5 81v493q0 13 2 17t10 5t33 1v-531q0 -81 -24 -130t-98 -49q-45 0 -72 15.5z" />
    <glyph glyph-name="ij" unicode="&#x133;" horiz-adv-x="350" 
d="M62 477q0 16 8 19.5t37 3.5v-488q0 -7 -2 -9t-13 -2.5t-30 -0.5v477zM63 607.5q-6 9.5 -6 30.5q2 40 29 40q15 0 21 -9.5t6 -30.5q-2 -40 -30 -40q-14 0 -20 9.5zM82 -181.5q-30 13.5 -30 30.5q0 15 8 27q43 -28 100 -28q33 0 50 13.5t22.5 40t5.5 72.5v503
q0 16 7.5 19.5t36.5 3.5v-537q0 -77 -25 -117.5t-95 -40.5q-50 0 -80 13.5zM238 607.5q-6 9.5 -6 30.5q2 40 29 40q15 0 21 -9.5t6 -30.5q-2 -40 -30 -40q-14 0 -20 9.5z" />
    <glyph glyph-name="Kcommaaccent" unicode="&#x136;" horiz-adv-x="391" 
d="M370 9q0 -10 -18 -10q-19 0 -28 1q-44 138 -83.5 212t-84.5 119q-21 21 -52 34v-353q0 -7 -2 -9t-13 -2.5t-30 -0.5v688q0 7 2 9t13 2.5t30 0.5v-303l217 301q10 2 28 2q20 0 20 -9q0 -1 -4 -9l-216 -288q66 -40 122.5 -134t97.5 -245q1 -2 1 -6zM162 -241.5
q-6 4.5 -7 11.5q16 27 22.5 50t7.5 48q-18 10 -18 36q0 16 9.5 26.5t25.5 10.5q18 0 26.5 -10t8.5 -34q0 -28 -12 -61.5t-27.5 -57.5t-23.5 -24q-6 0 -12 4.5z" />
    <glyph glyph-name="kcommaaccent" unicode="&#x137;" horiz-adv-x="394" 
d="M61 712q0 16 8 19.5t37 3.5v-292q30 31 71.5 49t76.5 18q46 0 67 -22.5t21 -65.5q0 -60 -37.5 -99.5t-75.5 -59.5q24 -1 51.5 -16.5t49.5 -47.5t30 -81q3 -22 3 -51q0 -24 -3 -53q-1 -8 -3.5 -10.5t-14.5 -3t-32 -0.5q4 31 4 63q0 51 -12 85q-15 47 -44.5 67t-62.5 20
q-13 0 -24 -3q-19 -6 -38.5 -13.5t-26.5 -10.5v-196q0 -7 -1.5 -9t-12.5 -2.5t-31 -0.5v712zM242.5 314.5q51.5 41.5 51.5 97.5t-57 56q-32 0 -66 -17.5t-65 -53.5v-152q85 28 136.5 69.5zM163 -241.5q-6 4.5 -7 11.5q16 27 22.5 50t7.5 48q-18 10 -18 36q0 16 9.5 26.5
t25.5 10.5q18 0 26.5 -10t8.5 -34q0 -28 -12 -61.5t-27.5 -57.5t-23.5 -24q-6 0 -12 4.5z" />
    <glyph glyph-name="Lacute" unicode="&#x139;" horiz-adv-x="332" 
d="M59 682q0 10 2 13t13.5 4t30.5 1v-658h209v-30q0 -7 -3 -9.5t-10 -2.5h-242v682zM83 783.5q-6 11.5 -8 15.5q38 38 86 77.5t51 39.5q8 0 14.5 -13.5t7.5 -23.5q-6 -7 -53.5 -43.5t-87.5 -63.5q-4 0 -10 11.5z" />
    <glyph glyph-name="lacute" unicode="&#x13a;" horiz-adv-x="168" 
d="M61 712q0 16 8 19.5t37 3.5v-723q0 -7 -2 -9t-13 -2.5t-30 -0.5v712zM15 818.5q-6 11.5 -8 15.5q38 38 86 77.5t51 39.5q8 0 14.5 -13.5t7.5 -23.5q-6 -7 -53.5 -43.5t-87.5 -63.5q-4 0 -10 11.5z" />
    <glyph glyph-name="Lcommaaccent" unicode="&#x13b;" horiz-adv-x="332" 
d="M59 682q0 10 2 13t13.5 4t30.5 1v-658h209v-30q0 -7 -3 -9.5t-10 -2.5h-242v682zM133 -241.5q-6 4.5 -7 11.5q16 27 22.5 50t7.5 48q-18 10 -18 36q0 16 9.5 26.5t25.5 10.5q18 0 26.5 -10t8.5 -34q0 -28 -12 -61.5t-27.5 -57.5t-23.5 -24q-6 0 -12 4.5z" />
    <glyph glyph-name="lcommaaccent" unicode="&#x13c;" horiz-adv-x="168" 
d="M61 712q0 16 8 19.5t37 3.5v-723q0 -7 -2 -9t-13 -2.5t-30 -0.5v712zM50 -241.5q-6 4.5 -7 11.5q16 27 22.5 50t7.5 48q-18 10 -18 36q0 16 9.5 26.5t25.5 10.5q18 0 26.5 -10t8.5 -34q0 -28 -12 -61.5t-27.5 -57.5t-23.5 -24q-6 0 -12 4.5z" />
    <glyph glyph-name="Lcaron" unicode="&#x13d;" horiz-adv-x="345" 
d="M59 682q0 10 2 13t13.5 4t30.5 1v-658h209v-30q0 -7 -3 -9.5t-10 -2.5h-242v682zM232 462.5q-6 4.5 -7 11.5q21 43 23 120q-18 11 -18 36q0 16 9.5 26.5t24.5 10.5q18 0 27 -9.5t9 -33.5q0 -28 -10 -67.5t-23.5 -69t-21.5 -29.5q-7 0 -13 4.5z" />
    <glyph glyph-name="lcaron" unicode="&#x13e;" horiz-adv-x="168" 
d="M61 712q0 16 8 19.5t37 3.5v-723q0 -7 -2 -9t-13 -2.5t-30 -0.5v712z" />
    <glyph glyph-name="Ldot" unicode="&#x13f;" horiz-adv-x="346" 
d="M59 682q0 10 2 13t13.5 4t30.5 1v-658h209v-30q0 -7 -3 -9.5t-10 -2.5h-242v682zM193 324q0 16 10 28t27 12q19 0 29 -11.5t10 -28.5q0 -18 -10.5 -29.5t-28.5 -11.5q-37 0 -37 41z" />
    <glyph glyph-name="ldot" unicode="&#x140;" horiz-adv-x="192" 
d="M61 712q0 16 8 19.5t37 3.5v-723q0 -7 -2 -9t-13 -2.5t-30 -0.5v712zM140 270q0 16 10 28t27 12q19 0 29 -11.5t10 -28.5q0 -18 -10.5 -29.5t-28.5 -11.5q-37 0 -37 41z" />
    <glyph glyph-name="Lslash" unicode="&#x141;" horiz-adv-x="337" 
d="M318 42v-30q0 -3 -2 -7.5t-10 -4.5h-242v336l-48 -17q-8 26 -8 33q0 8 8 11l48 17v302q0 10 2 13t13.5 4t30.5 1v-304l100 35q8 -26 8 -33q0 -8 -8 -11l-100 -35v-310h208z" />
    <glyph glyph-name="lslash" unicode="&#x142;" horiz-adv-x="173" 
d="M171 468q0 -8 -8 -11l-55 -19v-426q0 -7 -1.5 -9t-12.5 -2.5t-30 -0.5v422l-54 -19q-8 26 -8 33q0 8 8 11l54 19v246q0 16 8 19.5t36 3.5v-253l55 19q8 -27 8 -33z" />
    <glyph glyph-name="Nacute" unicode="&#x143;" horiz-adv-x="461" 
d="M359 697q2 2 13 2.5t30 0.5v-688q0 -12 -13 -12h-30l-125 283q-1 2 -84 206l-49 120l3 -351v-246q0 -7 -2 -9t-13 -2.5t-30 -0.5v688q0 12 12 12h31l122 -278q23 -58 60 -147.5t63 -152.5l12 -28q-2 144 -2 355v239q0 7 2 9zM161 783.5q-6 11.5 -8 15.5q38 38 86 77.5
t51 39.5q8 0 14.5 -13.5t7.5 -23.5q-6 -7 -53.5 -43.5t-87.5 -63.5q-4 0 -10 11.5z" />
    <glyph glyph-name="nacute" unicode="&#x144;" horiz-adv-x="408" 
d="M59 475q86 35 163 35q78 0 107 -32.5t29 -106.5v-359q0 -7 -2 -9t-13.5 -2.5t-30.5 -0.5v360q0 60 -18.5 84.5t-72.5 24.5q-27 0 -60 -6.5t-57 -18.5v-432q0 -7 -2 -9t-13 -2.5t-30 -0.5v475zM135 583.5q-6 11.5 -8 15.5q38 38 86 77.5t51 39.5q8 0 14.5 -13.5t7.5 -23.5
q-6 -7 -53.5 -43.5t-87.5 -63.5q-4 0 -10 11.5z" />
    <glyph glyph-name="Ncommaaccent" unicode="&#x145;" horiz-adv-x="461" 
d="M359 697q2 2 13 2.5t30 0.5v-688q0 -12 -13 -12h-30l-125 283q-1 2 -84 206l-49 120l3 -351v-246q0 -7 -2 -9t-13 -2.5t-30 -0.5v688q0 12 12 12h31l122 -278q23 -58 60 -147.5t63 -152.5l12 -28q-2 144 -2 355v239q0 7 2 9zM196 -241.5q-6 4.5 -7 11.5q16 27 22.5 50
t7.5 48q-18 10 -18 36q0 16 9.5 26.5t25.5 10.5q18 0 26.5 -10t8.5 -34q0 -28 -12 -61.5t-27.5 -57.5t-23.5 -24q-6 0 -12 4.5z" />
    <glyph glyph-name="ncommaaccent" unicode="&#x146;" horiz-adv-x="408" 
d="M59 475q86 35 163 35q78 0 107 -32.5t29 -106.5v-359q0 -7 -2 -9t-13.5 -2.5t-30.5 -0.5v360q0 60 -18.5 84.5t-72.5 24.5q-27 0 -60 -6.5t-57 -18.5v-432q0 -7 -2 -9t-13 -2.5t-30 -0.5v475zM170 -241.5q-6 4.5 -7 11.5q16 27 22.5 50t7.5 48q-18 10 -18 36
q0 16 9.5 26.5t25.5 10.5q18 0 26.5 -10t8.5 -34q0 -28 -12 -61.5t-27.5 -57.5t-23.5 -24q-6 0 -12 4.5z" />
    <glyph glyph-name="Ncaron" unicode="&#x147;" horiz-adv-x="461" 
d="M359 697q2 2 13 2.5t30 0.5v-688q0 -12 -13 -12h-30l-125 283q-1 2 -84 206l-49 120l3 -351v-246q0 -7 -2 -9t-13 -2.5t-30 -0.5v688q0 12 12 12h31l122 -278q23 -58 60 -147.5t63 -152.5l12 -28q-2 144 -2 355v239q0 7 2 9zM174 827q-53 52 -60 62q2 7 9.5 17.5
t14.5 10.5t46 -41.5t53 -56.5q26 32 53.5 62t35.5 39q19 -11 19 -23q0 -6 -24.5 -36.5t-51 -58t-32.5 -27.5q-10 0 -63 52z" />
    <glyph glyph-name="ncaron" unicode="&#x148;" horiz-adv-x="408" 
d="M59 475q86 35 163 35q78 0 107 -32.5t29 -106.5v-359q0 -7 -2 -9t-13.5 -2.5t-30.5 -0.5v360q0 60 -18.5 84.5t-72.5 24.5q-27 0 -60 -6.5t-57 -18.5v-432q0 -7 -2 -9t-13 -2.5t-30 -0.5v475zM148 627q-53 52 -60 62q2 7 9.5 17.5t14.5 10.5t46 -41.5t53 -56.5
q26 32 53.5 62t35.5 39q19 -11 19 -23q0 -6 -24.5 -36.5t-51 -58t-32.5 -27.5q-10 0 -63 52z" />
    <glyph glyph-name="napostrophe" unicode="&#x149;" horiz-adv-x="408" 
d="M59 475q86 35 163 35q78 0 107 -32.5t29 -106.5v-359q0 -7 -2 -9t-13.5 -2.5t-30.5 -0.5v360q0 60 -18.5 84.5t-72.5 24.5q-27 0 -60 -6.5t-57 -18.5v-432q0 -7 -2 -9t-13 -2.5t-30 -0.5v475zM73 578.5q-6 4.5 -7 11.5q21 43 23 120q-18 11 -18 36q0 16 9.5 26.5
t24.5 10.5q18 0 27 -9.5t9 -33.5q0 -28 -10 -67.5t-23.5 -69t-21.5 -29.5q-7 0 -13 4.5z" />
    <glyph glyph-name="Omacron" unicode="&#x14c;" 
d="M117.5 23.5q-39.5 33.5 -58 112.5t-18.5 219q0 190 46.5 272.5t146.5 82.5q66 0 104 -34t55.5 -110.5t17.5 -209.5q0 -134 -19.5 -214t-60.5 -116t-108 -36q-66 0 -105.5 33.5zM304.5 67.5q30.5 31.5 45 101.5t14.5 188q0 115 -13 182t-41.5 96t-76.5 29q-50 0 -81 -31.5
t-46.5 -102.5t-15.5 -190q0 -112 13.5 -178t42.5 -96t78 -30q50 0 80.5 31.5zM100 832q2 22 19 22h229q3 -8 3 -21q-2 -23 -18 -23h-231q-2 8 -2 22z" />
    <glyph glyph-name="omacron" unicode="&#x14d;" horiz-adv-x="392" 
d="M104 8.5q-33 18.5 -51 75t-18 165.5q0 261 167 261q54 0 87.5 -23t50.5 -80t17 -157q0 -131 -42.5 -195.5t-123.5 -64.5q-54 0 -87 18.5zM278.5 84q30.5 54 30.5 168q0 86 -12.5 134t-36 66t-60.5 18q-57 0 -87 -51.5t-30 -174.5q0 -86 12.5 -132.5t35.5 -64t61 -17.5
q56 0 86.5 54zM74 632q2 22 19 22h229q3 -8 3 -21q-2 -23 -18 -23h-231q-2 8 -2 22z" />
    <glyph glyph-name="Ohungarumlaut" unicode="&#x150;" 
d="M117.5 23.5q-39.5 33.5 -58 112.5t-18.5 219q0 190 46.5 272.5t146.5 82.5q66 0 104 -34t55.5 -110.5t17.5 -209.5q0 -134 -19.5 -214t-60.5 -116t-108 -36q-66 0 -105.5 33.5zM304.5 67.5q30.5 31.5 45 101.5t14.5 188q0 115 -13 182t-41.5 96t-76.5 29q-50 0 -81 -31.5
t-46.5 -102.5t-15.5 -190q0 -112 13.5 -178t42.5 -96t78 -30q50 0 80.5 31.5zM141.5 776q-8.5 9 -11.5 13q25 41 58.5 85.5t37.5 45.5q8 2 16.5 -8.5t13.5 -21.5q-5 -8 -38.5 -49.5t-63.5 -72.5q-4 -1 -12.5 8zM251 776q-8 9 -11 13q24 40 58 84.5t37 46.5q8 2 16.5 -8.5
t13.5 -21.5q-3 -6 -37 -48t-65 -74q-4 -1 -12 8z" />
    <glyph glyph-name="ohungarumlaut" unicode="&#x151;" horiz-adv-x="392" 
d="M104 8.5q-33 18.5 -51 75t-18 165.5q0 261 167 261q54 0 87.5 -23t50.5 -80t17 -157q0 -131 -42.5 -195.5t-123.5 -64.5q-54 0 -87 18.5zM278.5 84q30.5 54 30.5 168q0 86 -12.5 134t-36 66t-60.5 18q-57 0 -87 -51.5t-30 -174.5q0 -86 12.5 -132.5t35.5 -64t61 -17.5
q56 0 86.5 54zM115.5 576q-8.5 9 -11.5 13q25 41 58.5 85.5t37.5 45.5q8 2 16.5 -8.5t13.5 -21.5q-5 -8 -38.5 -49.5t-63.5 -72.5q-4 -1 -12.5 8zM225 576q-8 9 -11 13q24 40 58 84.5t37 46.5q8 2 16.5 -8.5t13.5 -21.5q-3 -6 -37 -48t-65 -74q-4 -1 -12 8z" />
    <glyph glyph-name="OE" unicode="&#x152;" horiz-adv-x="641" 
d="M404 42h206q0 -29 -1.5 -35.5t-8.5 -6.5h-236v78q-21 -46 -55.5 -67t-86.5 -21q-66 0 -105.5 33.5t-58 112.5t-18.5 218q0 190 46 273t145 83q48 0 80.5 -18.5t52.5 -58.5v55q0 3 2.5 7.5t9.5 4.5h235q0 -29 -1.5 -35.5t-8.5 -6.5h-197v-254h185q0 -28 -1.5 -35t-9.5 -7
h-174v-320zM301 66.5q29 31.5 41.5 101t12.5 189.5q0 118 -11.5 184t-38 95.5t-74.5 29.5q-74 0 -108 -75t-34 -251q0 -112 13.5 -178.5t42.5 -96.5t77 -30q50 0 79 31.5z" />
    <glyph glyph-name="oe" unicode="&#x153;" horiz-adv-x="650" 
d="M549 43q33 9 56 26q6 -13 6 -42q0 -6 -19.5 -15t-50.5 -15.5t-64 -6.5q-57 0 -93 18.5t-55 72.5q-40 -91 -133 -91q-56 0 -90 18.5t-52.5 75t-18.5 165.5q0 261 166 261q52 0 86 -22t51 -74q23 59 61 77.5t91 18.5q126 0 126 -154q0 -79 -9 -120q-58 -11 -129.5 -14.5
t-120.5 -2.5q0 -80 15 -120t40.5 -52.5t67.5 -12.5q36 0 69 9zM278.5 84q30.5 54 30.5 168q0 86 -12.5 133.5t-36 65.5t-60.5 18q-57 0 -87 -51t-30 -174q0 -86 12.5 -132.5t35.5 -64t61 -17.5q56 0 86.5 54zM426.5 456q-26.5 -13 -46 -59.5t-22.5 -138.5h32q119 0 178 14
q4 33 4 73q-2 65 -19.5 94.5t-64.5 29.5q-35 0 -61.5 -13z" />
    <glyph glyph-name="Racute" unicode="&#x154;" horiz-adv-x="380" 
d="M319.5 379.5q-28.5 -49.5 -80.5 -68.5q32 -44 63.5 -118.5t41.5 -178.5q0 -9 -4 -11.5t-18 -3.5l-25 1q-14 120 -44.5 194t-58.5 108q-7 -1 -22 -1h-68v-289q0 -7 -2 -9t-13 -2.5t-30 -0.5v688q0 3 2.5 7.5t9.5 4.5h106q90 0 130.5 -50t40.5 -138q0 -83 -28.5 -132.5z
M174 343q63 0 94.5 44t31.5 127q0 67 -27.5 106t-93.5 39h-75v-316h70zM102 783.5q-6 11.5 -8 15.5q38 38 86 77.5t51 39.5q8 0 14.5 -13.5t7.5 -23.5q-6 -7 -53.5 -43.5t-87.5 -63.5q-4 0 -10 11.5z" />
    <glyph glyph-name="racute" unicode="&#x155;" horiz-adv-x="280" 
d="M59 466q62 44 133 44q35 0 54 -9t19 -23q0 -7 -2 -15t-5 -13q-27 16 -60 16q-55 0 -94 -30v-424q0 -6 -2.5 -8.5t-13.5 -3t-29 -0.5v466zM90 583.5q-6 11.5 -8 15.5q38 38 86 77.5t51 39.5q8 0 14.5 -13.5t7.5 -23.5q-6 -7 -53.5 -43.5t-87.5 -63.5q-4 0 -10 11.5z" />
    <glyph glyph-name="Rcommaaccent" unicode="&#x156;" horiz-adv-x="380" 
d="M319.5 379.5q-28.5 -49.5 -80.5 -68.5q32 -44 63.5 -118.5t41.5 -178.5q0 -9 -4 -11.5t-18 -3.5l-25 1q-14 120 -44.5 194t-58.5 108q-7 -1 -22 -1h-68v-289q0 -7 -2 -9t-13 -2.5t-30 -0.5v688q0 3 2.5 7.5t9.5 4.5h106q90 0 130.5 -50t40.5 -138q0 -83 -28.5 -132.5z
M174 343q63 0 94.5 44t31.5 127q0 67 -27.5 106t-93.5 39h-75v-316h70zM157 -241.5q-6 4.5 -7 11.5q16 27 22.5 50t7.5 48q-18 10 -18 36q0 16 9.5 26.5t25.5 10.5q18 0 26.5 -10t8.5 -34q0 -28 -12 -61.5t-27.5 -57.5t-23.5 -24q-6 0 -12 4.5z" />
    <glyph glyph-name="rcommaaccent" unicode="&#x157;" horiz-adv-x="280" 
d="M59 466q62 44 133 44q35 0 54 -9t19 -23q0 -7 -2 -15t-5 -13q-27 16 -60 16q-55 0 -94 -30v-424q0 -6 -2.5 -8.5t-13.5 -3t-29 -0.5v466zM50 -241.5q-6 4.5 -7 11.5q16 27 22.5 50t7.5 48q-18 10 -18 36q0 16 9.5 26.5t25.5 10.5q18 0 26.5 -10t8.5 -34q0 -28 -12 -61.5
t-27.5 -57.5t-23.5 -24q-6 0 -12 4.5z" />
    <glyph glyph-name="Rcaron" unicode="&#x158;" horiz-adv-x="380" 
d="M319.5 379.5q-28.5 -49.5 -80.5 -68.5q32 -44 63.5 -118.5t41.5 -178.5q0 -9 -4 -11.5t-18 -3.5l-25 1q-14 120 -44.5 194t-58.5 108q-7 -1 -22 -1h-68v-289q0 -7 -2 -9t-13 -2.5t-30 -0.5v688q0 3 2.5 7.5t9.5 4.5h106q90 0 130.5 -50t40.5 -138q0 -83 -28.5 -132.5z
M174 343q63 0 94.5 44t31.5 127q0 67 -27.5 106t-93.5 39h-75v-316h70zM115 827q-53 52 -60 62q2 7 9.5 17.5t14.5 10.5t46 -41.5t53 -56.5q26 32 53.5 62t35.5 39q19 -11 19 -23q0 -6 -24.5 -36.5t-51 -58t-32.5 -27.5q-10 0 -63 52z" />
    <glyph glyph-name="rcaron" unicode="&#x159;" horiz-adv-x="280" 
d="M59 466q62 44 133 44q35 0 54 -9t19 -23q0 -7 -2 -15t-5 -13q-27 16 -60 16q-55 0 -94 -30v-424q0 -6 -2.5 -8.5t-13.5 -3t-29 -0.5v466zM103 627q-53 52 -60 62q2 7 9.5 17.5t14.5 10.5t46 -41.5t53 -56.5q26 32 53.5 62t35.5 39q19 -11 19 -23q0 -6 -24.5 -36.5
t-51 -58t-32.5 -27.5q-10 0 -63 52z" />
    <glyph glyph-name="Sacute" unicode="&#x15a;" horiz-adv-x="374" 
d="M95 -1.5q-30 8.5 -44.5 20t-14.5 22.5q0 8 4 16.5t11 14.5q41 -37 115 -37q65 0 96.5 35t31.5 96q0 45 -16 80.5t-58 78.5l-111 112q-36 39 -53 71.5t-17 69.5q0 59 44 95.5t121 36.5q61 0 93 -13t32 -29q0 -15 -13 -28q-14 11 -43.5 20t-67.5 9q-54 0 -86.5 -24.5
t-32.5 -65.5q0 -30 14.5 -55t43.5 -56l123 -123q42 -45 58 -84t16 -91q0 -82 -42.5 -131t-130.5 -49q-43 0 -73 8.5zM118 783.5q-6 11.5 -8 15.5q38 38 86 77.5t51 39.5q8 0 14.5 -13.5t7.5 -23.5q-6 -7 -53.5 -43.5t-87.5 -63.5q-4 0 -10 11.5z" />
    <glyph glyph-name="sacute" unicode="&#x15b;" horiz-adv-x="377" 
d="M78 2q-35 12 -35 29t10 28q23 -14 49.5 -20.5t64.5 -6.5q55 0 86 21t31 63q0 31 -14.5 56t-46.5 48l-109 73q-41 27 -54.5 50.5t-13.5 54.5q0 52 44 82t117 30q42 0 71.5 -8.5t43.5 -19.5t14 -20q0 -11 -12 -26q-27 17 -53.5 25t-59.5 8q-51 0 -83.5 -18.5t-32.5 -51.5
q0 -21 11 -37.5t42 -37.5l114 -76q37 -29 54 -58.5t17 -66.5q0 -65 -43 -99t-120 -34q-57 0 -92 12zM120 583.5q-6 11.5 -8 15.5q38 38 86 77.5t51 39.5q8 0 14.5 -13.5t7.5 -23.5q-6 -7 -53.5 -43.5t-87.5 -63.5q-4 0 -10 11.5z" />
    <glyph glyph-name="Scedilla" unicode="&#x15e;" horiz-adv-x="374" 
d="M306.5 48.5q-34.5 -47.5 -106.5 -56.5l-12 -52q1 0 5 0.5t14 0.5q20 0 34 -13.5t14 -41.5q0 -38 -20.5 -56t-48.5 -18q-17 0 -32.5 3.5t-19.5 5.5q0 4 3 14.5t7 14.5q2 3 7 2t16 -5t20 -4q35 0 35 36q0 21 -9 28t-25 7q-12 0 -23.5 -2t-14.5 -3l16 81q-42 0 -71.5 8.5
t-44 20t-14.5 22.5q0 8 4 16.5t11 14.5q41 -37 115 -37q65 0 96.5 35t31.5 96q0 45 -16 80.5t-58 78.5l-111 112q-36 39 -53 71.5t-17 69.5q0 59 44 95.5t121 36.5q61 0 93 -13t32 -29q0 -15 -13 -28q-14 11 -43.5 20t-67.5 9q-54 0 -86.5 -24.5t-32.5 -65.5q0 -30 14.5 -55
t43.5 -56l123 -123q42 -45 58 -84t16 -91q0 -74 -34.5 -121.5z" />
    <glyph glyph-name="scedilla" unicode="&#x15f;" horiz-adv-x="377" 
d="M316 189.5q17 -29.5 17 -66.5q0 -58 -34.5 -91.5t-97.5 -39.5l-11 -52q1 0 5 0.5t14 0.5q20 0 34 -13.5t14 -41.5q0 -38 -20.5 -56t-48.5 -18q-18 0 -33 3.5t-19 5.5q0 4 3 14.5t7 14.5q2 3 7 2t16 -5t20 -4q35 0 35 36q0 21 -9 28t-25 7q-13 0 -24 -2t-14 -3l16 81
q-57 0 -91 12t-34 29t10 28q23 -14 49.5 -20.5t64.5 -6.5q55 0 86 21t31 63q0 31 -14.5 56t-46.5 48l-109 73q-41 27 -54.5 50.5t-13.5 54.5q0 52 44 82t117 30q42 0 71.5 -8.5t43.5 -19.5t14 -20q0 -11 -12 -26q-27 17 -53.5 25t-59.5 8q-51 0 -83.5 -18.5t-32.5 -51.5
q0 -21 11 -37.5t42 -37.5l114 -76q37 -29 54 -58.5z" />
    <glyph glyph-name="Scaron" unicode="&#x160;" horiz-adv-x="374" 
d="M95 -1.5q-30 8.5 -44.5 20t-14.5 22.5q0 8 4 16.5t11 14.5q41 -37 115 -37q65 0 96.5 35t31.5 96q0 45 -16 80.5t-58 78.5l-111 112q-36 39 -53 71.5t-17 69.5q0 59 44 95.5t121 36.5q61 0 93 -13t32 -29q0 -15 -13 -28q-14 11 -43.5 20t-67.5 9q-54 0 -86.5 -24.5
t-32.5 -65.5q0 -30 14.5 -55t43.5 -56l123 -123q42 -45 58 -84t16 -91q0 -82 -42.5 -131t-130.5 -49q-43 0 -73 8.5zM131 827q-53 52 -60 62q2 7 9.5 17.5t14.5 10.5t46 -41.5t53 -56.5q26 32 53.5 62t35.5 39q19 -11 19 -23q0 -6 -24.5 -36.5t-51 -58t-32.5 -27.5
q-10 0 -63 52z" />
    <glyph glyph-name="scaron" unicode="&#x161;" horiz-adv-x="377" 
d="M78 2q-35 12 -35 29t10 28q23 -14 49.5 -20.5t64.5 -6.5q55 0 86 21t31 63q0 31 -14.5 56t-46.5 48l-109 73q-41 27 -54.5 50.5t-13.5 54.5q0 52 44 82t117 30q42 0 71.5 -8.5t43.5 -19.5t14 -20q0 -11 -12 -26q-27 17 -53.5 25t-59.5 8q-51 0 -83.5 -18.5t-32.5 -51.5
q0 -21 11 -37.5t42 -37.5l114 -76q37 -29 54 -58.5t17 -66.5q0 -65 -43 -99t-120 -34q-57 0 -92 12zM133 627q-53 52 -60 62q2 7 9.5 17.5t14.5 10.5t46 -41.5t53 -56.5q26 32 53.5 62t35.5 39q19 -11 19 -23q0 -6 -24.5 -36.5t-51 -58t-32.5 -27.5q-10 0 -63 52z" />
    <glyph glyph-name="uni0162" unicode="&#x162;" horiz-adv-x="365" 
d="M359 700v-31q0 -12 -13 -12h-143v-645q0 -6 -1 -8t-7 -3l-14 -61q1 0 5 0.5t14 0.5q20 0 34 -13.5t14 -41.5q0 -38 -20.5 -56t-48.5 -18q-17 0 -32.5 3.5t-19.5 5.5q0 4 3 14.5t7 14.5q2 3 7 2t16 -5t20 -4q35 0 35 36q0 21 -9 28t-25 7q-12 0 -23.5 -2t-14.5 -3l18 91
h-3v657h-152v31q0 12 13 12h340z" />
    <glyph glyph-name="uni0163" unicode="&#x163;" horiz-adv-x="300" 
d="M152 459v-313q0 -41 2.5 -64t13.5 -37t34 -14q20 0 33.5 4t32.5 13q4 -11 4 -25q0 -16 -22.5 -24.5t-54.5 -8.5l-11 -50q1 0 5 0.5t14 0.5q20 0 34 -13.5t14 -41.5q0 -38 -20.5 -56t-48.5 -18q-17 0 -32.5 3.5t-19.5 5.5q0 4 3 14.5t7 14.5q2 3 7 2t16 -5t20 -4
q35 0 35 36q0 21 -9 28t-25 7q-12 0 -23.5 -2t-14.5 -3l17 85q-36 10 -46 46.5t-10 107.5v311h-77q0 27 2 34t9 7h66v160q0 14 7.5 17t37.5 3v-180h127q0 -28 -1.5 -34.5t-8.5 -6.5h-117z" />
    <glyph glyph-name="Tcaron" unicode="&#x164;" horiz-adv-x="365" 
d="M359 700v-31q0 -12 -13 -12h-143v-645q0 -7 -2 -9t-13 -2.5t-30 -0.5v657h-152v31q0 12 13 12h340zM126 827q-53 52 -60 62q2 7 9.5 17.5t14.5 10.5t46 -41.5t53 -56.5q26 32 53.5 62t35.5 39q19 -11 19 -23q0 -6 -24.5 -36.5t-51 -58t-32.5 -27.5q-10 0 -63 52z" />
    <glyph glyph-name="tcaron" unicode="&#x165;" horiz-adv-x="312" 
d="M135.5 9.5q-18.5 19.5 -23.5 51.5t-5 87v311h-77q0 27 2 34t9 7h66v160q0 14 7.5 17t37.5 3v-180h127q0 -28 -1.5 -34.5t-8.5 -6.5h-117v-313q0 -41 2.5 -64t13.5 -37t34 -14q20 0 33.5 4t32.5 13q4 -11 4 -25q0 -16 -23.5 -24.5t-55.5 -8.5q-39 0 -57.5 19.5zM241 538.5
q-6 4.5 -7 11.5q21 43 23 120q-18 11 -18 36q0 16 9.5 26.5t24.5 10.5q18 0 27 -9.5t9 -33.5q0 -28 -10 -67.5t-23.5 -69t-21.5 -29.5q-7 0 -13 4.5z" />
    <glyph glyph-name="Utilde" unicode="&#x168;" horiz-adv-x="467" 
d="M123 20q-40 30 -52 78.5t-12 120.5v468q0 7 2 9.5t13.5 3t30.5 0.5v-482q0 -59 9 -98t38.5 -63t87.5 -24q35 0 70 7t53 16v632q0 6 2.5 8.5t13.5 3t29 0.5v-676q-22 -14 -69 -24t-99 -10q-77 0 -117 30zM243 790.5q-13 8.5 -26 24.5l-8.5 8.5t-13 10t-13.5 3.5
q-17 0 -29 -9.5t-22.5 -23.5t-13.5 -14q-8 0 -16.5 10.5t-8.5 12.5q23 37 46.5 51.5t52.5 14.5q16 0 26.5 -7t21.5 -20q11 -12 20.5 -18.5t23.5 -6.5q24 0 37 10t22.5 23.5t12.5 13.5q8 0 14 -11.5t6 -14.5q-13 -25 -36 -45.5t-61 -20.5q-22 0 -35 8.5z" />
    <glyph glyph-name="utilde" unicode="&#x169;" horiz-adv-x="424" 
d="M120 8q-32 18 -44.5 57.5t-12.5 108.5v314q0 7 2 9t13 2.5t30 0.5v-333q0 -54 9 -82.5t31.5 -41t66.5 -12.5q23 0 51.5 5.5t50.5 18.5v433q0 6 2.5 8.5t13.5 3t29 0.5v-476q-33 -17 -73.5 -25.5t-78.5 -8.5q-58 0 -90 18zM222 590.5q-13 8.5 -26 24.5l-8.5 8.5t-13 10
t-13.5 3.5q-17 0 -29 -9.5t-22.5 -23.5t-13.5 -14q-8 0 -16.5 10.5t-8.5 12.5q23 37 46.5 51.5t52.5 14.5q16 0 26.5 -7t21.5 -20q11 -12 20.5 -18.5t23.5 -6.5q24 0 37 10t22.5 23.5t12.5 13.5q8 0 14 -11.5t6 -14.5q-13 -25 -36 -45.5t-61 -20.5q-22 0 -35 8.5z" />
    <glyph glyph-name="Umacron" unicode="&#x16a;" horiz-adv-x="467" 
d="M123 20q-40 30 -52 78.5t-12 120.5v468q0 7 2 9.5t13.5 3t30.5 0.5v-482q0 -59 9 -98t38.5 -63t87.5 -24q35 0 70 7t53 16v632q0 6 2.5 8.5t13.5 3t29 0.5v-676q-22 -14 -69 -24t-99 -10q-77 0 -117 30zM108 832q2 22 19 22h229q3 -8 3 -21q-2 -23 -18 -23h-231
q-2 8 -2 22z" />
    <glyph glyph-name="umacron" unicode="&#x16b;" horiz-adv-x="424" 
d="M120 8q-32 18 -44.5 57.5t-12.5 108.5v314q0 7 2 9t13 2.5t30 0.5v-333q0 -54 9 -82.5t31.5 -41t66.5 -12.5q23 0 51.5 5.5t50.5 18.5v433q0 6 2.5 8.5t13.5 3t29 0.5v-476q-33 -17 -73.5 -25.5t-78.5 -8.5q-58 0 -90 18zM87 632q2 22 19 22h229q3 -8 3 -21
q-2 -23 -18 -23h-231q-2 8 -2 22z" />
    <glyph glyph-name="Uring" unicode="&#x16e;" horiz-adv-x="467" 
d="M123 20q-40 30 -52 78.5t-12 120.5v468q0 7 2 9.5t13.5 3t30.5 0.5v-482q0 -59 9 -98t38.5 -63t87.5 -24q35 0 70 7t53 16v632q0 6 2.5 8.5t13.5 3t29 0.5v-676q-22 -14 -69 -24t-99 -10q-77 0 -117 30zM168 778.5q-22 20.5 -22 67.5q0 45 24.5 67t67.5 22t63 -20t20 -69
q0 -43 -23.5 -65.5t-66.5 -22.5q-41 0 -63 20.5zM285 847q0 28 -11.5 40t-35.5 12q-28 0 -41.5 -12.5t-13.5 -42.5q0 -24 12 -37.5t36 -13.5q54 0 54 54z" />
    <glyph glyph-name="uring" unicode="&#x16f;" horiz-adv-x="424" 
d="M120 8q-32 18 -44.5 57.5t-12.5 108.5v314q0 7 2 9t13 2.5t30 0.5v-333q0 -54 9 -82.5t31.5 -41t66.5 -12.5q23 0 51.5 5.5t50.5 18.5v433q0 6 2.5 8.5t13.5 3t29 0.5v-476q-33 -17 -73.5 -25.5t-78.5 -8.5q-58 0 -90 18zM147 578.5q-22 20.5 -22 67.5q0 45 24.5 67
t67.5 22t63 -20t20 -69q0 -43 -23.5 -65.5t-66.5 -22.5q-41 0 -63 20.5zM264 647q0 28 -11.5 40t-35.5 12q-28 0 -41.5 -12.5t-13.5 -42.5q0 -24 12 -37.5t36 -13.5q54 0 54 54z" />
    <glyph glyph-name="Uhungarumlaut" unicode="&#x170;" horiz-adv-x="467" 
d="M123 20q-40 30 -52 78.5t-12 120.5v468q0 7 2 9.5t13.5 3t30.5 0.5v-482q0 -59 9 -98t38.5 -63t87.5 -24q35 0 70 7t53 16v632q0 6 2.5 8.5t13.5 3t29 0.5v-676q-22 -14 -69 -24t-99 -10q-77 0 -117 30zM149.5 776q-8.5 9 -11.5 13q25 41 58.5 85.5t37.5 45.5
q8 2 16.5 -8.5t13.5 -21.5q-5 -8 -38.5 -49.5t-63.5 -72.5q-4 -1 -12.5 8zM259 776q-8 9 -11 13q24 40 58 84.5t37 46.5q8 2 16.5 -8.5t13.5 -21.5q-3 -6 -37 -48t-65 -74q-4 -1 -12 8z" />
    <glyph glyph-name="uhungarumlaut" unicode="&#x171;" horiz-adv-x="424" 
d="M120 8q-32 18 -44.5 57.5t-12.5 108.5v314q0 7 2 9t13 2.5t30 0.5v-333q0 -54 9 -82.5t31.5 -41t66.5 -12.5q23 0 51.5 5.5t50.5 18.5v433q0 6 2.5 8.5t13.5 3t29 0.5v-476q-33 -17 -73.5 -25.5t-78.5 -8.5q-58 0 -90 18zM128.5 576q-8.5 9 -11.5 13q25 41 58.5 85.5
t37.5 45.5q8 2 16.5 -8.5t13.5 -21.5q-5 -8 -38.5 -49.5t-63.5 -72.5q-4 -1 -12.5 8zM238 576q-8 9 -11 13q24 40 58 84.5t37 46.5q8 2 16.5 -8.5t13.5 -21.5q-3 -6 -37 -48t-65 -74q-4 -1 -12 8z" />
    <glyph glyph-name="Uogonek" unicode="&#x172;" horiz-adv-x="467" 
d="M300.5 -175q-19.5 20 -19.5 60q0 26 15.5 58t37.5 57q-45 -10 -94 -10q-77 0 -117 30t-52 78.5t-12 120.5v468q0 7 2 9.5t13.5 3t30.5 0.5v-482q0 -59 9 -98t38.5 -63t87.5 -24q34 0 69.5 7t53.5 15v633q0 6 2.5 8.5t13.5 3t29 0.5v-676q-33 -22 -59 -62.5t-26 -72.5
q0 -48 41 -48q16 0 32 9q8 -14 8 -22q0 -11 -13.5 -17t-35.5 -6q-35 0 -54.5 20z" />
    <glyph glyph-name="uogonek" unicode="&#x173;" horiz-adv-x="424" 
d="M258 -175.5q-20 19.5 -20 58.5q0 31 13 59t35 57q-36 -9 -77 -9q-58 0 -89.5 18t-44 57.5t-12.5 108.5v314q0 7 2 9t13 2.5t30 0.5v-333q0 -52 9 -81t30.5 -42t62.5 -13q65 0 107 24v433q0 6 2.5 8.5t13.5 3t29 0.5v-476q-33 -20 -57.5 -58.5t-24.5 -77.5q0 -23 10 -34.5
t32 -11.5q16 0 32 8q5 -8 5 -15q1 -4 1 -11q-4 -19 -46 -19q-36 0 -56 19.5z" />
    <glyph glyph-name="Wcircumflex" unicode="&#x174;" horiz-adv-x="638" 
d="M635 700l-145 -707q-5 0 -13.5 -1.5t-19.5 -1.5q-15 0 -25 49l-85 362q-6 28 -12 66.5t-11 70.5l-6 40q-16 -111 -27 -175l-87 -410q-18 -2 -36 -2q-14 0 -25 61l-137 630l-1 8q0 10 10 10h35l100 -459q12 -61 23 -133l8 -50h3q8 87 28 183l82 404q3 10 5 13.5t9 3.5h33
l93 -421q10 -44 15.5 -81t7.5 -48q2 -14 8 -52h3q1 9 5 34q14 103 22 147l90 441q2 10 4.5 14t9.5 4h36zM357.5 821q-32.5 35 -35.5 41q-12 -14 -47.5 -51t-42.5 -37q-18 0 -32 17l111 110q6 2 12 2q10 0 18 -8q15 -15 55.5 -57t40.5 -46q0 -5 -11.5 -12t-23.5 -7
q-12 13 -44.5 48z" />
    <glyph glyph-name="wcircumflex" unicode="&#x175;" horiz-adv-x="557" 
d="M487.5 496.5q2.5 2.5 13.5 3t30 0.5q-18 -79 -67 -293t-50 -214l-27 -1q-4 0 -12 15.5t-14 39.5l-17 69q-35 142 -57 255l-8 35q-25 -139 -61 -290l-29 -123l-33 -1q-9 0 -21 49q-29 123 -62 258.5t-46 187.5q-2 7 0.5 9.5t14.5 3t31 0.5l44 -190q18 -81 32.5 -155
t18.5 -95h3q2 11 35 166l14 64l36 180q1 7 4.5 9.5t11.5 2.5h29l44 -195q18 -71 33 -139t19 -88h3q5 37 18 109.5t28 140.5l38 177q1 7 3.5 9.5zM317.5 621q-32.5 35 -35.5 41q-12 -14 -47.5 -51t-42.5 -37q-18 0 -32 17l111 110q6 2 12 2q10 0 18 -8q15 -15 55.5 -57
t40.5 -46q0 -5 -11.5 -12t-23.5 -7q-12 13 -44.5 48z" />
    <glyph glyph-name="Ycircumflex" unicode="&#x176;" horiz-adv-x="360" 
d="M204 12q0 -7 -2 -9t-13 -2.5t-30 -0.5v287l-153 405q-2 4 0.5 5.5t15 2t34.5 0.5l52 -145q21 -56 47.5 -137.5t27.5 -90.5q1 7 25.5 83t48.5 145l48 136q2 5 4.5 6.5t14.5 2t31 0.5l-151 -413v-275zM218.5 821q-32.5 35 -35.5 41q-12 -14 -47.5 -51t-42.5 -37
q-18 0 -32 17l111 110q6 2 12 2q10 0 18 -8q15 -15 55.5 -57t40.5 -46q0 -5 -11.5 -12t-23.5 -7q-12 13 -44.5 48z" />
    <glyph glyph-name="ycircumflex" unicode="&#x177;" horiz-adv-x="375" 
d="M22 -186q-18 7 -18 19q0 7 2.5 15t6.5 13q11 -6 28 -9.5t31 -3.5q67 0 99 136l-134 502q-2 8 -0.5 10.5t13 3t30.5 0.5l83 -315q11 -44 19.5 -90t10.5 -59q2 13 9.5 58.5t18.5 91.5l74 299q2 8 4.5 11t14 3.5t31.5 0.5l-136 -532q-23 -88 -55 -124.5t-81 -36.5
q-33 0 -51 7zM226.5 621q-32.5 35 -35.5 41q-12 -14 -47.5 -51t-42.5 -37q-18 0 -32 17l111 110q6 2 12 2q10 0 18 -8q15 -15 55.5 -57t40.5 -46q0 -5 -11.5 -12t-23.5 -7q-12 13 -44.5 48z" />
    <glyph glyph-name="Ydieresis" unicode="&#x178;" horiz-adv-x="360" 
d="M204 12q0 -7 -2 -9t-13 -2.5t-30 -0.5v287l-153 405q-2 4 0.5 5.5t15 2t34.5 0.5l52 -145q21 -56 47.5 -137.5t27.5 -90.5q1 7 25.5 83t48.5 145l48 136q2 5 4.5 6.5t14.5 2t31 0.5l-151 -413v-275zM100 838q0 39 28 39q14 0 20 -9.5t5 -29.5q0 -39 -28 -39q-26 0 -25 39
zM212.5 808.5q-6.5 9.5 -6.5 29.5q2 39 29 39q14 0 20 -9.5t5 -29.5q0 -39 -28 -39q-13 0 -19.5 9.5z" />
    <glyph glyph-name="Zacute" unicode="&#x179;" horiz-adv-x="396" 
d="M27 19q0 10 5 23l279 616h-221q-37 0 -41 -1v30q0 13 13 13h298q5 -8 5 -17q0 -8 -5 -23l-282 -618h237q38 0 50 4v-34q0 -12 -12 -12h-317q-9 5 -9 19zM129 783.5q-6 11.5 -8 15.5q38 38 86 77.5t51 39.5q8 0 14.5 -13.5t7.5 -23.5q-6 -7 -53.5 -43.5t-87.5 -63.5
q-4 0 -10 11.5z" />
    <glyph glyph-name="zacute" unicode="&#x17a;" horiz-adv-x="375" 
d="M36 7.5q-3 6.5 -3 15.5q0 11 4 19l251 418h-128q-78 0 -121 -5q-1 11 -1 23q0 22 15 22h283q1 -1 3.5 -5t2.5 -10q0 -13 -6 -25l-250 -417h127q86 0 126 7q1 -5 1 -22q0 -16 -3.5 -22t-14.5 -6h-282q-1 1 -4 7.5zM118 583.5q-6 11.5 -8 15.5q38 38 86 77.5t51 39.5
q8 0 14.5 -13.5t7.5 -23.5q-6 -7 -53.5 -43.5t-87.5 -63.5q-4 0 -10 11.5z" />
    <glyph glyph-name="Zdotaccent" unicode="&#x17b;" horiz-adv-x="396" 
d="M27 19q0 10 5 23l279 616h-221q-37 0 -41 -1v30q0 13 13 13h298q5 -8 5 -17q0 -8 -5 -23l-282 -618h237q38 0 50 4v-34q0 -12 -12 -12h-317q-9 5 -9 19zM176 807.5q-6 9.5 -6 30.5q2 40 29 40q15 0 21 -9.5t6 -30.5q-2 -40 -30 -40q-14 0 -20 9.5z" />
    <glyph glyph-name="zdotaccent" unicode="&#x17c;" horiz-adv-x="375" 
d="M36 7.5q-3 6.5 -3 15.5q0 11 4 19l251 418h-128q-78 0 -121 -5q-1 11 -1 23q0 22 15 22h283q1 -1 3.5 -5t2.5 -10q0 -13 -6 -25l-250 -417h127q86 0 126 7q1 -5 1 -22q0 -16 -3.5 -22t-14.5 -6h-282q-1 1 -4 7.5zM165 607.5q-6 9.5 -6 30.5q2 40 29 40q15 0 21 -9.5
t6 -30.5q-2 -40 -30 -40q-14 0 -20 9.5z" />
    <glyph glyph-name="Zcaron" unicode="&#x17d;" horiz-adv-x="396" 
d="M27 19q0 10 5 23l279 616h-221q-37 0 -41 -1v30q0 13 13 13h298q5 -8 5 -17q0 -8 -5 -23l-282 -618h237q38 0 50 4v-34q0 -12 -12 -12h-317q-9 5 -9 19zM142 827q-53 52 -60 62q2 7 9.5 17.5t14.5 10.5t46 -41.5t53 -56.5q26 32 53.5 62t35.5 39q19 -11 19 -23
q0 -6 -24.5 -36.5t-51 -58t-32.5 -27.5q-10 0 -63 52z" />
    <glyph glyph-name="zcaron" unicode="&#x17e;" horiz-adv-x="375" 
d="M36 7.5q-3 6.5 -3 15.5q0 11 4 19l251 418h-128q-78 0 -121 -5q-1 11 -1 23q0 22 15 22h283q1 -1 3.5 -5t2.5 -10q0 -13 -6 -25l-250 -417h127q86 0 126 7q1 -5 1 -22q0 -16 -3.5 -22t-14.5 -6h-282q-1 1 -4 7.5zM131 627q-53 52 -60 62q2 7 9.5 17.5t14.5 10.5t46 -41.5
t53 -56.5q26 32 53.5 62t35.5 39q19 -11 19 -23q0 -6 -24.5 -36.5t-51 -58t-32.5 -27.5q-10 0 -63 52z" />
    <glyph glyph-name="longs" unicode="&#x17f;" horiz-adv-x="173" 
d="M64.5 -4q-7.5 4 -7.5 5q1 3 4 17.5t3 35.5v533q0 82 41 116.5t121 34.5q32 0 58.5 -7t42 -16.5t15.5 -17.5t-4.5 -18.5t-7.5 -13.5q-40 32 -105 32q-61 0 -88.5 -28t-27.5 -99v-557q0 -13 -5 -17t-21 -4q-11 0 -18.5 4z" />
    <glyph glyph-name="florin" unicode="&#x192;" horiz-adv-x="480" 
d="M321.5 688q-24.5 -7 -41.5 -34.5t-17 -84.5v-69h164q0 -26 -2 -33.5t-10 -7.5h-152v-486q0 -75 -24 -112t-57 -46.5t-80 -9.5q-37 0 -60.5 8t-23.5 18q0 14 5 27q38 -12 75 -12t61.5 7t41.5 35t17 85v486h-141q0 26 2 33.5t10 7.5h129v69q0 75 24 112t57 46.5t80 9.5
q37 0 60.5 -8t23.5 -18q0 -11 -6 -27q-33 11 -75 11q-36 0 -60.5 -7z" />
    <glyph glyph-name="Ohorn" unicode="&#x1a0;" 
d="M394.5 561.5q16.5 -75.5 16.5 -205.5q0 -134 -19.5 -214t-60.5 -116t-108 -36q-66 0 -105.5 33.5t-58 112.5t-18.5 219q0 190 46.5 272.5t146.5 82.5q40 0 66 -11q32 3 44 19t12 47q0 9 16 9q9 0 16.5 -3.5t7.5 -9.5q2 -27 -11 -51.5t-44 -36.5q37 -36 53.5 -111.5z
M304.5 67.5q30.5 31.5 45 101.5t14.5 188q0 115 -13 182t-41.5 96t-76.5 29q-50 0 -81 -31.5t-46.5 -102.5t-15.5 -190q0 -112 13.5 -178t42.5 -96t78 -30q50 0 80.5 31.5z" />
    <glyph glyph-name="ohorn" unicode="&#x1a1;" horiz-adv-x="392" 
d="M347.5 509q-12.5 -24 -42.5 -36q26 -28 39 -82t13 -141q0 -131 -42.5 -195.5t-123.5 -64.5q-54 0 -87 18.5t-51 75t-18 165.5q0 261 167 261q37 0 64 -10q31 3 42 19t11 46q0 9 16 9q9 0 16.5 -3.5t7.5 -9.5q1 -28 -11.5 -52zM278.5 84q30.5 54 30.5 168q0 86 -12.5 134
t-36 66t-60.5 18q-57 0 -87 -51.5t-30 -174.5q0 -86 12.5 -132.5t35.5 -64t61 -17.5q56 0 86.5 54z" />
    <glyph glyph-name="Uhorn" unicode="&#x1af;" horiz-adv-x="467" 
d="M464 703.5q-17 -26.5 -56 -35.5v-644q-22 -14 -69 -24t-99 -10q-77 0 -117 30t-52 78.5t-12 120.5v468q0 7 2 9.5t13.5 3t30.5 0.5v-482q0 -59 9 -98t38.5 -63t87.5 -24q35 0 70 7t53 16v632q0 8 4 10t22 2q29 4 39.5 19.5t10.5 45.5q0 9 16 9q9 0 16.5 -3.5t7.5 -9.5
q2 -31 -15 -57.5z" />
    <glyph glyph-name="uhorn" unicode="&#x1b0;" horiz-adv-x="424" 
d="M425 500.5q-19 -27.5 -63 -34.5v-442q-33 -17 -73.5 -25.5t-78.5 -8.5q-58 0 -90 18t-44.5 57.5t-12.5 108.5v314q0 7 2 9t13 2.5t30 0.5v-333q0 -54 9 -82.5t31.5 -41t66.5 -12.5q23 0 51.5 5.5t50.5 18.5v433q0 8 5.5 10t29.5 2q29 4 39.5 20t10.5 45q0 9 16 9
q9 0 16.5 -3.5t7.5 -9.5q2 -33 -17 -60.5z" />
    <glyph glyph-name="Scommaaccent" unicode="&#x218;" horiz-adv-x="374" 
d="M95 -1.5q-30 8.5 -44.5 20t-14.5 22.5q0 8 4 16.5t11 14.5q41 -37 115 -37q65 0 96.5 35t31.5 96q0 45 -16 80.5t-58 78.5l-111 112q-36 39 -53 71.5t-17 69.5q0 59 44 95.5t121 36.5q61 0 93 -13t32 -29q0 -15 -13 -28q-14 11 -43.5 20t-67.5 9q-54 0 -86.5 -24.5
t-32.5 -65.5q0 -30 14.5 -55t43.5 -56l123 -123q42 -45 58 -84t16 -91q0 -82 -42.5 -131t-130.5 -49q-43 0 -73 8.5zM153 -241.5q-6 4.5 -7 11.5q16 27 22.5 50t7.5 48q-18 10 -18 36q0 16 9.5 26.5t25.5 10.5q18 0 26.5 -10t8.5 -34q0 -28 -12 -61.5t-27.5 -57.5t-23.5 -24
q-6 0 -12 4.5z" />
    <glyph glyph-name="scommaaccent" unicode="&#x219;" horiz-adv-x="377" 
d="M78 2q-35 12 -35 29t10 28q23 -14 49.5 -20.5t64.5 -6.5q55 0 86 21t31 63q0 31 -14.5 56t-46.5 48l-109 73q-41 27 -54.5 50.5t-13.5 54.5q0 52 44 82t117 30q42 0 71.5 -8.5t43.5 -19.5t14 -20q0 -11 -12 -26q-27 17 -53.5 25t-59.5 8q-51 0 -83.5 -18.5t-32.5 -51.5
q0 -21 11 -37.5t42 -37.5l114 -76q37 -29 54 -58.5t17 -66.5q0 -65 -43 -99t-120 -34q-57 0 -92 12zM155 -241.5q-6 4.5 -7 11.5q16 27 22.5 50t7.5 48q-18 10 -18 36q0 16 9.5 26.5t25.5 10.5q18 0 26.5 -10t8.5 -34q0 -28 -12 -61.5t-27.5 -57.5t-23.5 -24q-6 0 -12 4.5z
" />
    <glyph glyph-name="uni021A" unicode="&#x21a;" horiz-adv-x="365" 
d="M359 700v-31q0 -12 -13 -12h-143v-645q0 -7 -2 -9t-13 -2.5t-30 -0.5v657h-152v31q0 12 13 12h340zM146 -241.5q-6 4.5 -7 11.5q16 27 22.5 50t7.5 48q-18 10 -18 36q0 16 9.5 26.5t25.5 10.5q18 0 26.5 -10t8.5 -34q0 -28 -12 -61.5t-27.5 -57.5t-23.5 -24q-6 0 -12 4.5
z" />
    <glyph glyph-name="uni021B" unicode="&#x21b;" horiz-adv-x="300" 
d="M135.5 9.5q-18.5 19.5 -23.5 51.5t-5 87v311h-77q0 27 2 34t9 7h66v160q0 14 7.5 17t37.5 3v-180h127q0 -28 -1.5 -34.5t-8.5 -6.5h-117v-313q0 -41 2.5 -64t13.5 -37t34 -14q20 0 33.5 4t32.5 13q4 -11 4 -25q0 -16 -23.5 -24.5t-55.5 -8.5q-39 0 -57.5 19.5z
M149 -241.5q-6 4.5 -7 11.5q16 27 22.5 50t7.5 48q-18 10 -18 36q0 16 9.5 26.5t25.5 10.5q18 0 26.5 -10t8.5 -34q0 -28 -12 -61.5t-27.5 -57.5t-23.5 -24q-6 0 -12 4.5z" />
    <glyph glyph-name="uni0237" unicode="&#x237;" horiz-adv-x="181" 
d="M-87 -181.5q-30 13.5 -30 30.5q0 15 8 27q43 -28 100 -28q33 0 50 13.5t22.5 40t5.5 72.5v503q0 16 7.5 19.5t36.5 3.5v-537q0 -77 -25 -117.5t-95 -40.5q-50 0 -80 13.5z" />
    <glyph glyph-name="circumflex" unicode="&#x2c6;" horiz-adv-x="337" 
d="M207.5 621q-32.5 35 -35.5 41q-12 -14 -47.5 -51t-42.5 -37q-18 0 -32 17l111 110q6 2 12 2q10 0 18 -8q15 -15 55.5 -57t40.5 -46q0 -5 -11.5 -12t-23.5 -7q-12 13 -44.5 48z" />
    <glyph glyph-name="caron" unicode="&#x2c7;" horiz-adv-x="257" 
d="M73 627q-53 52 -60 62q2 7 9.5 17.5t14.5 10.5t46 -41.5t53 -56.5q26 32 53.5 62t35.5 39q19 -11 19 -23q0 -6 -24.5 -36.5t-51 -58t-32.5 -27.5q-10 0 -63 52z" />
    <glyph glyph-name="uni02C9" unicode="&#x2c9;" horiz-adv-x="257" 
d="M3 632q2 22 19 22h229q3 -8 3 -21q-2 -23 -18 -23h-231q-2 8 -2 22z" />
    <glyph glyph-name="dotaccent" unicode="&#x2d9;" horiz-adv-x="257" 
d="M107 607.5q-6 9.5 -6 30.5q2 40 29 40q15 0 21 -9.5t6 -30.5q-2 -40 -30 -40q-14 0 -20 9.5z" />
    <glyph glyph-name="ring" unicode="&#x2da;" horiz-adv-x="257" 
d="M63 578.5q-22 20.5 -22 67.5q0 45 24.5 67t67.5 22t63 -20t20 -69q0 -43 -23.5 -65.5t-66.5 -22.5q-41 0 -63 20.5zM180 647q0 28 -11.5 40t-35.5 12q-28 0 -41.5 -12.5t-13.5 -42.5q0 -24 12 -37.5t36 -13.5q54 0 54 54z" />
    <glyph glyph-name="ogonek" unicode="&#x2db;" horiz-adv-x="257" 
d="M87.5 -175q-19.5 20 -19.5 60q0 41 27 78.5t59 50.5q14 5 19 4q6 -1 10 -6t6 -12q-32 -16 -56 -48t-24 -63q0 -24 10 -35.5t32 -11.5q17 0 32 8q4 -6 6 -15q0 -3 0.5 -5.5t-0.5 -5.5q-3 -19 -47 -19q-35 0 -54.5 20z" />
    <glyph glyph-name="tilde" unicode="&#x2dc;" horiz-adv-x="383" 
d="M201 590.5q-13 8.5 -26 24.5l-8.5 8.5t-13 10t-13.5 3.5q-17 0 -29 -9.5t-22.5 -23.5t-13.5 -14q-8 0 -16.5 10.5t-8.5 12.5q23 37 46.5 51.5t52.5 14.5q16 0 26.5 -7t21.5 -20q11 -12 20.5 -18.5t23.5 -6.5q24 0 37 10t22.5 23.5t12.5 13.5q8 0 14 -11.5t6 -14.5
q-13 -25 -36 -45.5t-61 -20.5q-22 0 -35 8.5z" />
    <glyph glyph-name="hungarumlaut" unicode="&#x2dd;" horiz-adv-x="257" 
d="M22.5 576q-8.5 9 -11.5 13q25 41 58.5 85.5t37.5 45.5q8 2 16.5 -8.5t13.5 -21.5q-5 -8 -38.5 -49.5t-63.5 -72.5q-4 -1 -12.5 8zM132 576q-8 9 -11 13q24 40 58 84.5t37 46.5q8 2 16.5 -8.5t13.5 -21.5q-3 -6 -37 -48t-65 -74q-4 -1 -12 8z" />
    <glyph glyph-name="gravecomb" unicode="&#x300;" horiz-adv-x="0" 
d="M-153.5 632.5q-47.5 36.5 -54.5 43.5q1 10 7.5 23.5t14.5 13.5q4 0 51.5 -39.5t85.5 -77.5q-2 -4 -8 -15t-10 -11q-39 26 -86.5 62.5z" />
    <glyph glyph-name="acutecomb" unicode="&#x301;" horiz-adv-x="0" 
d="M-200 583.5q-6 11.5 -8 15.5q38 38 86 77.5t51 39.5q8 0 14.5 -13.5t7.5 -23.5q-6 -7 -53.5 -43.5t-87.5 -63.5q-4 0 -10 11.5z" />
    <glyph glyph-name="uni0302" unicode="&#x302;" horiz-adv-x="0" 
d="M-89.5 621q-32.5 35 -35.5 41q-12 -14 -47.5 -51t-42.5 -37q-18 0 -32 17l111 110q6 2 12 2q10 0 18 -8q15 -15 55.5 -57t40.5 -46q0 -5 -11.5 -12t-23.5 -7q-12 13 -44.5 48z" />
    <glyph glyph-name="tildecomb" unicode="&#x303;" horiz-adv-x="0" 
d="M-119 590.5q-13 8.5 -26 24.5l-8.5 8.5t-13 10t-13.5 3.5q-17 0 -29 -9.5t-22.5 -23.5t-13.5 -14q-8 0 -16.5 10.5t-8.5 12.5q23 37 46.5 51.5t52.5 14.5q16 0 26.5 -7t21.5 -20q11 -12 20.5 -18.5t23.5 -6.5q24 0 37 10t22.5 23.5t12.5 13.5q8 0 14 -11.5t6 -14.5
q-13 -25 -36 -45.5t-61 -20.5q-22 0 -35 8.5z" />
    <glyph glyph-name="uni0306" unicode="&#x306;" horiz-adv-x="0" 
d="M-191 595.5q-27 20.5 -42 47t-15 42.5q0 10 7 15.5t21 8.5q32 -91 91 -91q34 0 52 21.5t33 58.5q4 8 12 8t15.5 -6.5t8.5 -15.5q-14 -45 -43.5 -77t-78.5 -32q-34 0 -61 20.5z" />
    <glyph glyph-name="hookabovecomb" unicode="&#x309;" horiz-adv-x="0" 
d="M-132.5 553q-0.5 3 -0.5 7q0 10 3 15q4 7 18 19q11 8 16 15t5 22q0 42 -40 42q-22 0 -39 -12v35q0 4 11.5 9t26.5 5q41 0 61.5 -19.5t20.5 -55.5q0 -23 -10 -35.5t-21 -19.5t-14 -9q-4 -4 -5.5 -11.5t-1.5 -9.5q-2 -2 -18 -2l-12 1q0 1 -0.5 4z" />
    <glyph glyph-name="uni031B" unicode="&#x31b;" horiz-adv-x="0" 
d="M-179 499q39 0 53 16.5t14 49.5q0 9 16 9q9 0 16.5 -3.5t7.5 -9.5q2 -39 -23.5 -68t-84.5 -29z" />
    <glyph glyph-name="dotbelowcomb" unicode="&#x323;" horiz-adv-x="0" 
d="M-148 -142.5q-6 9.5 -6 29.5q2 38 28 38q14 0 20 -9t6 -29q-2 -39 -29 -39q-13 0 -19 9.5z" />
    <glyph glyph-name="uni0326" unicode="&#x326;" horiz-adv-x="0" 
d="M-124 -241.5q-6 4.5 -7 11.5q16 27 22.5 50t7.5 48q-18 10 -18 36q0 16 9.5 26.5t25.5 10.5q18 0 26.5 -10t8.5 -34q0 -28 -12 -61.5t-27.5 -57.5t-23.5 -24q-6 0 -12 4.5z" />
    <glyph glyph-name="uni0335" unicode="&#x335;" horiz-adv-x="0" 
d="M-254 362q2 22 19 22h229q3 -8 3 -21q-2 -23 -18 -23h-231q-2 8 -2 22z" />
    <glyph glyph-name="Gamma" unicode="&#x393;" horiz-adv-x="312" 
d="M59 688q0 3 3 7.5t10 4.5h222q0 -29 -1 -35t-7 -6h-182v-647q0 -3 -2 -7.5t-10 -4.5h-33v688z" />
    <glyph glyph-name="uni0394" unicode="&#x394;" horiz-adv-x="444" 
d="M196 672q7 31 34 31q14 0 22 -6l173 -697h-395zM83 43h290l-145 588h-3z" />
    <glyph glyph-name="Pi" unicode="&#x3a0;" horiz-adv-x="430" 
d="M59 688q0 6 2.5 8.5t13.5 3t29 0.5h266v-688q0 -7 -2 -9t-13 -2.5t-29 -0.5v657h-222v-645q0 -7 -2 -9t-13 -2.5t-30 -0.5v688z" />
    <glyph glyph-name="uni03A9" unicode="&#x3a9;" horiz-adv-x="470" 
d="M50 20q0 9 4.5 16t12.5 7h70q-34 48 -59.5 132.5t-25.5 198.5q0 176 47 256t146 80q64 0 102 -33t54.5 -105t16.5 -193q0 -120 -27.5 -207t-61.5 -129h87q3 -15 3 -21q0 -9 -4.5 -15.5t-12.5 -6.5h-136q42 53 74.5 151t32.5 205q0 115 -14 182t-43 96.5t-76 29.5
q-49 0 -80 -29t-46.5 -95.5t-15.5 -179.5q0 -108 30.5 -210.5t70.5 -149.5h-146q-3 18 -3 20z" />
    <glyph glyph-name="uni03BC" unicode="&#x3bc;" horiz-adv-x="428" 
d="M63 -191v676q0 10 5 14.5t17 4.5q15 0 22 -3v-372q0 -50 28 -73t77 -23q60 0 107 21v431q0 10 4.5 14.5t17.5 4.5q15 0 23 -3v-478q-33 -14 -73.5 -23.5t-78.5 -9.5q-74 0 -105 40v-208q0 -16 -25 -16q-12 0 -19 3z" />
    <glyph glyph-name="pi" unicode="&#x3c0;" horiz-adv-x="443" 
d="M405 479q0 -23 -18 -23h-44v-444q0 -15 -23 -15q-11 0 -22 3v456h-158v-444q0 -15 -23 -15q-13 0 -21 3v456h-56q-4 10 -4 19q0 11 4.5 18t12.5 7h349q3 -9 3 -21z" />
    <glyph glyph-name="uni0400" unicode="&#x400;" horiz-adv-x="344" 
d="M106 42h207q0 -29 -1.5 -35.5t-9.5 -6.5h-241v688q0 3 3 7.5t10 4.5h239q0 -29 -1 -35.5t-8 -6.5h-198v-254h185q0 -28 -1.5 -35t-8.5 -7h-175v-320zM164.5 832.5q-47.5 36.5 -54.5 43.5q1 10 7.5 23.5t14.5 13.5q4 0 51.5 -39.5t85.5 -77.5q-2 -4 -8 -15t-10 -11
q-39 26 -86.5 62.5z" />
    <glyph glyph-name="uni0401" unicode="&#x401;" horiz-adv-x="344" 
d="M106 42h207q0 -29 -1.5 -35.5t-9.5 -6.5h-241v688q0 3 3 7.5t10 4.5h239q0 -29 -1 -35.5t-8 -6.5h-198v-254h185q0 -28 -1.5 -35t-8.5 -7h-175v-320zM107 838q0 39 28 39q14 0 20 -9.5t5 -29.5q0 -39 -28 -39q-26 0 -25 39zM219.5 808.5q-6.5 9.5 -6.5 29.5q2 39 29 39
q14 0 20 -9.5t5 -29.5q0 -39 -28 -39q-13 0 -19.5 9.5z" />
    <glyph glyph-name="uni0402" unicode="&#x402;" horiz-adv-x="518" 
d="M278.5 0q-17.5 7 -19.5 20q-1 3 -1 8q0 7 3 16q23 -9 46 -9q56 0 80 59t24 167v76q0 51 -7.5 79.5t-27 41t-56.5 12.5q-25 0 -58.5 -7t-58.5 -18v-433q0 -7 -2 -9t-13 -2.5t-30 -0.5v657h-152v31q0 12 13 12h340v-31q0 -12 -13 -12h-143v-169q68 22 124 22
q49 0 76.5 -16.5t40 -52.5t13.5 -98v-84q0 -126 -30.5 -196t-104.5 -70q-26 0 -43.5 7z" />
    <glyph glyph-name="uni0403" unicode="&#x403;" horiz-adv-x="312" 
d="M59 688q0 3 3 7.5t10 4.5h222q0 -29 -1 -35t-7 -6h-182v-647q0 -3 -2 -7.5t-10 -4.5h-33v688zM142 783.5q-6 11.5 -8 15.5q38 38 86 77.5t51 39.5q8 0 14.5 -13.5t7.5 -23.5q-6 -7 -53.5 -43.5t-87.5 -63.5q-4 0 -10 11.5z" />
    <glyph glyph-name="uni0404" unicode="&#x404;" horiz-adv-x="359" 
d="M129.5 15.5q-37.5 25.5 -63 106.5t-25.5 235q0 153 26 230.5t64 100t87 22.5q33 0 57.5 -8t37.5 -20t13 -21q0 -17 -9 -28q-10 11 -33.5 22t-56.5 11q-37 0 -65.5 -18.5t-49 -82t-23.5 -186.5h186q0 -28 -1.5 -35.5t-9.5 -7.5h-175q1 -166 36.5 -231.5t96.5 -65.5
q31 0 57.5 15t44.5 35q10 -20 10 -35q0 -13 -16.5 -28t-43.5 -25.5t-56 -10.5q-51 0 -88.5 25.5z" />
    <glyph glyph-name="uni0405" unicode="&#x405;" horiz-adv-x="374" 
d="M95 -1.5q-30 8.5 -44.5 20t-14.5 22.5q0 8 4 16.5t11 14.5q41 -37 115 -37q65 0 96.5 35t31.5 96q0 45 -16 80.5t-58 78.5l-111 112q-36 39 -53 71.5t-17 69.5q0 59 44 95.5t121 36.5q61 0 93 -13t32 -29q0 -15 -13 -28q-14 11 -43.5 20t-67.5 9q-54 0 -86.5 -24.5
t-32.5 -65.5q0 -30 14.5 -55t43.5 -56l123 -123q42 -45 58 -84t16 -91q0 -82 -42.5 -131t-130.5 -49q-43 0 -73 8.5z" />
    <glyph glyph-name="uni0406" unicode="&#x406;" horiz-adv-x="164" 
d="M59 676q0 13 2 17.5t10.5 5.5t33.5 1v-688q0 -6 -2.5 -8.5t-13.5 -3t-30 -0.5v676z" />
    <glyph glyph-name="uni0407" unicode="&#x407;" horiz-adv-x="164" 
d="M59 676q0 13 2 17.5t10.5 5.5t33.5 1v-688q0 -6 -2.5 -8.5t-13.5 -3t-30 -0.5v676zM2 838q0 39 28 39q14 0 20 -9.5t5 -29.5q0 -39 -28 -39q-26 0 -25 39zM114.5 808.5q-6.5 9.5 -6.5 29.5q2 39 29 39q14 0 20 -9.5t5 -29.5q0 -39 -28 -39q-13 0 -19.5 9.5z" />
    <glyph glyph-name="uni0408" unicode="&#x408;" horiz-adv-x="298" 
d="M45 5.5q-27 15.5 -27 34.5q0 14 10 29q33 -37 85 -37q36 0 53.5 20t22.5 51t5 81v493q0 13 2 17t10 5t33 1v-531q0 -81 -24 -130t-98 -49q-45 0 -72 15.5z" />
    <glyph glyph-name="uni0409" unicode="&#x409;" horiz-adv-x="651" 
d="M0 21q0 8 1 12q43 2 67 67.5t36.5 194t28.5 390.5q1 10 7 12.5t35 2.5h200v-296h86q89 0 129.5 -43t40.5 -135q0 -105 -48 -165.5t-136 -60.5h-117v657h-154q-14 -238 -30 -377t-44.5 -211.5t-75.5 -72.5q-26 0 -26 25zM547.5 87.5q33.5 46.5 33.5 134.5q0 74 -28.5 106
t-94.5 32h-83v-318q24 -1 69 -1q70 0 103.5 46.5z" />
    <glyph glyph-name="uni040A" unicode="&#x40a;" horiz-adv-x="657" 
d="M59 688q0 7 2 9t13 2.5t30 0.5v-296h233v284q0 7 2 9t13 2.5t30 0.5v-296h86q89 0 129 -43t40 -135q0 -105 -48 -165.5t-136 -60.5h-116v360h-233v-348q0 -7 -2 -9t-13 -2.5t-30 -0.5v688zM587 222q0 74 -28.5 106t-94.5 32h-82v-317q44 -2 68 -2q137 0 137 181z" />
    <glyph glyph-name="uni040B" unicode="&#x40b;" horiz-adv-x="505" 
d="M157 657h-151v31q0 12 13 12h338v-31q0 -12 -12 -12h-143v-168q61 21 117 21q54 0 84 -15t41.5 -45t11.5 -79v-359q0 -7 -2 -9t-13.5 -2.5t-30.5 -0.5v360q0 59 -18.5 84t-72.5 25q-27 0 -60.5 -6.5t-56.5 -18.5v-432q0 -7 -2 -9t-13 -2.5t-30 -0.5v657z" />
    <glyph glyph-name="uni040C" unicode="&#x40c;" horiz-adv-x="405" 
d="M319 0l-52 210q-14 65 -42.5 99t-64.5 34h-55v-331q0 -7 -2 -9t-13.5 -2.5t-30.5 -0.5v688q0 7 2 9t13.5 2.5t30.5 0.5v-313h60q26 0 47.5 22t34.5 63l68 226q10 2 29 2q10 0 13.5 -1.5t3.5 -6.5q0 -2 -2 -10l-70 -219q-11 -34 -28.5 -58.5t-38.5 -36.5
q33 -18 56.5 -55.5t35.5 -91.5l52 -206l1 -6q0 -6 -4.5 -8t-15.5 -2q-19 0 -28 1zM146 783.5q-6 11.5 -8 15.5q38 38 86 77.5t51 39.5q8 0 14.5 -13.5t7.5 -23.5q-6 -7 -53.5 -43.5t-87.5 -63.5q-4 0 -10 11.5z" />
    <glyph glyph-name="uni040D" unicode="&#x40d;" 
d="M59 688q0 7 2 9t12.5 2.5t28.5 0.5v-413q0 -120 -6 -212q11 35 35 93.5t53 126.5l52 122l114 270q5 9 12 11t17.5 2h14.5v-688q0 -6 -2.5 -8.5t-13 -3t-28.5 -0.5v255q0 206 11 373q-33 -95 -140 -346l-116 -269q-4 -9 -11.5 -11t-19 -2h-15.5v688zM205.5 832.5
q-47.5 36.5 -54.5 43.5q1 10 7.5 23.5t14.5 13.5q4 0 51.5 -39.5t85.5 -77.5q-2 -4 -8 -15t-10 -11q-39 26 -86.5 62.5z" />
    <glyph glyph-name="uni040E" unicode="&#x40e;" horiz-adv-x="377" 
d="M83.5 5q-15.5 8 -17.5 20l-1 4q0 10 9 25q22 -16 50 -16q22 0 32.5 19t22.5 66q-27 85 -105 369l-51 185l-4 16q0 7 11 7h33l88 -310q25 -94 48 -209q18 96 43 200l77 302q2 10 5.5 13.5t12.5 3.5h31l-146 -580q-12 -45 -22 -69.5t-28.5 -39t-51.5 -14.5q-21 0 -36.5 8z
M120.5 797q-27.5 17 -41.5 41t-16 47q-1 17 34 24q19 -96 94 -96q39 0 56.5 20t30.5 66q3 8 12 8t18.5 -6.5t10.5 -15.5q-18 -53 -46.5 -79t-83.5 -26q-41 0 -68.5 17z" />
    <glyph glyph-name="uni040F" unicode="&#x40f;" horiz-adv-x="433" 
d="M200 0h-141v688q0 7 2 9t13 2.5t30 0.5v-657h225v645q0 7 2 9t13 2.5t30 0.5v-688q0 -9 -4 -10.5t-23 -1.5h-104v-147q0 -8 -6.5 -10t-21.5 -2q-13 69 -15 159z" />
    <glyph glyph-name="uni0410" unicode="&#x410;" horiz-adv-x="436" 
d="M428 8q0 -9 -19 -9q-17 0 -27 1l-54 199h-220l-50 -190q-1 -7 -5.5 -8.5t-16.5 -1.5q-16 0 -28 1l192 698q2 6 15 6q11 0 19 -2l193 -690zM317 242l-54 200q-41 151 -45 197q-6 -46 -46 -197l-53 -200h198z" />
    <glyph glyph-name="uni0411" unicode="&#x411;" horiz-adv-x="397" 
d="M59 688q0 3 3 7.5t10 4.5h257q0 -30 -1 -36.5t-8 -6.5h-215v-253h86q89 0 129 -43t40 -135q0 -105 -48 -165.5t-136 -60.5h-117v688zM276.5 87.5q33.5 46.5 33.5 134.5q0 74 -28.5 106t-94.5 32h-82v-318q22 -1 68 -1q70 0 103.5 46.5z" />
    <glyph glyph-name="uni0412" unicode="&#x412;" horiz-adv-x="403" 
d="M59 683q0 17 25 17h101q70 0 118 -33t48 -119q0 -81 -30 -118.5t-69 -43.5q45 -2 83 -33.5t38 -113.5q0 -139 -60 -189t-133 -50h-121v683zM189 402q52 0 83.5 32.5t31.5 107.5q0 117 -121 117h-78v-257h84zM180 41q62 0 102.5 44.5t40.5 149.5q0 56 -18 83.5t-47.5 35
t-78.5 7.5h-74v-320h75z" />
    <glyph glyph-name="uni0413" unicode="&#x413;" horiz-adv-x="312" 
d="M59 688q0 3 3 7.5t10 4.5h222q0 -29 -1 -35t-7 -6h-182v-647q0 -3 -2 -7.5t-10 -4.5h-33v688z" />
    <glyph glyph-name="uni0414" unicode="&#x414;" horiz-adv-x="465" 
d="M23.5 -157q-6.5 2 -6.5 10v190h14q31 0 50.5 42t35.5 180.5t30 422.5q1 7 2.5 9t10.5 2.5t24 0.5h202v-657h50v-190q0 -8 -6.5 -10t-21.5 -2q-15 83 -15 159h-333q-2 -90 -15 -159q-15 0 -21.5 2zM341 43v614h-151q-14 -216 -26.5 -339.5t-27 -187t-35.5 -87.5h240z" />
    <glyph glyph-name="uni0415" unicode="&#x415;" horiz-adv-x="344" 
d="M106 42h207q0 -29 -1.5 -35.5t-9.5 -6.5h-241v688q0 3 3 7.5t10 4.5h239q0 -29 -1 -35.5t-8 -6.5h-198v-254h185q0 -28 -1.5 -35t-8.5 -7h-175v-320z" />
    <glyph glyph-name="uni0416" unicode="&#x416;" horiz-adv-x="638" 
d="M42.5 2.5q-4.5 3.5 -3.5 12.5l46 210q10 52 33 90t55 56q-20 12 -37.5 36.5t-27.5 58.5l-60 216q-2 8 -2 11q0 7 16 7q18 0 27 -2l61 -223q11 -42 32 -64t47 -22h68v299q0 7 2 9t13 2.5t30 0.5v-311h68q25 0 46 22t33 64l60 223q10 2 28 2q16 0 16 -7q0 -3 -2 -11
l-61 -216q-9 -34 -26.5 -58.5t-38.5 -36.5q32 -18 54.5 -55.5t33.5 -90.5l46 -210v-5q0 -6 -4 -8.5t-14 -2.5q-17 0 -27 1l-46 214q-13 63 -40.5 98t-60.5 35h-65v-335q0 -7 -2 -9t-13 -2.5t-30 -0.5v347h-65q-33 0 -61 -35t-40 -98l-46 -214q-9 -1 -27 -1q-11 0 -15.5 3.5z
" />
    <glyph glyph-name="uni0417" unicode="&#x417;" horiz-adv-x="366" 
d="M97 3q-34 11 -54 28t-21 32q0 15 11 30q45 -58 135 -58q49 0 86 37t37 127q0 73 -31.5 110t-80.5 37h-60q-17 0 -17 23v22h101q37 33 52 70t15 81q0 59 -26 90.5t-72 31.5q-34 0 -60.5 -14.5t-50.5 -36.5q-9 20 -9 28q0 15 15.5 30.5t44 26t65.5 10.5q68 0 105.5 -41.5
t37.5 -112.5q0 -51 -21 -98t-55 -76q96 -43 96 -176q0 -78 -25.5 -125t-63.5 -67t-80 -20q-40 0 -74 11z" />
    <glyph glyph-name="uni0418" unicode="&#x418;" 
d="M59 688q0 7 2 9t12.5 2.5t28.5 0.5v-413q0 -120 -6 -212q11 35 35 93.5t53 126.5l52 122l114 270q5 9 12 11t17.5 2h14.5v-688q0 -6 -2.5 -8.5t-13 -3t-28.5 -0.5v255q0 206 11 373q-33 -95 -140 -346l-116 -269q-4 -9 -11.5 -11t-19 -2h-15.5v688z" />
    <glyph glyph-name="uni0419" unicode="&#x419;" 
d="M59 688q0 7 2 9t12.5 2.5t28.5 0.5v-413q0 -120 -6 -212q11 35 35 93.5t53 126.5l52 122l114 270q5 9 12 11t17.5 2h14.5v-688q0 -6 -2.5 -8.5t-13 -3t-28.5 -0.5v255q0 206 11 373q-33 -95 -140 -346l-116 -269q-4 -9 -11.5 -11t-19 -2h-15.5v688zM155.5 797
q-27.5 17 -41.5 41t-16 47q-1 17 34 24q19 -96 94 -96q39 0 56.5 20t30.5 66q3 8 12 8t18.5 -6.5t10.5 -15.5q-18 -53 -46.5 -79t-83.5 -26q-41 0 -68.5 17z" />
    <glyph glyph-name="uni041A" unicode="&#x41a;" horiz-adv-x="405" 
d="M319 0l-52 210q-14 65 -42.5 99t-64.5 34h-55v-331q0 -7 -2 -9t-13.5 -2.5t-30.5 -0.5v688q0 7 2 9t13.5 2.5t30.5 0.5v-313h60q26 0 47.5 22t34.5 63l68 226q10 2 29 2q10 0 13.5 -1.5t3.5 -6.5q0 -2 -2 -10l-70 -219q-11 -34 -28.5 -58.5t-38.5 -36.5
q33 -18 56.5 -55.5t35.5 -91.5l52 -206l1 -6q0 -6 -4.5 -8t-15.5 -2q-19 0 -28 1z" />
    <glyph glyph-name="uni041B" unicode="&#x41b;" horiz-adv-x="423" 
d="M0 20q0 7 1 11q43 2 67 68t36.5 194.5t28.5 391.5q1 10 7 12.5t35 2.5h189v-688q0 -6 -2.5 -8.5t-13.5 -3t-29 -0.5v657h-143q-14 -239 -30 -378t-44.5 -212t-75.5 -73q-26 0 -26 26z" />
    <glyph glyph-name="uni041C" unicode="&#x41c;" horiz-adv-x="502" 
d="M443 700v-688q0 -7 -2 -9t-13 -2.5t-30 -0.5l1 306l6 277l-79 -260l-59 -176q-3 -9 -11 -9h-23l-57 185l-80 257l5 -189l2 -77l1 -302q0 -6 -2.5 -8.5t-13.5 -3t-29 -0.5v688q0 12 12 12h29l114 -369l37 -123l35 119l112 361q4 12 12 12h33z" />
    <glyph glyph-name="uni041D" unicode="&#x41d;" horiz-adv-x="441" 
d="M339 696.5q2 2.5 13 3t30 0.5v-688q0 -7 -2 -9t-13 -2.5t-30 -0.5v360h-233v-348q0 -7 -2 -9t-13 -2.5t-30 -0.5v688q0 7 2 9t13 2.5t30 0.5v-296h233v284q0 6 2 8.5z" />
    <glyph glyph-name="uni041E" unicode="&#x41e;" 
d="M117.5 23.5q-39.5 33.5 -58 112.5t-18.5 219q0 190 46.5 272.5t146.5 82.5q66 0 104 -34t55.5 -110.5t17.5 -209.5q0 -134 -19.5 -214t-60.5 -116t-108 -36q-66 0 -105.5 33.5zM304.5 67.5q30.5 31.5 45 101.5t14.5 188q0 115 -13 182t-41.5 96t-76.5 29q-50 0 -81 -31.5
t-46.5 -102.5t-15.5 -190q0 -112 13.5 -178t42.5 -96t78 -30q50 0 80.5 31.5z" />
    <glyph glyph-name="uni041F" unicode="&#x41f;" horiz-adv-x="430" 
d="M59 688q0 6 2.5 8.5t13.5 3t29 0.5h266v-688q0 -7 -2 -9t-13 -2.5t-29 -0.5v657h-222v-645q0 -7 -2 -9t-13 -2.5t-30 -0.5v688z" />
    <glyph glyph-name="uni0420" unicode="&#x420;" horiz-adv-x="373" 
d="M307.5 650q40.5 -50 40.5 -138q0 -106 -46.5 -158.5t-129.5 -52.5h-68v-289q0 -7 -2 -9t-13 -2.5t-30 -0.5v688q0 12 12 12h106q90 0 130.5 -50zM300 516q0 143 -121 143h-75v-316h70q126 0 126 173z" />
    <glyph glyph-name="uni0421" unicode="&#x421;" horiz-adv-x="359" 
d="M124 11q-35 20 -59 91t-24 213q0 166 28 253t69.5 114t96.5 27q29 0 50 -8t31.5 -19.5t10.5 -21.5q0 -7 -2.5 -15t-6.5 -13q-10 10 -31.5 22t-47.5 12q-44 0 -76 -24.5t-53.5 -102.5t-21.5 -226q0 -112 17.5 -172.5t45 -81t63.5 -20.5q33 0 63.5 15.5t45.5 34.5
q9 -18 9 -30q0 -14 -17 -30t-45.5 -27t-62.5 -11q-48 0 -83 20z" />
    <glyph glyph-name="uni0422" unicode="&#x422;" horiz-adv-x="365" 
d="M359 700v-31q0 -12 -13 -12h-143v-645q0 -7 -2 -9t-13 -2.5t-30 -0.5v657h-152v31q0 12 13 12h340z" />
    <glyph glyph-name="uni0423" unicode="&#x423;" horiz-adv-x="377" 
d="M83.5 5q-15.5 8 -17.5 20l-1 4q0 10 9 25q22 -16 50 -16q22 0 32.5 19t22.5 66q-27 85 -105 369l-51 185l-4 16q0 7 11 7h33l88 -310q25 -94 48 -209q18 96 43 200l77 302q2 10 5.5 13.5t12.5 3.5h31l-146 -580q-12 -45 -22 -69.5t-28.5 -39t-51.5 -14.5q-21 0 -36.5 8z
" />
    <glyph glyph-name="uni0424" unicode="&#x424;" horiz-adv-x="549" 
d="M253 73q-109 3 -160.5 74t-51.5 221q0 142 52 212t160 75v66q0 13 2 17.5t10 5.5t33 1v-89q107 -5 158.5 -74.5t51.5 -213.5q0 -147 -52 -218.5t-158 -75.5v-67q0 -9 -2 -12t-13 -4t-30 -1v83zM420.5 179q40.5 62 40.5 189q0 124 -40 184.5t-124 62.5v-500q83 2 123.5 64
zM253 614q-84 -2 -125 -63.5t-41 -185.5q0 -126 41 -187.5t125 -63.5v500z" />
    <glyph glyph-name="uni0425" unicode="&#x425;" horiz-adv-x="427" 
d="M416 6q0 -6 -8 -6h-46l-73 156q-44 95 -63 141q-5 9 -13 28q-55 -122 -77 -168l-73 -151q-4 -6 -12 -6h-40l174 364l-147 328q-2 4 -0.5 5.5t15 2t36.5 0.5l55 -123q45 -102 74 -175q36 86 75 175l52 115q2 5 4.5 6t14.5 1.5t33 0.5l-151 -337l168 -352z" />
    <glyph glyph-name="uni0426" unicode="&#x426;" horiz-adv-x="448" 
d="M382 0h-323v688q0 7 2 9t13 2.5t30 0.5v-657h225v645q0 7 2 9t13 2.5t30 0.5v-657h51v-190q0 -8 -6.5 -10t-21.5 -2q-13 69 -15 159z" />
    <glyph glyph-name="uni0427" unicode="&#x427;" horiz-adv-x="398" 
d="M294 302q-63 -19 -117 -19q-67 0 -103.5 45t-37.5 134v226q0 7 2 9t13 2.5t30 0.5v-229q-1 -72 26.5 -109t78.5 -37q52 0 108 22v341q0 6 2 8.5t13 3t30 0.5v-688q0 -7 -2 -9t-13 -2.5t-30 -0.5v302z" />
    <glyph glyph-name="uni0428" unicode="&#x428;" horiz-adv-x="593" 
d="M59 688q0 7 2 9t13 2.5t30 0.5v-657h170v645q0 7 2 9t13 2.5t30 0.5v-657h170v645q0 7 2 9t13 2.5t30 0.5v-675q0 -13 -5 -18t-16.5 -6t-40.5 -1h-413v688z" />
    <glyph glyph-name="uni0429" unicode="&#x429;" horiz-adv-x="608" 
d="M543 0h-484v688q0 7 2 9t13 2.5t30 0.5v-657h170v645q0 7 2 9t13 2.5t30 0.5v-657h170v645q0 7 2 9t13 2.5t30 0.5v-657h52v-190q0 -8 -6.5 -10t-21.5 -2q-13 69 -15 159z" />
    <glyph glyph-name="uni042A" unicode="&#x42a;" horiz-adv-x="472" 
d="M152 657h-131v27q0 9 3.5 12.5t10.5 3.5h161v-296h87q89 0 129 -43t40 -135q0 -105 -48 -165.5t-136 -60.5h-116v657zM402 222q0 74 -28.5 106t-94.5 32h-83v-317q46 -2 69 -2q137 0 137 181z" />
    <glyph glyph-name="uni042B" unicode="&#x42b;" horiz-adv-x="544" 
d="M59 684q0 8 2.5 11.5t13.5 4t29 0.5v-296h86q89 0 129.5 -43t40.5 -135q0 -105 -48 -165.5t-136 -60.5h-117v684zM310 222q0 74 -28.5 106t-94.5 32h-83v-317q20 -2 68 -2q138 0 138 181zM439 676q0 13 2 17.5t10.5 5.5t33.5 1v-688q0 -6 -2.5 -8.5t-13.5 -3t-30 -0.5
v676z" />
    <glyph glyph-name="uni042C" unicode="&#x42c;" horiz-adv-x="380" 
d="M59 684q0 8 2.5 11.5t13.5 4t29 0.5v-296h86q89 0 129.5 -43t40.5 -135q0 -105 -48 -165.5t-136 -60.5h-117v684zM310 222q0 74 -28.5 106t-94.5 32h-83v-317q20 -2 68 -2q138 0 138 181z" />
    <glyph glyph-name="uni042D" unicode="&#x42d;" horiz-adv-x="361" 
d="M87 0q-27 10 -44 25t-17 28q0 14 10 36q18 -20 45 -35t57 -15q61 0 97 65.5t37 231.5h-176q-8 0 -9.5 7.5t-1.5 35.5h187q-3 124 -23.5 187t-49 81.5t-64.5 18.5q-33 0 -56 -10.5t-35 -22.5q-9 11 -9 28q0 9 13 21t37.5 20t58.5 8q49 0 86 -22.5t63 -100t26 -230.5
q0 -154 -25 -235t-63 -106.5t-88 -25.5q-29 0 -56 10z" />
    <glyph glyph-name="uni042E" unicode="&#x42e;" horiz-adv-x="605" 
d="M279.5 21q-37.5 31 -56 105.5t-19.5 204.5h-101v-319q0 -7 -2 -9t-13 -2.5t-29 -0.5v688q0 6 2.5 8.5t13 3t28.5 0.5v-326h101q2 180 46 258t137 78q65 0 103.5 -34t56 -111t17.5 -209q0 -134 -19.5 -214t-59.5 -116t-106 -36q-62 0 -99.5 31zM458 67.5q30 31.5 44 101.5
t14 188q0 115 -13 182t-41 96.5t-75 29.5q-71 0 -103.5 -74.5t-32.5 -250.5q0 -111 13 -177.5t40.5 -96.5t73.5 -30q50 0 80 31.5z" />
    <glyph glyph-name="uni042F" unicode="&#x42f;" horiz-adv-x="389" 
d="M84 223q8 33 28 55.5t57 37.5q-51 15 -86 69t-35 130q0 86 41 135.5t122 49.5h106q8 0 10 -4.5t2 -7.5v-688q-19 0 -29.5 0.5t-12.5 2.5t-2 9v292h-39q-42 0 -74 -23.5t-42 -62.5l-52 -204q-3 -9 -6 -12t-16 -3l-31 1zM285 348v310q-25 1 -76 1q-57 0 -85 -38.5
t-28 -101.5q0 -51 16 -90t44.5 -60.5t62.5 -21.5q43 0 66 1z" />
    <glyph glyph-name="uni0430" unicode="&#x430;" horiz-adv-x="372" 
d="M78 17q-39 29 -39 121q0 96 42 129t113 33q54 0 84 -11v91q0 50 -21.5 68t-63.5 18q-47 0 -86.5 -7.5t-61.5 -17.5q-6 12 -6 26t7 18q17 10 61.5 17.5t95.5 7.5q61 0 90.5 -27.5t29.5 -93.5v-62q0 -183 -6 -300q-57 -37 -134 -37q-66 -2 -105 27zM239.5 38
q23.5 8 33.5 17q5 56 5 199q-29 10 -71 10q-38 0 -63.5 -8.5t-42 -35.5t-16.5 -81q0 -48 14 -72t36 -30.5t56 -6.5q25 0 48.5 8z" />
    <glyph glyph-name="uni0431" unicode="&#x431;" horiz-adv-x="400" 
d="M104 16q-33 26 -47.5 86.5t-14.5 170.5v113q0 91 12 147t39 89t75 50l181 65q11 -29 8 -37q-1 -6 -8.5 -10.5t-27.5 -11.5l-131 -44q-43 -15 -67 -41.5t-34 -72.5t-10 -122q21 57 51.5 84.5t85.5 27.5q76 0 112 -60t36 -192q0 -268 -167 -268q-60 0 -93 26zM285.5 83.5
q31.5 53.5 31.5 159.5q0 120 -26 173.5t-83 53.5q-58 0 -88.5 -53.5t-30.5 -156.5q0 -86 11 -136t35 -72t64 -22q55 0 86.5 53.5z" />
    <glyph glyph-name="uni0432" unicode="&#x432;" horiz-adv-x="392" 
d="M59 488q0 6 5 9t20 3h96q69 0 110.5 -23t41.5 -94q0 -38 -16 -65t-35.5 -41t-29.5 -15q25 -5 37 -10q65 -24 65 -95q0 -73 -46 -115t-132 -42h-116v488zM173 275q50 0 81.5 24t31.5 79q0 38 -14.5 56.5t-36.5 23t-59 4.5l-73 -1v-186h70zM270 69q34 30 34 85
q0 44 -26 65.5t-93 21.5l-82 -1v-200q22 -1 72 -1q61 0 95 30z" />
    <glyph glyph-name="uni0433" unicode="&#x433;" horiz-adv-x="282" 
d="M62 482q0 12 5 15t21 3h184q0 -27 -1.5 -33.5t-10.5 -6.5h-153v-447q0 -7 -2 -9.5t-13 -3t-30 -0.5v482z" />
    <glyph glyph-name="uni0434" unicode="&#x434;" horiz-adv-x="429" 
d="M36.5 -157q-6.5 2 -6.5 10v190h19q19 6 34.5 41.5t30 131t25.5 270.5q1 10 5.5 12t26.5 2h185v-457h51v-190q0 -8 -6.5 -10t-21.5 -2q-13 69 -15 159h-291q-2 -90 -15 -159q-15 0 -21.5 2zM311 43v417h-131q-11 -198 -28 -291t-42 -126h201z" />
    <glyph glyph-name="uni0435" unicode="&#x435;" horiz-adv-x="379" 
d="M279.5 43.5q32.5 9.5 55.5 25.5q6 -16 6 -32q0 -10 -19 -21.5t-50 -18.5t-66 -7q-54 0 -89 17t-55.5 68t-20.5 147q0 121 26 184.5t64.5 83.5t88.5 20q64 0 94.5 -41.5t30.5 -116.5q0 -73 -8 -116q-59 -11 -131 -14.5t-120 -2.5q0 -78 15 -118t42 -53.5t69 -13.5
q35 0 67.5 9.5zM128 427.5q-36 -41.5 -41 -169.5h32q120 0 178 14q4 33 4 69q-1 66 -19 97t-65 31q-53 0 -89 -41.5z" />
    <glyph glyph-name="uni0436" unicode="&#x436;" horiz-adv-x="567" 
d="M37 2q-3 3 -2 10l36 147q11 48 27.5 74t43.5 34q-33 4 -57 76l-46 143q-1 3 -1 7q0 7 17 7q16 0 26 -2l45 -146q20 -68 57 -68h79v206q0 6 2 7.5t12.5 2t28.5 0.5v-216h79q17 0 32 19t25 53l44 142q10 2 27 2q12 0 15 -2.5t0 -11.5l-45 -135q-26 -75 -58 -85
q45 -13 68 -104l40 -150l1 -4q0 -9 -18 -9t-26 1l-41 155q-11 47 -27.5 68t-42.5 21h-73v-234q0 -6 -2 -7.5t-12.5 -2t-28.5 -0.5v244h-75q-29 0 -45.5 -20.5t-26.5 -68.5l-37 -155q-9 -1 -27 -1q-11 0 -14 3z" />
    <glyph glyph-name="uni0437" unicode="&#x437;" horiz-adv-x="342" 
d="M66 6q-36 16 -36 35q0 13 10 29q22 -21 50 -31t55 -10q43 0 76.5 25t33.5 86q0 52 -27.5 77t-72.5 25h-59q-16 0 -16 18v21h97q33 23 47 49t14 56q0 40 -23 61.5t-65 21.5q-32 0 -55.5 -10t-45.5 -26q-8 14 -8 25t14 23t40.5 20t59.5 8q62 0 95.5 -29.5t33.5 -81.5
q0 -38 -17.5 -71t-48.5 -55q41 -17 62.5 -47.5t21.5 -82.5q0 -79 -46.5 -115.5t-110.5 -36.5q-43 0 -79 16z" />
    <glyph glyph-name="uni0438" unicode="&#x438;" horiz-adv-x="424" 
d="M120 8q-32 18 -44.5 57.5t-12.5 108.5v314q0 7 2 9t13 2.5t30 0.5v-333q0 -54 9 -82.5t31.5 -41t66.5 -12.5q23 0 51.5 5.5t50.5 18.5v433q0 6 2.5 8.5t13.5 3t29 0.5v-476q-33 -17 -73.5 -25.5t-78.5 -8.5q-58 0 -90 18z" />
    <glyph glyph-name="uni0439" unicode="&#x439;" horiz-adv-x="424" 
d="M120 8q-32 18 -44.5 57.5t-12.5 108.5v314q0 7 2 9t13 2.5t30 0.5v-333q0 -54 9 -82.5t31.5 -41t66.5 -12.5q23 0 51.5 5.5t50.5 18.5v433q0 6 2.5 8.5t13.5 3t29 0.5v-476q-33 -17 -73.5 -25.5t-78.5 -8.5q-58 0 -90 18zM141.5 597q-27.5 17 -41.5 41t-16 47
q-1 17 34 24q19 -96 94 -96q39 0 56.5 20t30.5 66q3 8 12 8t18.5 -6.5t10.5 -15.5q-18 -53 -46.5 -79t-83.5 -26q-41 0 -68.5 17z" />
    <glyph glyph-name="uni043A" unicode="&#x43a;" horiz-adv-x="369" 
d="M296 0l-46 150q-12 46 -36.5 70t-59.5 24h-48v-234q0 -6 -2 -7.5t-12.5 -2t-29.5 -0.5v490q0 6 2 7.5t12.5 2t29.5 0.5v-215h51q51 0 75 59l60 154q10 2 27 2q10 0 13.5 -1t3.5 -5l-2 -8l-61 -150q-21 -52 -59 -69q28 -13 50 -41.5t32 -67.5l45 -146q0 -8 -3.5 -10.5
t-14.5 -2.5q-18 0 -27 1z" />
    <glyph glyph-name="uni043B" unicode="&#x43b;" horiz-adv-x="394" 
d="M0 21q0 8 1 12q38 1 58.5 45.5t31.5 133t25 274.5q0 7 2 9.5t12 3.5t26 1h176v-489q0 -6 -2 -8t-13.5 -2.5t-30.5 -0.5v460h-128q-12 -168 -26.5 -265.5t-39.5 -147.5t-67 -50q-25 0 -25 24z" />
    <glyph glyph-name="uni043C" unicode="&#x43c;" horiz-adv-x="486" 
d="M62 492q0 2 2.5 5.5t9.5 3.5h36l104 -265q3 -6 14.5 -39t15.5 -45q30 85 44 120l86 220q1 4 3.5 6.5t9.5 2.5h37v-492q0 -5 -1.5 -6.5t-12 -2t-28.5 -0.5v187q0 53 4 240q-19 -51 -41.5 -110t-33.5 -86l-51 -121q-3 -7 -11 -7h-22l-50 128q-9 24 -34 88.5t-40 99.5h-1
l3 -226l-1 -184q0 -5 -2 -6.5t-12 -2t-28 -0.5v492z" />
    <glyph glyph-name="uni043D" unicode="&#x43d;" horiz-adv-x="414" 
d="M62 488q0 7 2 9t13 2.5t30 0.5v-230h200v218q0 7 2 9t13 2.5t30 0.5v-488q0 -7 -2 -9t-13 -2.5t-30 -0.5v229h-200v-217q0 -7 -2 -9t-13 -2.5t-30 -0.5v488z" />
    <glyph glyph-name="uni043E" unicode="&#x43e;" horiz-adv-x="392" 
d="M104 8.5q-33 18.5 -51 75t-18 165.5q0 261 167 261q54 0 87.5 -23t50.5 -80t17 -157q0 -131 -42.5 -195.5t-123.5 -64.5q-54 0 -87 18.5zM278.5 84q30.5 54 30.5 168q0 86 -12.5 134t-36 66t-60.5 18q-57 0 -87 -51.5t-30 -174.5q0 -86 12.5 -132.5t35.5 -64t61 -17.5
q56 0 86.5 54z" />
    <glyph glyph-name="uni043F" unicode="&#x43f;" horiz-adv-x="411" 
d="M62 486q0 8 2 10.5t13 3t30 0.5h242v-488q0 -7 -2 -9t-13 -2.5t-30 -0.5v457h-197v-445q0 -7 -2 -9t-13 -2.5t-30 -0.5v486z" />
    <glyph glyph-name="uni0440" unicode="&#x440;" horiz-adv-x="406" 
d="M61 -179v648q63 41 144 41q82 0 123.5 -48t41.5 -165q0 -179 -51.5 -243t-118.5 -64q-31 0 -56.5 12t-37.5 27v-222q-11 -4 -24 -4q-21 0 -21 18zM281 83.5q41 51.5 41 201.5q0 72 -13.5 112t-39 56t-66.5 16q-54 0 -97 -27v-359q14 -25 36.5 -38t47.5 -13q50 0 91 51.5z
" />
    <glyph glyph-name="uni0441" unicode="&#x441;" horiz-adv-x="338" 
d="M112 8.5q-32 18.5 -50.5 73t-18.5 157.5q0 161 51 216t130 55q33 0 58.5 -11.5t25.5 -26.5q0 -14 -7 -28q-33 25 -80 25q-57 0 -94.5 -46.5t-37.5 -186.5q0 -83 14 -127.5t39 -61t63 -16.5q31 0 56.5 10t40.5 24q6 -15 6 -28q0 -10 -15 -21t-41.5 -18.5t-58.5 -7.5
q-49 0 -81 18.5z" />
    <glyph glyph-name="uni0442" unicode="&#x442;" horiz-adv-x="318" 
d="M137 458h-127q0 29 2 35.5t10 6.5h287q0 -29 -2 -35.5t-11 -6.5h-115v-446q0 -7 -2 -9t-12.5 -2.5t-29.5 -0.5v458z" />
    <glyph glyph-name="uni0443" unicode="&#x443;" horiz-adv-x="357" 
d="M46 -167q0 7 1 11q27 0 44.5 12.5t32 42t29.5 84.5l-134 503q-2 7 0 9.5t13 3.5t30 1l83 -315q11 -44 19 -90t10 -59q2 13 10 58.5t18 91.5l75 299q2 8 4.5 11t14 3.5t31.5 0.5l-136 -532q-24 -86 -51 -122.5t-66 -38.5q-28 0 -28 26z" />
    <glyph glyph-name="uni0444" unicode="&#x444;" horiz-adv-x="510" 
d="M235 -10q-72 1 -115 26t-62.5 81t-19.5 152q0 89 19.5 144.5t62.5 83t115 32.5v201q0 15 8 20t33 5v-225q73 -2 116 -28.5t62.5 -82.5t19.5 -149q0 -90 -20 -145.5t-63 -82.5t-115 -31v-171q0 -10 -4.5 -14t-18.5 -4q-11 0 -18 1v187zM367 58.5q33 23.5 47.5 70
t14.5 123.5q0 79 -14 125t-47 68.5t-92 24.5v-440q58 5 91 28.5zM235 469q-58 -5 -91 -28.5t-47 -71t-14 -126.5q0 -76 14 -121.5t47 -67t91 -24.5v439z" />
    <glyph glyph-name="uni0445" unicode="&#x445;" horiz-adv-x="447" 
d="M422 5q0 -4 -13.5 -4.5t-38.5 -0.5l-57 86q-37 56 -91 146q-69 -113 -92 -147l-50 -75q-4 -7 -12 -8.5t-43 -1.5l171 264l-146 228q-3 4 -1.5 5.5t14 2t33.5 0.5l56 -84q57 -90 75 -121q29 50 76 122l49 75q3 5 6 6t15 1.5t33 0.5l-152 -233l165 -254q3 -4 3 -8z" />
    <glyph glyph-name="uni0446" unicode="&#x446;" horiz-adv-x="425" 
d="M359 0h-297v488q0 7 2 9t13 2.5t30 0.5v-457h197v445q0 7 2 9t13 2.5t30 0.5v-457h53v-190q0 -8 -6.5 -10t-21.5 -2q-13 69 -15 159z" />
    <glyph glyph-name="uni0447" unicode="&#x447;" horiz-adv-x="368" 
d="M262 208q-50 -16 -97 -16q-66 0 -98 31.5t-32 103.5v161q0 7 2 9t13 2.5t30 0.5v-165q0 -56 21.5 -79.5t70.5 -23.5q44 0 90 18v238q0 7 2 9t12.5 2.5t29.5 0.5v-488q0 -7 -2 -9t-12.5 -2.5t-29.5 -0.5v208z" />
    <glyph glyph-name="uni0448" unicode="&#x448;" horiz-adv-x="585" 
d="M62 488q0 7 2 9t13 2.5t30 0.5v-457h163v445q0 7 2 9t13 2.5t30 0.5v-457h164v445q0 7 2 9t12.5 2.5t29.5 0.5v-488q0 -7 -1.5 -9t-12.5 -2.5t-30 -0.5h-417v488z" />
    <glyph glyph-name="uni0449" unicode="&#x449;" horiz-adv-x="597" 
d="M531 0h-469v488q0 7 2 9t13 2.5t30 0.5v-457h162v445q0 7 2 9t12.5 2.5t29.5 0.5v-457h163v445q0 7 2 9t12.5 2.5t29.5 0.5v-457h54v-190q0 -8 -6.5 -10t-21.5 -2q-13 69 -15 159z" />
    <glyph glyph-name="uni044A" unicode="&#x44a;" horiz-adv-x="441" 
d="M151 458h-132v24q0 11 1.5 14.5t6.5 3.5h168v-209h74q77 0 117 -26.5t40 -102.5q0 -71 -26.5 -106.5t-61 -45t-78.5 -10.5h-109v458zM349 61q30 25 30 101q0 40 -14.5 60t-40 26.5t-67.5 6.5h-62v-218l67 -1q57 0 87 25z" />
    <glyph glyph-name="uni044B" unicode="&#x44b;" horiz-adv-x="521" 
d="M62 480q0 14 7 17t36 3v-209h75q77 0 117 -26.5t40 -102.5q0 -72 -27 -107.5t-63 -45t-81 -9.5h-104v480zM260 61q30 25 30 101q0 40 -14.5 60t-40 26.5t-67.5 6.5h-63v-218l68 -1q57 0 87 25zM414 477q0 16 8 19.5t37 3.5v-488q0 -7 -2 -9t-13 -2.5t-30 -0.5v477z" />
    <glyph glyph-name="uni044C" unicode="&#x44c;" horiz-adv-x="352" 
d="M62 480q0 14 7 17t36 3v-209h75q77 0 117 -26.5t40 -102.5q0 -72 -27 -107.5t-63 -45t-81 -9.5h-104v480zM260 61q30 25 30 101q0 40 -14.5 60t-40 26.5t-67.5 6.5h-63v-218l68 -1q57 0 87 25z" />
    <glyph glyph-name="uni044D" unicode="&#x44d;" horiz-adv-x="334" 
d="M87 -3.5q-25 7.5 -39.5 18.5t-14.5 21q0 16 6 29q18 -14 44 -24t51 -10q38 0 63 17.5t39 61t16 120.5h-173q0 26 2 32.5t10 6.5h162q-1 120 -34.5 160.5t-82.5 40.5q-31 0 -56 -8.5t-41 -20.5q-7 13 -7 29q0 15 32 28t77 13q42 0 76 -17t57.5 -72.5t23.5 -161.5
q0 -108 -18.5 -167t-52.5 -81.5t-86 -22.5q-29 0 -54 7.5z" />
    <glyph glyph-name="uni044E" unicode="&#x44e;" horiz-adv-x="537" 
d="M255 7.5q-31 17.5 -49 69.5t-19 153h-81v-218q0 -7 -1.5 -9t-12.5 -2.5t-30 -0.5v488q0 7 2 9t12.5 2.5t29.5 0.5v-230h81q6 240 161 240q54 0 87 -23t50 -79.5t17 -157.5q0 -260 -166 -260q-50 0 -81 17.5zM425 84q31 54 31 168q0 86 -12.5 134t-36.5 66t-61 18
q-55 0 -84 -51.5t-29 -174.5q0 -86 12 -132.5t34.5 -64t58.5 -17.5q56 0 87 54z" />
    <glyph glyph-name="uni044F" unicode="&#x44f;" horiz-adv-x="386" 
d="M36 -2l38 133q10 36 27 58.5t43 35.5q-38 10 -65 43t-27 92q0 69 40.5 104.5t118.5 35.5h101q8 0 10 -3.5t2 -6.5v-490q-19 0 -30.5 1t-13.5 4t-2 12v200h-68q-65 0 -91 -89l-35 -119q-2 -8 -4.5 -10t-13.5 -2q-19 0 -30 1zM278 255v205l-81 1q-46 0 -72 -26.5t-26 -79.5
q0 -51 26.5 -75.5t68.5 -24.5h84z" />
    <glyph glyph-name="uni0450" unicode="&#x450;" horiz-adv-x="379" 
d="M279.5 43.5q32.5 9.5 55.5 25.5q6 -16 6 -32q0 -10 -19 -21.5t-50 -18.5t-66 -7q-54 0 -89 17t-55.5 68t-20.5 147q0 121 26 184.5t64.5 83.5t88.5 20q64 0 94.5 -41.5t30.5 -116.5q0 -73 -8 -116q-59 -11 -131 -14.5t-120 -2.5q0 -78 15 -118t42 -53.5t69 -13.5
q35 0 67.5 9.5zM128 427.5q-36 -41.5 -41 -169.5h32q120 0 178 14q4 33 4 69q-1 66 -19 97t-65 31q-53 0 -89 -41.5zM186.5 632.5q-47.5 36.5 -54.5 43.5q1 10 7.5 23.5t14.5 13.5q4 0 51.5 -39.5t85.5 -77.5q-2 -4 -8 -15t-10 -11q-39 26 -86.5 62.5z" />
    <glyph glyph-name="uni0451" unicode="&#x451;" horiz-adv-x="379" 
d="M279.5 43.5q32.5 9.5 55.5 25.5q6 -16 6 -32q0 -10 -19 -21.5t-50 -18.5t-66 -7q-54 0 -89 17t-55.5 68t-20.5 147q0 121 26 184.5t64.5 83.5t88.5 20q64 0 94.5 -41.5t30.5 -116.5q0 -73 -8 -116q-59 -11 -131 -14.5t-120 -2.5q0 -78 15 -118t42 -53.5t69 -13.5
q35 0 67.5 9.5zM128 427.5q-36 -41.5 -41 -169.5h32q120 0 178 14q4 33 4 69q-1 66 -19 97t-65 31q-53 0 -89 -41.5zM129 638q0 39 28 39q14 0 20 -9.5t5 -29.5q0 -39 -28 -39q-26 0 -25 39zM241.5 608.5q-6.5 9.5 -6.5 29.5q2 39 29 39q14 0 20 -9.5t5 -29.5q0 -39 -28 -39
q-13 0 -19.5 9.5z" />
    <glyph glyph-name="uni0452" unicode="&#x452;" horiz-adv-x="423" 
d="M153.5 -165q-27.5 9 -27.5 20q0 12 4 24q43 -10 72 -10q45 0 69.5 31.5t34.5 100.5t10 192v136q0 53 -7.5 82.5t-26.5 42.5t-54 13q-30 0 -63 -10.5t-58 -34.5v-410q0 -7 -2 -9t-13 -2.5t-30 -0.5v592h-71q-3 11 -3 19q0 10 5 15.5t14 5.5h55v80q0 16 8 19.5t37 3.5v-103
h159q3 -10 3 -19q-2 -21 -18 -21h-144v-126q29 22 63 33t67 11q49 0 75.5 -17t37 -53.5t11.5 -102.5v-141q0 -134 -13.5 -214t-46.5 -118t-92 -38q-28 0 -55.5 9z" />
    <glyph glyph-name="uni0453" unicode="&#x453;" horiz-adv-x="282" 
d="M62 482q0 12 5 15t21 3h184q0 -27 -1.5 -33.5t-10.5 -6.5h-153v-447q0 -7 -2 -9.5t-13 -3t-30 -0.5v482zM116 583.5q-6 11.5 -8 15.5q38 38 86 77.5t51 39.5q8 0 14.5 -13.5t7.5 -23.5q-6 -7 -53.5 -43.5t-87.5 -63.5q-4 0 -10 11.5z" />
    <glyph glyph-name="uni0454" unicode="&#x454;" horiz-adv-x="324" 
d="M77 47.5q-42 58.5 -42 216.5q0 105 24 159t57.5 70.5t74.5 16.5q30 0 54 -7t37.5 -17.5t13.5 -19.5q0 -11 -9 -27q-14 12 -37.5 21t-51.5 9q-50 0 -83 -40t-34 -160h151q10 0 13 -6t3 -33h-166q3 -112 32.5 -155.5t83.5 -43.5q25 0 49 10t40 24q7 -17 7 -28
q0 -10 -14.5 -21t-37.5 -19t-49 -8q-74 0 -116 58.5z" />
    <glyph glyph-name="uni0455" unicode="&#x455;" horiz-adv-x="377" 
d="M78 2q-35 12 -35 29t10 28q23 -14 49.5 -20.5t64.5 -6.5q55 0 86 21t31 63q0 31 -14.5 56t-46.5 48l-109 73q-41 27 -54.5 50.5t-13.5 54.5q0 52 44 82t117 30q42 0 71.5 -8.5t43.5 -19.5t14 -20q0 -11 -12 -26q-27 17 -53.5 25t-59.5 8q-51 0 -83.5 -18.5t-32.5 -51.5
q0 -21 11 -37.5t42 -37.5l114 -76q37 -29 54 -58.5t17 -66.5q0 -65 -43 -99t-120 -34q-57 0 -92 12z" />
    <glyph glyph-name="uni0456" unicode="&#x456;" horiz-adv-x="169" 
d="M62 477q0 16 8 19.5t37 3.5v-488q0 -7 -2 -9t-13 -2.5t-30 -0.5v477zM63 607.5q-6 9.5 -6 30.5q2 40 29 40q15 0 21 -9.5t6 -30.5q-2 -40 -30 -40q-14 0 -20 9.5z" />
    <glyph glyph-name="uni0457" unicode="&#x457;" horiz-adv-x="169" 
d="M62 477q0 16 8 19.5t37 3.5v-488q0 -7 -2 -9t-13 -2.5t-30 -0.5v477zM5 638q0 39 28 39q14 0 20 -9.5t5 -29.5q0 -39 -28 -39q-26 0 -25 39zM117.5 608.5q-6.5 9.5 -6.5 29.5q2 39 29 39q14 0 20 -9.5t5 -29.5q0 -39 -28 -39q-13 0 -19.5 9.5z" />
    <glyph glyph-name="uni0458" unicode="&#x458;" horiz-adv-x="181" 
d="M-87 -181.5q-30 13.5 -30 30.5q0 15 8 27q43 -28 100 -28q33 0 50 13.5t22.5 40t5.5 72.5v503q0 16 7.5 19.5t36.5 3.5v-537q0 -77 -25 -117.5t-95 -40.5q-50 0 -80 13.5zM69 607.5q-6 9.5 -6 30.5q2 40 29 40q15 0 21 -9.5t6 -30.5q-2 -40 -30 -40q-14 0 -20 9.5z" />
    <glyph glyph-name="uni0459" unicode="&#x459;" horiz-adv-x="578" 
d="M0 21q0 8 1 12q38 1 58.5 45.5t31.5 133t25 274.5q0 7 2 9.5t12 3.5t26 1h176v-209h74q77 0 117 -26.5t40 -102.5q0 -72 -27 -107.5t-63 -45t-80 -9.5h-106l-1 460h-128q-12 -168 -26.5 -265.5t-39.5 -147.5t-67 -50q-25 0 -25 24zM399 36q38 0 62.5 9.5t39.5 37t15 79.5
q0 40 -14.5 60t-40 26.5t-67.5 6.5h-62v-218z" />
    <glyph glyph-name="uni045A" unicode="&#x45a;" horiz-adv-x="601" 
d="M62 488q0 7 2 9t13 2.5t30 0.5v-209h203v189q0 10 3 13.5t11.5 5t30.5 1.5v-209h74q77 0 117 -26.5t40 -102.5q0 -72 -27 -107.5t-63 -45t-80 -9.5h-106v253h-203v-241q0 -7 -1.5 -9t-12.5 -2.5t-31 -0.5v488zM509 61q30 25 30 101q0 40 -14.5 60t-40 26.5t-67.5 6.5h-62
v-218l67 -1q57 0 87 25z" />
    <glyph glyph-name="uni045B" unicode="&#x45b;" horiz-adv-x="406" 
d="M62 592h-71q-3 11 -3 19q2 21 19 21h55v80q0 16 8 19.5t37 3.5v-103h159q3 -10 3 -19q-2 -21 -18 -21h-144v-126q29 22 63.5 33t68.5 11q69 0 94 -33.5t25 -101.5v-363q0 -7 -2 -9t-13.5 -2.5t-30.5 -0.5v367q0 49 -18.5 74.5t-68.5 25.5q-30 0 -62 -11t-56 -34v-410
q0 -7 -2 -9t-13 -2.5t-30 -0.5v592z" />
    <glyph glyph-name="uni045C" unicode="&#x45c;" horiz-adv-x="369" 
d="M296 0l-46 150q-12 46 -36.5 70t-59.5 24h-48v-234q0 -6 -2 -7.5t-12.5 -2t-29.5 -0.5v490q0 6 2 7.5t12.5 2t29.5 0.5v-215h51q51 0 75 59l60 154q10 2 27 2q10 0 13.5 -1t3.5 -5l-2 -8l-61 -150q-21 -52 -59 -69q28 -13 50 -41.5t32 -67.5l45 -146q0 -8 -3.5 -10.5
t-14.5 -2.5q-18 0 -27 1zM133 583.5q-6 11.5 -8 15.5q38 38 86 77.5t51 39.5q8 0 14.5 -13.5t7.5 -23.5q-6 -7 -53.5 -43.5t-87.5 -63.5q-4 0 -10 11.5z" />
    <glyph glyph-name="uni045D" unicode="&#x45d;" horiz-adv-x="424" 
d="M120 8q-32 18 -44.5 57.5t-12.5 108.5v314q0 7 2 9t13 2.5t30 0.5v-333q0 -54 9 -82.5t31.5 -41t66.5 -12.5q23 0 51.5 5.5t50.5 18.5v433q0 6 2.5 8.5t13.5 3t29 0.5v-476q-33 -17 -73.5 -25.5t-78.5 -8.5q-58 0 -90 18zM164.5 632.5q-47.5 36.5 -54.5 43.5
q1 10 7.5 23.5t14.5 13.5q4 0 51.5 -39.5t85.5 -77.5q-2 -4 -8 -15t-10 -11q-39 26 -86.5 62.5z" />
    <glyph glyph-name="uni045E" unicode="&#x45e;" horiz-adv-x="357" 
d="M46 -167q0 7 1 11q27 0 44.5 12.5t32 42t29.5 84.5l-134 503q-2 7 0 9.5t13 3.5t30 1l83 -315q11 -44 19 -90t10 -59q2 13 10 58.5t18 91.5l75 299q2 8 4.5 11t14 3.5t31.5 0.5l-136 -532q-24 -86 -51 -122.5t-66 -38.5q-28 0 -28 26zM96.5 597q-27.5 17 -41.5 41t-16 47
q-1 17 34 24q19 -96 94 -96q39 0 56.5 20t30.5 66q3 8 12 8t18.5 -6.5t10.5 -15.5q-18 -53 -46.5 -79t-83.5 -26q-41 0 -68.5 17z" />
    <glyph glyph-name="uni045F" unicode="&#x45f;" horiz-adv-x="411" 
d="M175 0h-113v488q0 7 2 9t13 2.5t30 0.5v-457h197v445q0 7 2 9t13 2.5t30 0.5v-486q0 -10 -3.5 -12t-24.5 -2h-103l-4 -147q0 -7 -5.5 -10t-12.5 -3q-5 0 -8.5 1t-3.5 3z" />
    <glyph glyph-name="uni0462" unicode="&#x462;" horiz-adv-x="390" 
d="M319.5 361q40.5 -43 40.5 -135q0 -105 -48 -165.5t-136 -60.5h-117v500h-55v31q0 12 12 12h43v141q0 8 2.5 11.5t13.5 4t29 0.5v-157h147v-31q0 -6 -2.5 -9t-9.5 -3h-135v-96h86q89 0 129.5 -43zM310 222q0 74 -28.5 106t-94.5 32h-83v-317q20 -2 68 -2q138 0 138 181z
" />
    <glyph glyph-name="uni0463" unicode="&#x463;" horiz-adv-x="354" 
d="M299 264.5q40 -26.5 40 -102.5q0 -72 -27.5 -107.5t-63.5 -45t-80 -9.5h-104v459h-64q0 27 2 34t10 7h52v131q0 14 7 17t36 3v-151h119q0 -28 -1 -34.5t-8 -6.5h-110v-168h75q77 0 117 -26.5zM262 61q30 25 30 101q0 40 -14.5 60t-40 26.5t-67.5 6.5h-63v-218l67 -1
q58 0 88 25z" />
    <glyph glyph-name="uni046A" unicode="&#x46a;" horiz-adv-x="607" 
d="M583 10q0 -6 -4 -8.5t-14 -2.5q-17 0 -27 1l-46 214q-15 71 -46.5 102t-85.5 31h-34v-335q0 -7 -2 -9t-13 -2.5t-30 -0.5v347h-35q-54 0 -85.5 -31t-45.5 -102l-46 -214q-9 -1 -27 -1q-11 0 -15.5 3.5t-3.5 12.5l46 210q15 78 57.5 120t111.5 44l-176 294l-4 10q0 7 19 7
h470l-178 -311q139 -4 168 -164l46 -210v-5zM479 660h-353l161 -271h32z" />
    <glyph glyph-name="uni046B" unicode="&#x46b;" horiz-adv-x="544" 
d="M521 8q0 -5 -4 -7t-13 -2q-18 0 -26 1l-41 155q-13 49 -36 68t-72 19h-35v-232q0 -6 -2 -7.5t-12.5 -2t-28.5 -0.5v242h-37q-49 0 -74 -19.5t-36 -67.5l-37 -155q-9 -1 -27 -1q-11 0 -14.5 3t-2.5 10l37 147q14 65 51.5 93.5t97.5 29.5l-147 204q-4 6 -4 8q0 6 16 6h414
l-154 -218q59 -1 95 -28.5t52 -91.5l40 -150v-4zM417 462h-287l128 -180h29z" />
    <glyph glyph-name="uni0474" unicode="&#x474;" horiz-adv-x="450" 
d="M184 16l-178 671l-1 6q0 7 11 7h35l122 -458q14 -56 36 -165l6 -32h1q23 124 40 197l97 380q10 42 34.5 60t64.5 18q9 0 9 -8v-32q-28 0 -43 -11t-23 -42l-155 -609q-2 0 -10.5 -1t-22.5 -1q-20 0 -23 20z" />
    <glyph glyph-name="uni0475" unicode="&#x475;" horiz-adv-x="379" 
d="M150 41l-122 444q-2 8 0.5 11t14 3.5t30.5 0.5l48 -187q21 -78 39 -158t23 -103h1q4 23 21.5 103.5t38.5 159.5l30 121q14 64 81 64q7 0 7 -7v-30q-20 0 -31 -8t-17 -32l-113 -430q-6 -1 -29 -1q-8 0 -22 49z" />
    <glyph glyph-name="uni0490" unicode="&#x490;" horiz-adv-x="312" 
d="M59 688q0 3 3 7.5t10 4.5h181q7 75 15 110q14 0 20 -2.5t6 -10.5v-97q0 -29 -1 -35t-7 -6h-182v-647q0 -3 -2 -7.5t-10 -4.5h-33v688z" />
    <glyph glyph-name="uni0491" unicode="&#x491;" horiz-adv-x="282" 
d="M62 482q0 12 5 15t21 3h142q2 26 6.5 65t8.5 56q15 0 21 -3.5t6 -13.5v-104q0 -27 -1.5 -33.5t-10.5 -6.5h-153v-447q0 -7 -2 -9.5t-13 -3t-30 -0.5v482z" />
    <glyph glyph-name="uni049A" unicode="&#x49a;" horiz-adv-x="410" 
d="M366 -1l-47 1l-51 216q-14 65 -43 99t-65 34h-55v-337q0 -7 -2 -9t-13.5 -2.5t-30.5 -0.5v688q0 7 2 9t13.5 2.5t30.5 0.5v-307h60q26 0 47.5 22t34.5 63l68 220q10 2 29 2q10 0 13.5 -1.5t3.5 -6.5q0 -2 -2 -10l-70 -213q-11 -34 -28.5 -58.5t-38.5 -36.5q33 -18 57 -56
t35 -90l48 -185h47v-190q0 -8 -6.5 -10t-21.5 -2q-13 70 -15 158z" />
    <glyph glyph-name="uni049B" unicode="&#x49b;" horiz-adv-x="366" 
d="M331 -1l-43 1q-10 134 -46.5 193.5t-83.5 59.5h-51v-243q0 -6 -2 -7.5t-13 -2t-30 -0.5v490q0 6 2 7.5t13 2t30 0.5v-204h54q38 0 69 50.5t57 151.5q10 2 28 2q13 0 15.5 -3t0.5 -12q-3 -9 -22 -65.5t-43 -92t-52 -49.5q45 -20 77 -82.5t43 -152.5h40v-190q0 -8 -6.5 -10
t-21.5 -2q-13 70 -15 158z" />
    <glyph glyph-name="uni049C" unicode="&#x49c;" horiz-adv-x="427" 
d="M388 8q0 -6 -4.5 -7.5t-14.5 -1.5q-19 0 -29 1l-51 210q-14 60 -39.5 93.5t-57.5 38.5v-115q0 -6 -1.5 -7.5t-9.5 -2t-21 -0.5v126h-55v-331q0 -7 -2 -9t-13.5 -2.5t-30.5 -0.5v688q0 7 2 9t13.5 2.5t30.5 0.5v-313h55v117q0 6 1.5 7.5t9.5 2t21 0.5v-127q25 2 45 24
t31 61l69 226q10 2 28 2q10 0 14 -2t4 -6q0 -2 -2 -10l-70 -219q-11 -35 -29 -59.5t-39 -35.5q34 -18 57.5 -55.5t35.5 -91.5l51 -206q1 -3 1 -7z" />
    <glyph glyph-name="uni049D" unicode="&#x49d;" horiz-adv-x="384" 
d="M356 12q0 -8 -3.5 -10.5t-14.5 -2.5q-18 0 -27 1l-46 150q-23 85 -82 93v-104q0 -7 -3.5 -8t-26.5 -1v114h-50v-234q0 -6 -2 -7.5t-12.5 -2t-29.5 -0.5v490q0 6 2 7.5t12.5 2t29.5 0.5v-215h50v99q0 6 1.5 7.5t8.5 2t20 0.5v-108q45 6 64 58l60 154q10 2 27 2
q10 0 13.5 -1t3.5 -5l-2 -8l-61 -150q-21 -51 -58 -68q55 -25 81 -110z" />
    <glyph glyph-name="uni04A2" unicode="&#x4a2;" horiz-adv-x="455" 
d="M389 0h-52v360h-233v-348q0 -7 -2 -9t-13 -2.5t-30 -0.5v688q0 7 2 9t13 2.5t30 0.5v-296h233v284q0 6 2 8.5t13 3t30 0.5v-657h50v-190q0 -8 -6.5 -10t-21.5 -2q-13 69 -15 159z" />
    <glyph glyph-name="uni04A3" unicode="&#x4a3;" horiz-adv-x="426" 
d="M360 0h-53v229h-200v-217q0 -7 -2 -9t-13 -2.5t-30 -0.5v488q0 7 2 9t13 2.5t30 0.5v-230h200v218q0 7 2 9t13 2.5t30 0.5v-457h51v-190q0 -8 -6.5 -10t-21.5 -2q-13 69 -15 159z" />
    <glyph glyph-name="uni04B0" unicode="&#x4b0;" horiz-adv-x="360" 
d="M159 235h-99q-2 8 -2 22q2 22 19 22h82v8l-153 405q-2 4 0.5 5.5t15 2t34.5 0.5l52 -145q21 -56 47.5 -137.5t27.5 -90.5q1 7 25.5 83t48.5 145l48 136q2 5 4.5 6.5t14.5 2t31 0.5l-151 -412v-9h102q3 -12 3 -21q-2 -23 -18 -23h-87v-223q0 -7 -2 -9t-13 -2.5t-30 -0.5
v235z" />
    <glyph glyph-name="uni04B1" unicode="&#x4b1;" horiz-adv-x="361" 
d="M161 -44h-97q-3 8 -3 22q2 22 19 22h81v16l-135 469q-2 8 0.5 11t14 3.5t30.5 0.5l47 -177q21 -78 41 -159.5t25 -105.5h1q5 24 23 106t39 161l42 162q2 7 4.5 9.5t13.5 3t29 0.5l-131 -485v-15h104q4 -11 4 -21q-2 -23 -19 -23h-89v-134q0 -7 -1.5 -9t-12 -2.5
t-30.5 -0.5v146z" />
    <glyph glyph-name="uni04B8" unicode="&#x4b8;" horiz-adv-x="420" 
d="M318 696.5q2 2.5 12.5 3t29.5 0.5v-688q0 -7 -2 -9t-12.5 -2.5t-29.5 -0.5v302q-57 -15 -104 -18v-116q0 -6 -1.5 -7.5t-9 -2t-20.5 -0.5v125q-71 2 -107.5 44.5t-37.5 134.5v226q0 7 2 9t13 2.5t30 0.5v-229q-1 -137 100 -145v118q0 6 1.5 7.5t9 2t20.5 0.5v-129
q52 3 104 22v341q0 6 2 8.5z" />
    <glyph glyph-name="uni04B9" unicode="&#x4b9;" horiz-adv-x="386" 
d="M322 3q-2 -2 -13 -2.5t-30 -0.5v208q-36 -12 -83 -15v-103q0 -7 -3.5 -8t-25.5 -1v111q-67 2 -99.5 33.5t-32.5 101.5v161q0 7 2 9t13 2.5t30 0.5v-165q0 -52 20 -76t67 -27v104q0 7 3.5 8t25.5 1v-112q42 1 83 17v238q0 7 2 9t13 2.5t30 0.5v-488q0 -7 -2 -9z" />
    <glyph glyph-name="uni04D8" unicode="&#x4d8;" horiz-adv-x="424" 
d="M296 686q40 -24 63.5 -94.5t23.5 -203.5q0 -167 -30 -255t-74 -115.5t-101 -27.5q-74 0 -108 55.5t-34 166.5q0 84 10 157q102 21 257 21h31q0 116 -17.5 175.5t-48.5 79t-80 19.5q-76 0 -132 -37q-7 21 -7 34q0 9 21.5 21t55.5 20t69 8q61 0 101 -24zM252.5 57
q31.5 22 54.5 91t26 200q-54 0 -125 -4t-120 -15q-5 -45 -5 -112q0 -89 22.5 -135.5t76.5 -46.5q39 0 70.5 22z" />
    <glyph glyph-name="uni04D9" unicode="&#x4d9;" horiz-adv-x="379" 
d="M262 493q35 -17 55.5 -68t20.5 -147q0 -121 -26 -184.5t-64.5 -83.5t-88.5 -20q-64 0 -94.5 41.5t-30.5 116.5q0 73 8 116q59 11 131 14.5t120 2.5q0 78 -15 118t-42 53.5t-69 13.5q-35 0 -67.5 -9.5t-55.5 -25.5q-6 17 -6 32q0 10 19 21.5t50 18.5t66 7q54 0 89 -17z
M251 72.5q36 41.5 41 169.5h-32q-120 0 -178 -14q-4 -33 -4 -69q1 -66 19 -97t65 -31q53 0 89 41.5z" />
    <glyph glyph-name="Wgrave" unicode="&#x1e80;" horiz-adv-x="638" 
d="M635 700l-145 -707q-5 0 -13.5 -1.5t-19.5 -1.5q-15 0 -25 49l-85 362q-6 28 -12 66.5t-11 70.5l-6 40q-16 -111 -27 -175l-87 -410q-18 -2 -36 -2q-14 0 -25 61l-137 630l-1 8q0 10 10 10h35l100 -459q12 -61 23 -133l8 -50h3q8 87 28 183l82 404q3 10 5 13.5t9 3.5h33
l93 -421q10 -44 15.5 -81t7.5 -48q2 -14 8 -52h3q1 9 5 34q14 103 22 147l90 441q2 10 4.5 14t9.5 4h36zM296.5 832.5q-47.5 36.5 -54.5 43.5q1 10 7.5 23.5t14.5 13.5q4 0 51.5 -39.5t85.5 -77.5q-2 -4 -8 -15t-10 -11q-39 26 -86.5 62.5z" />
    <glyph glyph-name="wgrave" unicode="&#x1e81;" horiz-adv-x="557" 
d="M487.5 496.5q2.5 2.5 13.5 3t30 0.5q-18 -79 -67 -293t-50 -214l-27 -1q-4 0 -12 15.5t-14 39.5l-17 69q-35 142 -57 255l-8 35q-25 -139 -61 -290l-29 -123l-33 -1q-9 0 -21 49q-29 123 -62 258.5t-46 187.5q-2 7 0.5 9.5t14.5 3t31 0.5l44 -190q18 -81 32.5 -155
t18.5 -95h3q2 11 35 166l14 64l36 180q1 7 4.5 9.5t11.5 2.5h29l44 -195q18 -71 33 -139t19 -88h3q5 37 18 109.5t28 140.5l38 177q1 7 3.5 9.5zM256.5 632.5q-47.5 36.5 -54.5 43.5q1 10 7.5 23.5t14.5 13.5q4 0 51.5 -39.5t85.5 -77.5q-2 -4 -8 -15t-10 -11
q-39 26 -86.5 62.5z" />
    <glyph glyph-name="Wacute" unicode="&#x1e82;" horiz-adv-x="638" 
d="M635 700l-145 -707q-5 0 -13.5 -1.5t-19.5 -1.5q-15 0 -25 49l-85 362q-6 28 -12 66.5t-11 70.5l-6 40q-16 -111 -27 -175l-87 -410q-18 -2 -36 -2q-14 0 -25 61l-137 630l-1 8q0 10 10 10h35l100 -459q12 -61 23 -133l8 -50h3q8 87 28 183l82 404q3 10 5 13.5t9 3.5h33
l93 -421q10 -44 15.5 -81t7.5 -48q2 -14 8 -52h3q1 9 5 34q14 103 22 147l90 441q2 10 4.5 14t9.5 4h36zM250 783.5q-6 11.5 -8 15.5q38 38 86 77.5t51 39.5q8 0 14.5 -13.5t7.5 -23.5q-6 -7 -53.5 -43.5t-87.5 -63.5q-4 0 -10 11.5z" />
    <glyph glyph-name="wacute" unicode="&#x1e83;" horiz-adv-x="557" 
d="M487.5 496.5q2.5 2.5 13.5 3t30 0.5q-18 -79 -67 -293t-50 -214l-27 -1q-4 0 -12 15.5t-14 39.5l-17 69q-35 142 -57 255l-8 35q-25 -139 -61 -290l-29 -123l-33 -1q-9 0 -21 49q-29 123 -62 258.5t-46 187.5q-2 7 0.5 9.5t14.5 3t31 0.5l44 -190q18 -81 32.5 -155
t18.5 -95h3q2 11 35 166l14 64l36 180q1 7 4.5 9.5t11.5 2.5h29l44 -195q18 -71 33 -139t19 -88h3q5 37 18 109.5t28 140.5l38 177q1 7 3.5 9.5zM210 583.5q-6 11.5 -8 15.5q38 38 86 77.5t51 39.5q8 0 14.5 -13.5t7.5 -23.5q-6 -7 -53.5 -43.5t-87.5 -63.5q-4 0 -10 11.5z
" />
    <glyph glyph-name="Wdieresis" unicode="&#x1e84;" horiz-adv-x="638" 
d="M635 700l-145 -707q-5 0 -13.5 -1.5t-19.5 -1.5q-15 0 -25 49l-85 362q-6 28 -12 66.5t-11 70.5l-6 40q-16 -111 -27 -175l-87 -410q-18 -2 -36 -2q-14 0 -25 61l-137 630l-1 8q0 10 10 10h35l100 -459q12 -61 23 -133l8 -50h3q8 87 28 183l82 404q3 10 5 13.5t9 3.5h33
l93 -421q10 -44 15.5 -81t7.5 -48q2 -14 8 -52h3q1 9 5 34q14 103 22 147l90 441q2 10 4.5 14t9.5 4h36zM239 838q0 39 28 39q14 0 20 -9.5t5 -29.5q0 -39 -28 -39q-26 0 -25 39zM351.5 808.5q-6.5 9.5 -6.5 29.5q2 39 29 39q14 0 20 -9.5t5 -29.5q0 -39 -28 -39
q-13 0 -19.5 9.5z" />
    <glyph glyph-name="wdieresis" unicode="&#x1e85;" horiz-adv-x="557" 
d="M487.5 496.5q2.5 2.5 13.5 3t30 0.5q-18 -79 -67 -293t-50 -214l-27 -1q-4 0 -12 15.5t-14 39.5l-17 69q-35 142 -57 255l-8 35q-25 -139 -61 -290l-29 -123l-33 -1q-9 0 -21 49q-29 123 -62 258.5t-46 187.5q-2 7 0.5 9.5t14.5 3t31 0.5l44 -190q18 -81 32.5 -155
t18.5 -95h3q2 11 35 166l14 64l36 180q1 7 4.5 9.5t11.5 2.5h29l44 -195q18 -71 33 -139t19 -88h3q5 37 18 109.5t28 140.5l38 177q1 7 3.5 9.5zM199 638q0 39 28 39q14 0 20 -9.5t5 -29.5q0 -39 -28 -39q-26 0 -25 39zM311.5 608.5q-6.5 9.5 -6.5 29.5q2 39 29 39
q14 0 20 -9.5t5 -29.5q0 -39 -28 -39q-13 0 -19.5 9.5z" />
    <glyph glyph-name="uni1EA0" unicode="&#x1ea0;" horiz-adv-x="436" 
d="M428 8q0 -9 -19 -9q-17 0 -27 1l-54 199h-220l-50 -190q-1 -7 -5.5 -8.5t-16.5 -1.5q-16 0 -28 1l192 698q2 6 15 6q11 0 19 -2l193 -690zM317 242l-54 200q-41 151 -45 197q-6 -46 -46 -197l-53 -200h198zM198 -142.5q-6 9.5 -6 29.5q2 38 28 38q14 0 20 -9t6 -29
q-2 -39 -29 -39q-13 0 -19 9.5z" />
    <glyph glyph-name="uni1EA1" unicode="&#x1ea1;" horiz-adv-x="372" 
d="M78 17q-39 29 -39 121q0 96 42 129t113 33q54 0 84 -11v91q0 50 -21.5 68t-63.5 18q-47 0 -86.5 -7.5t-61.5 -17.5q-6 12 -6 26t7 18q17 10 61.5 17.5t95.5 7.5q61 0 90.5 -27.5t29.5 -93.5v-62q0 -183 -6 -300q-57 -37 -134 -37q-66 -2 -105 27zM239.5 38
q23.5 8 33.5 17q5 56 5 199q-29 10 -71 10q-38 0 -63.5 -8.5t-42 -35.5t-16.5 -81q0 -48 14 -72t36 -30.5t56 -6.5q25 0 48.5 8zM167 -142.5q-6 9.5 -6 29.5q2 38 28 38q14 0 20 -9t6 -29q-2 -39 -29 -39q-13 0 -19 9.5z" />
    <glyph glyph-name="uni1EA2" unicode="&#x1ea2;" horiz-adv-x="436" 
d="M428 8q0 -9 -19 -9q-17 0 -27 1l-54 199h-220l-50 -190q-1 -7 -5.5 -8.5t-16.5 -1.5q-16 0 -28 1l192 698q2 6 15 6q11 0 19 -2l193 -690zM317 242l-54 200q-41 151 -45 197q-6 -46 -46 -197l-53 -200h198zM195.5 753q-0.5 3 -0.5 7q0 10 3 15q4 7 18 19q11 8 16 15t5 22
q0 42 -40 42q-22 0 -39 -12v35q0 4 11.5 9t26.5 5q41 0 61.5 -19.5t20.5 -55.5q0 -23 -10 -35.5t-21 -19.5t-14 -9q-4 -4 -5.5 -11.5t-1.5 -9.5q-2 -2 -18 -2l-12 1q0 1 -0.5 4z" />
    <glyph glyph-name="uni1EA3" unicode="&#x1ea3;" horiz-adv-x="372" 
d="M78 17q-39 29 -39 121q0 96 42 129t113 33q54 0 84 -11v91q0 50 -21.5 68t-63.5 18q-47 0 -86.5 -7.5t-61.5 -17.5q-6 12 -6 26t7 18q17 10 61.5 17.5t95.5 7.5q61 0 90.5 -27.5t29.5 -93.5v-62q0 -183 -6 -300q-57 -37 -134 -37q-66 -2 -105 27zM239.5 38
q23.5 8 33.5 17q5 56 5 199q-29 10 -71 10q-38 0 -63.5 -8.5t-42 -35.5t-16.5 -81q0 -48 14 -72t36 -30.5t56 -6.5q25 0 48.5 8zM158.5 553q-0.5 3 -0.5 7q0 10 3 15q4 7 18 19q11 8 16 15t5 22q0 42 -40 42q-22 0 -39 -12v35q0 4 11.5 9t26.5 5q41 0 61.5 -19.5t20.5 -55.5
q0 -23 -10 -35.5t-21 -19.5t-14 -9q-4 -4 -5.5 -11.5t-1.5 -9.5q-2 -2 -18 -2l-12 1q0 1 -0.5 4z" />
    <glyph glyph-name="uni1EA4" unicode="&#x1ea4;" horiz-adv-x="436" 
d="M466 978.5q6 -12.5 7 -22.5q-4 -6 -49.5 -41t-85.5 -62q-4 0 -9.5 11l-7.5 15q37 37 82.5 74.5t48.5 37.5q8 0 14 -12.5zM104 788l106 105q6 2 12 2q9 0 17 -8q14 -15 53 -55t39 -43q0 -5 -11 -12t-23 -7q-12 12 -43 46t-33 40q-12 -13 -46 -49t-41 -36q-20 0 -30 17z
M427 12l1 -4q0 -9 -19 -9q-17 0 -27 1l-54 199h-220l-50 -190q-1 -7 -5.5 -8.5t-16.5 -1.5q-16 0 -28 1l192 698q2 6 15 6q11 0 19 -2zM317 242l-54 200q-41 151 -45 197q-6 -46 -46 -197l-53 -200h198z" />
    <glyph glyph-name="uni1EA5" unicode="&#x1ea5;" horiz-adv-x="372" 
d="M291.5 664l-7.5 15q37 37 82.5 74.5t48.5 37.5q8 0 14 -12.5t7 -22.5q-4 -6 -49.5 -41t-85.5 -62q-4 0 -9.5 11zM217 616q-31 34 -33 40q-12 -13 -46 -49t-41 -36q-20 0 -30 17l106 105q6 2 12 2q9 0 17 -8q14 -15 53 -55t39 -43q0 -5 -11 -12t-23 -7q-12 12 -43 46z
M78 17q-39 29 -39 121q0 96 42 129t113 33q54 0 84 -11v91q0 50 -21.5 68t-63.5 18q-47 0 -86.5 -7.5t-61.5 -17.5q-6 12 -6 26t7 18q17 10 61.5 17.5t95.5 7.5q61 0 90.5 -27.5t29.5 -93.5v-62q0 -183 -6 -300q-57 -37 -134 -37q-66 -2 -105 27zM239.5 38q23.5 8 33.5 17
q5 56 5 199q-29 10 -71 10q-38 0 -63.5 -8.5t-42 -35.5t-16.5 -81q0 -48 14 -72t36 -30.5t56 -6.5q25 0 48.5 8z" />
    <glyph glyph-name="uni1EA6" unicode="&#x1ea6;" horiz-adv-x="436" 
d="M319.5 900.5q-5.5 -10.5 -9.5 -10.5q-38 26 -83.5 61t-51.5 41q1 9 7.5 22.5t13.5 13.5q4 0 49.5 -38t81.5 -75q-2 -4 -7.5 -14.5zM104 788l106 105q6 2 12 2q9 0 17 -8q14 -15 53 -55t39 -43q0 -5 -11 -12t-23 -7q-12 12 -43 46t-33 40q-12 -13 -46 -49t-41 -36
q-20 0 -30 17zM428 8q0 -9 -19 -9q-17 0 -27 1l-54 199h-220l-50 -190q-1 -7 -5.5 -8.5t-16.5 -1.5q-16 0 -28 1l192 698q2 6 15 6q11 0 19 -2l193 -690zM317 242l-54 200q-41 151 -45 197q-6 -46 -46 -197l-53 -200h198z" />
    <glyph glyph-name="uni1EA7" unicode="&#x1ea7;" horiz-adv-x="372" 
d="M189.5 751q-45.5 35 -51.5 41q1 9 7.5 22.5t13.5 13.5q4 0 49.5 -38t81.5 -75q-2 -4 -7.5 -14.5t-9.5 -10.5q-38 26 -83.5 61zM217 616q-31 34 -33 40q-12 -13 -46 -49t-41 -36q-20 0 -30 17l106 105q6 2 12 2q9 0 17 -8q14 -15 53 -55t39 -43q0 -5 -11 -12t-23 -7
q-12 12 -43 46zM78 17q-39 29 -39 121q0 96 42 129t113 33q54 0 84 -11v91q0 50 -21.5 68t-63.5 18q-47 0 -86.5 -7.5t-61.5 -17.5q-6 12 -6 26t7 18q17 10 61.5 17.5t95.5 7.5q61 0 90.5 -27.5t29.5 -93.5v-62q0 -183 -6 -300q-57 -37 -134 -37q-66 -2 -105 27zM239.5 38
q23.5 8 33.5 17q5 56 5 199q-29 10 -71 10q-38 0 -63.5 -8.5t-42 -35.5t-16.5 -81q0 -48 14 -72t36 -30.5t56 -6.5q25 0 48.5 8z" />
    <glyph glyph-name="uni1EA8" unicode="&#x1ea8;" horiz-adv-x="436" 
d="M323 983q-21 0 -37 -11v33q0 4 11 9t25 5q39 0 59 -18.5t20 -53.5q0 -22 -9.5 -34t-19.5 -18.5t-14 -9.5t-5.5 -10.5t-1.5 -9.5q-2 -2 -17 -2l-12 1q0 1 -0.5 3.5t-0.5 6.5q0 8 3 15q6 9 18 18q10 7 15 14t5 22q0 40 -39 40zM104 788l106 105q6 2 12 2q9 0 17 -8
q14 -15 53 -55t39 -43q0 -5 -11 -12t-23 -7q-12 12 -43 46t-33 40q-12 -13 -46 -49t-41 -36q-20 0 -30 17zM428 8q0 -9 -19 -9q-17 0 -27 1l-54 199h-220l-50 -190q-1 -7 -5.5 -8.5t-16.5 -1.5q-16 0 -28 1l192 698q2 6 15 6q11 0 19 -2l193 -690zM317 242l-54 200
q-41 151 -45 197q-6 -46 -46 -197l-53 -200h198z" />
    <glyph glyph-name="uni1EA9" unicode="&#x1ea9;" horiz-adv-x="372" 
d="M284.5 667.5q-0.5 2.5 -0.5 6.5q0 8 3 15q6 9 18 18q10 7 15 14t5 22q0 40 -39 40q-21 0 -37 -11v33q0 4 11 9t25 5q39 0 59 -18.5t20 -53.5q0 -22 -9.5 -34t-19.5 -18.5t-14 -9.5t-5.5 -10.5t-1.5 -9.5q-2 -2 -17 -2l-12 1q0 1 -0.5 3.5zM217 616q-31 34 -33 40
q-12 -13 -46 -49t-41 -36q-20 0 -30 17l106 105q6 2 12 2q9 0 17 -8q14 -15 53 -55t39 -43q0 -5 -11 -12t-23 -7q-12 12 -43 46zM78 17q-39 29 -39 121q0 96 42 129t113 33q54 0 84 -11v91q0 50 -21.5 68t-63.5 18q-47 0 -86.5 -7.5t-61.5 -17.5q-6 12 -6 26t7 18
q17 10 61.5 17.5t95.5 7.5q61 0 90.5 -27.5t29.5 -93.5v-62q0 -183 -6 -300q-57 -37 -134 -37q-66 -2 -105 27zM239.5 38q23.5 8 33.5 17q5 56 5 199q-29 10 -71 10q-38 0 -63.5 -8.5t-42 -35.5t-16.5 -81q0 -48 14 -72t36 -30.5t56 -6.5q25 0 48.5 8z" />
    <glyph glyph-name="uni1EAA" unicode="&#x1eaa;" horiz-adv-x="436" 
d="M108 934q-8 10 -8 12q21 35 43.5 49t50.5 14q15 0 25 -6.5t21 -19.5q11 -12 20 -18t23 -6q22 0 34.5 9.5t21.5 22.5t13 13q7 0 13 -11t6 -14q-33 -63 -93 -63q-21 0 -33 8t-26 24q-10 11 -17 16t-16 5q-17 0 -28.5 -9.5t-21 -22.5t-12.5 -13q-8 0 -16 10zM239 887
q14 -15 53 -55t39 -43q0 -5 -11 -12t-23 -7q-12 12 -43 46t-33 40q-12 -13 -46 -49t-41 -36q-20 0 -30 17l106 105q6 2 12 2q9 0 17 -8zM428 8q0 -9 -19 -9q-17 0 -27 1l-54 199h-220l-50 -190q-1 -7 -5.5 -8.5t-16.5 -1.5q-16 0 -28 1l192 698q2 6 15 6q11 0 19 -2
l193 -690zM317 242l-54 200q-41 151 -45 197q-6 -46 -46 -197l-53 -200h198z" />
    <glyph glyph-name="uni1EAB" unicode="&#x1eab;" horiz-adv-x="372" 
d="M208 724q-12 8 -26 24q-10 11 -17 16t-16 5q-17 0 -28.5 -9.5t-21 -22.5t-12.5 -13q-8 0 -16 10t-8 12q21 35 43.5 49t50.5 14q15 0 25 -6.5t21 -19.5q11 -12 20 -18t23 -6q22 0 34.5 9.5t21.5 22.5t13 13q7 0 13 -11t6 -14q-33 -63 -93 -63q-21 0 -33 8zM217 616
q-31 34 -33 40q-12 -13 -46 -49t-41 -36q-20 0 -30 17l106 105q6 2 12 2q9 0 17 -8q14 -15 53 -55t39 -43q0 -5 -11 -12t-23 -7q-12 12 -43 46zM78 17q-39 29 -39 121q0 96 42 129t113 33q54 0 84 -11v91q0 50 -21.5 68t-63.5 18q-47 0 -86.5 -7.5t-61.5 -17.5q-6 12 -6 26
t7 18q17 10 61.5 17.5t95.5 7.5q61 0 90.5 -27.5t29.5 -93.5v-62q0 -183 -6 -300q-57 -37 -134 -37q-66 -2 -105 27zM239.5 38q23.5 8 33.5 17q5 56 5 199q-29 10 -71 10q-38 0 -63.5 -8.5t-42 -35.5t-16.5 -81q0 -48 14 -72t36 -30.5t56 -6.5q25 0 48.5 8z" />
    <glyph glyph-name="uni1EAC" unicode="&#x1eac;" horiz-adv-x="436" 
d="M428 8q0 -9 -19 -9q-17 0 -27 1l-54 199h-220l-50 -190q-1 -7 -5.5 -8.5t-16.5 -1.5q-16 0 -28 1l192 698q2 6 15 6q11 0 19 -2l193 -690zM317 242l-54 200q-41 151 -45 197q-6 -46 -46 -197l-53 -200h198zM198 -142.5q-6 9.5 -6 29.5q2 38 28 38q14 0 20 -9t6 -29
q-2 -39 -29 -39q-13 0 -19 9.5zM256.5 821q-32.5 35 -35.5 41q-12 -14 -47.5 -51t-42.5 -37q-18 0 -32 17l111 110q6 2 12 2q10 0 18 -8q15 -15 55.5 -57t40.5 -46q0 -5 -11.5 -12t-23.5 -7q-12 13 -44.5 48z" />
    <glyph glyph-name="uni1EAD" unicode="&#x1ead;" horiz-adv-x="372" 
d="M78 17q-39 29 -39 121q0 96 42 129t113 33q54 0 84 -11v91q0 50 -21.5 68t-63.5 18q-47 0 -86.5 -7.5t-61.5 -17.5q-6 12 -6 26t7 18q17 10 61.5 17.5t95.5 7.5q61 0 90.5 -27.5t29.5 -93.5v-62q0 -183 -6 -300q-57 -37 -134 -37q-66 -2 -105 27zM239.5 38
q23.5 8 33.5 17q5 56 5 199q-29 10 -71 10q-38 0 -63.5 -8.5t-42 -35.5t-16.5 -81q0 -48 14 -72t36 -30.5t56 -6.5q25 0 48.5 8zM167 -142.5q-6 9.5 -6 29.5q2 38 28 38q14 0 20 -9t6 -29q-2 -39 -29 -39q-13 0 -19 9.5zM219.5 621q-32.5 35 -35.5 41q-12 -14 -47.5 -51
t-42.5 -37q-18 0 -32 17l111 110q6 2 12 2q10 0 18 -8q15 -15 55.5 -57t40.5 -46q0 -5 -11.5 -12t-23.5 -7q-12 13 -44.5 48z" />
    <glyph glyph-name="uni1EAE" unicode="&#x1eae;" horiz-adv-x="436" 
d="M207.5 928l-7.5 15q37 37 82.5 74.5t48.5 37.5q8 0 14 -12.5t7 -22.5q-4 -6 -49.5 -41t-85.5 -62q-4 0 -9.5 11zM158 791.5q-26 19.5 -40.5 45.5t-14.5 41q0 9 6.5 14.5t19.5 8.5q13 -36 33.5 -62t54.5 -26q33 0 50 21t31 56q4 8 12 8t15 -6.5t8 -14.5
q-35 -105 -117 -105q-32 0 -58 19.5zM428 8q0 -9 -19 -9q-17 0 -27 1l-54 199h-220l-50 -190q-1 -7 -5.5 -8.5t-16.5 -1.5q-16 0 -28 1l192 698q2 6 15 6q11 0 19 -2l193 -690zM317 242l-54 200q-41 151 -45 197q-6 -46 -46 -197l-53 -200h198z" />
    <glyph glyph-name="uni1EAF" unicode="&#x1eaf;" horiz-adv-x="372" 
d="M170.5 728l-7.5 15q37 37 82.5 74.5t48.5 37.5q8 0 14 -12.5t7 -22.5q-4 -6 -49.5 -41t-85.5 -62q-4 0 -9.5 11zM121 591.5q-26 19.5 -40.5 45.5t-14.5 41q0 9 6.5 14.5t19.5 8.5q13 -36 33.5 -62t54.5 -26q33 0 50 21t31 56q4 8 12 8t15 -6.5t8 -14.5
q-35 -105 -117 -105q-32 0 -58 19.5zM78 17q-39 29 -39 121q0 96 42 129t113 33q54 0 84 -11v91q0 50 -21.5 68t-63.5 18q-47 0 -86.5 -7.5t-61.5 -17.5q-6 12 -6 26t7 18q17 10 61.5 17.5t95.5 7.5q61 0 90.5 -27.5t29.5 -93.5v-62q0 -183 -6 -300q-57 -37 -134 -37
q-66 -2 -105 27zM239.5 38q23.5 8 33.5 17q5 56 5 199q-29 10 -71 10q-38 0 -63.5 -8.5t-42 -35.5t-16.5 -81q0 -48 14 -72t36 -30.5t56 -6.5q25 0 48.5 8z" />
    <glyph glyph-name="uni1EB0" unicode="&#x1eb0;" horiz-adv-x="436" 
d="M235.5 923.5q-5.5 -10.5 -9.5 -10.5q-38 26 -83.5 61t-51.5 41q1 9 7.5 22.5t13.5 13.5q4 0 49.5 -38t81.5 -75q-2 -4 -7.5 -14.5zM162.5 839q20.5 -26 54.5 -26q33 0 50 21t31 56q4 8 12 8t15 -6.5t8 -14.5q-35 -105 -117 -105q-32 0 -58 19.5t-40.5 45.5t-14.5 41
q0 9 6.5 14.5t19.5 8.5q13 -36 33.5 -62zM428 8q0 -9 -19 -9q-17 0 -27 1l-54 199h-220l-50 -190q-1 -7 -5.5 -8.5t-16.5 -1.5q-16 0 -28 1l192 698q2 6 15 6q11 0 19 -2l193 -690zM317 242l-54 200q-41 151 -45 197q-6 -46 -46 -197l-53 -200h198z" />
    <glyph glyph-name="uni1EB1" unicode="&#x1eb1;" horiz-adv-x="372" 
d="M105.5 774q-45.5 35 -51.5 41q1 9 7.5 22.5t13.5 13.5q4 0 49.5 -38t81.5 -75q-2 -4 -7.5 -14.5t-9.5 -10.5q-38 26 -83.5 61zM121 591.5q-26 19.5 -40.5 45.5t-14.5 41q0 9 6.5 14.5t19.5 8.5q13 -36 33.5 -62t54.5 -26q33 0 50 21t31 56q4 8 12 8t15 -6.5t8 -14.5
q-35 -105 -117 -105q-32 0 -58 19.5zM78 17q-39 29 -39 121q0 96 42 129t113 33q54 0 84 -11v91q0 50 -21.5 68t-63.5 18q-47 0 -86.5 -7.5t-61.5 -17.5q-6 12 -6 26t7 18q17 10 61.5 17.5t95.5 7.5q61 0 90.5 -27.5t29.5 -93.5v-62q0 -183 -6 -300q-57 -37 -134 -37
q-66 -2 -105 27zM239.5 38q23.5 8 33.5 17q5 56 5 199q-29 10 -71 10q-38 0 -63.5 -8.5t-42 -35.5t-16.5 -81q0 -48 14 -72t36 -30.5t56 -6.5q25 0 48.5 8z" />
    <glyph glyph-name="uni1EB2" unicode="&#x1eb2;" horiz-adv-x="436" 
d="M201 1025q-21 0 -37 -11v33q0 4 11 9t25 5q39 0 59 -18.5t20 -53.5q0 -22 -9.5 -34t-19.5 -18.5t-14 -9.5t-5.5 -10.5t-1.5 -9.5q-2 -2 -17 -2l-12 1q0 1 -0.5 3.5t-0.5 6.5q0 8 3 15q6 9 18 18q10 7 15 14t5 22q0 40 -39 40zM158 791.5q-26 19.5 -40.5 45.5t-14.5 41
q0 9 6.5 14.5t19.5 8.5q13 -36 33.5 -62t54.5 -26q33 0 50 21t31 56q4 8 12 8t15 -6.5t8 -14.5q-35 -105 -117 -105q-32 0 -58 19.5zM428 8q0 -9 -19 -9q-17 0 -27 1l-54 199h-220l-50 -190q-1 -7 -5.5 -8.5t-16.5 -1.5q-16 0 -28 1l192 698q2 6 15 6q11 0 19 -2l193 -690z
M317 242l-54 200q-41 151 -45 197q-6 -46 -46 -197l-53 -200h198z" />
    <glyph glyph-name="uni1EB3" unicode="&#x1eb3;" horiz-adv-x="372" 
d="M162.5 709.5q-0.5 2.5 -0.5 6.5q0 8 3 15q6 9 18 18q10 7 15 14t5 22q0 40 -39 40q-21 0 -37 -11v33q0 4 11 9t25 5q39 0 59 -18.5t20 -53.5q0 -22 -9.5 -34t-19.5 -18.5t-14 -9.5t-5.5 -10.5t-1.5 -9.5q-2 -2 -17 -2l-12 1q0 1 -0.5 3.5zM121 591.5q-26 19.5 -40.5 45.5
t-14.5 41q0 9 6.5 14.5t19.5 8.5q13 -36 33.5 -62t54.5 -26q33 0 50 21t31 56q4 8 12 8t15 -6.5t8 -14.5q-35 -105 -117 -105q-32 0 -58 19.5zM78 17q-39 29 -39 121q0 96 42 129t113 33q54 0 84 -11v91q0 50 -21.5 68t-63.5 18q-47 0 -86.5 -7.5t-61.5 -17.5q-6 12 -6 26
t7 18q17 10 61.5 17.5t95.5 7.5q61 0 90.5 -27.5t29.5 -93.5v-62q0 -183 -6 -300q-57 -37 -134 -37q-66 -2 -105 27zM239.5 38q23.5 8 33.5 17q5 56 5 199q-29 10 -71 10q-38 0 -63.5 -8.5t-42 -35.5t-16.5 -81q0 -48 14 -72t36 -30.5t56 -6.5q25 0 48.5 8z" />
    <glyph glyph-name="uni1EB4" unicode="&#x1eb4;" horiz-adv-x="436" 
d="M90 952q-8 10 -8 12q21 35 43.5 49t50.5 14q15 0 25 -6.5t21 -19.5q11 -12 20 -18t23 -6q22 0 34.5 9.5t21.5 22.5t13 13q7 0 13 -11t6 -14q-33 -63 -93 -63q-21 0 -33 8t-26 24q-10 11 -17 16t-16 5q-17 0 -28.5 -9.5t-21 -22.5t-12.5 -13q-8 0 -16 10zM310 898
q8 0 15 -6.5t8 -14.5q-35 -105 -117 -105q-32 0 -58 19.5t-40.5 45.5t-14.5 41q0 9 6.5 14.5t19.5 8.5q13 -36 33.5 -62t54.5 -26q33 0 50 21t31 56q4 8 12 8zM428 8q0 -9 -19 -9q-17 0 -27 1l-54 199h-220l-50 -190q-1 -7 -5.5 -8.5t-16.5 -1.5q-16 0 -28 1l192 698
q2 6 15 6q11 0 19 -2l193 -690zM317 242l-54 200q-41 151 -45 197q-6 -46 -46 -197l-53 -200h198z" />
    <glyph glyph-name="uni1EB5" unicode="&#x1eb5;" horiz-adv-x="372" 
d="M190 742q-12 8 -26 24q-10 11 -17 16t-16 5q-17 0 -28.5 -9.5t-21 -22.5t-12.5 -13q-8 0 -16 10t-8 12q21 35 43.5 49t50.5 14q15 0 25 -6.5t21 -19.5q11 -12 20 -18t23 -6q22 0 34.5 9.5t21.5 22.5t13 13q7 0 13 -11t6 -14q-33 -63 -93 -63q-21 0 -33 8zM121 591.5
q-26 19.5 -40.5 45.5t-14.5 41q0 9 6.5 14.5t19.5 8.5q13 -36 33.5 -62t54.5 -26q33 0 50 21t31 56q4 8 12 8t15 -6.5t8 -14.5q-35 -105 -117 -105q-32 0 -58 19.5zM78 17q-39 29 -39 121q0 96 42 129t113 33q54 0 84 -11v91q0 50 -21.5 68t-63.5 18q-47 0 -86.5 -7.5
t-61.5 -17.5q-6 12 -6 26t7 18q17 10 61.5 17.5t95.5 7.5q61 0 90.5 -27.5t29.5 -93.5v-62q0 -183 -6 -300q-57 -37 -134 -37q-66 -2 -105 27zM239.5 38q23.5 8 33.5 17q5 56 5 199q-29 10 -71 10q-38 0 -63.5 -8.5t-42 -35.5t-16.5 -81q0 -48 14 -72t36 -30.5t56 -6.5
q25 0 48.5 8z" />
    <glyph glyph-name="uni1EB6" unicode="&#x1eb6;" horiz-adv-x="436" 
d="M428 8q0 -9 -19 -9q-17 0 -27 1l-54 199h-220l-50 -190q-1 -7 -5.5 -8.5t-16.5 -1.5q-16 0 -28 1l192 698q2 6 15 6q11 0 19 -2l193 -690zM317 242l-54 200q-41 151 -45 197q-6 -46 -46 -197l-53 -200h198zM198 -142.5q-6 9.5 -6 29.5q2 38 28 38q14 0 20 -9t6 -29
q-2 -39 -29 -39q-13 0 -19 9.5zM155 795.5q-27 20.5 -42 47t-15 42.5q0 10 7 15.5t21 8.5q32 -91 91 -91q34 0 52 21.5t33 58.5q4 8 12 8t15.5 -6.5t8.5 -15.5q-14 -45 -43.5 -77t-78.5 -32q-34 0 -61 20.5z" />
    <glyph glyph-name="uni1EB7" unicode="&#x1eb7;" horiz-adv-x="372" 
d="M78 17q-39 29 -39 121q0 96 42 129t113 33q54 0 84 -11v91q0 50 -21.5 68t-63.5 18q-47 0 -86.5 -7.5t-61.5 -17.5q-6 12 -6 26t7 18q17 10 61.5 17.5t95.5 7.5q61 0 90.5 -27.5t29.5 -93.5v-62q0 -183 -6 -300q-57 -37 -134 -37q-66 -2 -105 27zM239.5 38
q23.5 8 33.5 17q5 56 5 199q-29 10 -71 10q-38 0 -63.5 -8.5t-42 -35.5t-16.5 -81q0 -48 14 -72t36 -30.5t56 -6.5q25 0 48.5 8zM167 -142.5q-6 9.5 -6 29.5q2 38 28 38q14 0 20 -9t6 -29q-2 -39 -29 -39q-13 0 -19 9.5zM118 595.5q-27 20.5 -42 47t-15 42.5q0 10 7 15.5
t21 8.5q32 -91 91 -91q34 0 52 21.5t33 58.5q4 8 12 8t15.5 -6.5t8.5 -15.5q-14 -45 -43.5 -77t-78.5 -32q-34 0 -61 20.5z" />
    <glyph glyph-name="uni1EB8" unicode="&#x1eb8;" horiz-adv-x="344" 
d="M106 42h207q0 -29 -1.5 -35.5t-9.5 -6.5h-241v688q0 3 3 7.5t10 4.5h239q0 -29 -1 -35.5t-8 -6.5h-198v-254h185q0 -28 -1.5 -35t-8.5 -7h-175v-320zM152 -142.5q-6 9.5 -6 29.5q2 38 28 38q14 0 20 -9t6 -29q-2 -39 -29 -39q-13 0 -19 9.5z" />
    <glyph glyph-name="uni1EB9" unicode="&#x1eb9;" horiz-adv-x="379" 
d="M279.5 43.5q32.5 9.5 55.5 25.5q6 -16 6 -32q0 -10 -19 -21.5t-50 -18.5t-66 -7q-54 0 -89 17t-55.5 68t-20.5 147q0 121 26 184.5t64.5 83.5t88.5 20q64 0 94.5 -41.5t30.5 -116.5q0 -73 -8 -116q-59 -11 -131 -14.5t-120 -2.5q0 -78 15 -118t42 -53.5t69 -13.5
q35 0 67.5 9.5zM128 427.5q-36 -41.5 -41 -169.5h32q120 0 178 14q4 33 4 69q-1 66 -19 97t-65 31q-53 0 -89 -41.5zM170 -142.5q-6 9.5 -6 29.5q2 38 28 38q14 0 20 -9t6 -29q-2 -39 -29 -39q-13 0 -19 9.5z" />
    <glyph glyph-name="uni1EBA" unicode="&#x1eba;" horiz-adv-x="344" 
d="M106 42h207q0 -29 -1.5 -35.5t-9.5 -6.5h-241v688q0 3 3 7.5t10 4.5h239q0 -29 -1 -35.5t-8 -6.5h-198v-254h185q0 -28 -1.5 -35t-8.5 -7h-175v-320zM164.5 753q-0.5 3 -0.5 7q0 10 3 15q4 7 18 19q11 8 16 15t5 22q0 42 -40 42q-22 0 -39 -12v35q0 4 11.5 9t26.5 5
q41 0 61.5 -19.5t20.5 -55.5q0 -23 -10 -35.5t-21 -19.5t-14 -9q-4 -4 -5.5 -11.5t-1.5 -9.5q-2 -2 -18 -2l-12 1q0 1 -0.5 4z" />
    <glyph glyph-name="uni1EBB" unicode="&#x1ebb;" horiz-adv-x="379" 
d="M279.5 43.5q32.5 9.5 55.5 25.5q6 -16 6 -32q0 -10 -19 -21.5t-50 -18.5t-66 -7q-54 0 -89 17t-55.5 68t-20.5 147q0 121 26 184.5t64.5 83.5t88.5 20q64 0 94.5 -41.5t30.5 -116.5q0 -73 -8 -116q-59 -11 -131 -14.5t-120 -2.5q0 -78 15 -118t42 -53.5t69 -13.5
q35 0 67.5 9.5zM128 427.5q-36 -41.5 -41 -169.5h32q120 0 178 14q4 33 4 69q-1 66 -19 97t-65 31q-53 0 -89 -41.5zM186.5 553q-0.5 3 -0.5 7q0 10 3 15q4 7 18 19q11 8 16 15t5 22q0 42 -40 42q-22 0 -39 -12v35q0 4 11.5 9t26.5 5q41 0 61.5 -19.5t20.5 -55.5
q0 -23 -10 -35.5t-21 -19.5t-14 -9q-4 -4 -5.5 -11.5t-1.5 -9.5q-2 -2 -18 -2l-12 1q0 1 -0.5 4z" />
    <glyph glyph-name="uni1EBC" unicode="&#x1ebc;" horiz-adv-x="344" 
d="M106 42h207q0 -29 -1.5 -35.5t-9.5 -6.5h-241v688q0 3 3 7.5t10 4.5h239q0 -29 -1 -35.5t-8 -6.5h-198v-254h185q0 -28 -1.5 -35t-8.5 -7h-175v-320zM196 790.5q-13 8.5 -26 24.5l-8.5 8.5t-13 10t-13.5 3.5q-17 0 -29 -9.5t-22.5 -23.5t-13.5 -14q-8 0 -16.5 10.5
t-8.5 12.5q23 37 46.5 51.5t52.5 14.5q16 0 26.5 -7t21.5 -20q11 -12 20.5 -18.5t23.5 -6.5q24 0 37 10t22.5 23.5t12.5 13.5q8 0 14 -11.5t6 -14.5q-13 -25 -36 -45.5t-61 -20.5q-22 0 -35 8.5z" />
    <glyph glyph-name="uni1EBD" unicode="&#x1ebd;" horiz-adv-x="379" 
d="M279.5 43.5q32.5 9.5 55.5 25.5q6 -16 6 -32q0 -10 -19 -21.5t-50 -18.5t-66 -7q-54 0 -89 17t-55.5 68t-20.5 147q0 121 26 184.5t64.5 83.5t88.5 20q64 0 94.5 -41.5t30.5 -116.5q0 -73 -8 -116q-59 -11 -131 -14.5t-120 -2.5q0 -78 15 -118t42 -53.5t69 -13.5
q35 0 67.5 9.5zM128 427.5q-36 -41.5 -41 -169.5h32q120 0 178 14q4 33 4 69q-1 66 -19 97t-65 31q-53 0 -89 -41.5zM218 590.5q-13 8.5 -26 24.5l-8.5 8.5t-13 10t-13.5 3.5q-17 0 -29 -9.5t-22.5 -23.5t-13.5 -14q-8 0 -16.5 10.5t-8.5 12.5q23 37 46.5 51.5t52.5 14.5
q16 0 26.5 -7t21.5 -20q11 -12 20.5 -18.5t23.5 -6.5q24 0 37 10t22.5 23.5t12.5 13.5q8 0 14 -11.5t6 -14.5q-13 -25 -36 -45.5t-61 -20.5q-22 0 -35 8.5z" />
    <glyph glyph-name="uni1EBE" unicode="&#x1ebe;" horiz-adv-x="344" 
d="M435 978.5q6 -12.5 7 -22.5q-4 -6 -49.5 -41t-85.5 -62q-4 0 -9.5 11l-7.5 15q37 37 82.5 74.5t48.5 37.5q8 0 14 -12.5zM73 788l106 105q6 2 12 2q9 0 17 -8q14 -15 53 -55t39 -43q0 -5 -11 -12t-23 -7q-12 12 -43 46t-33 40q-12 -13 -46 -49t-41 -36q-20 0 -30 17z
M106 658v-254h185q0 -28 -1.5 -35t-8.5 -7h-175v-320h207q0 -29 -1.5 -35.5t-9.5 -6.5h-241v688q0 3 3 7.5t10 4.5h239q0 -29 -1 -35.5t-8 -6.5h-198z" />
    <glyph glyph-name="uni1EBF" unicode="&#x1ebf;" horiz-adv-x="379" 
d="M457 778.5q6 -12.5 7 -22.5q-4 -6 -49.5 -41t-85.5 -62q-4 0 -9.5 11l-7.5 15q37 37 82.5 74.5t48.5 37.5q8 0 14 -12.5zM95 588l106 105q6 2 12 2q9 0 17 -8q14 -15 53 -55t39 -43q0 -5 -11 -12t-23 -7q-12 12 -43 46t-33 40q-12 -13 -46 -49t-41 -36q-20 0 -30 17z
M206 221.5q-72 -3.5 -120 -2.5q0 -78 15 -118t42 -53.5t69 -13.5q35 0 67.5 9.5t55.5 25.5q6 -16 6 -32q0 -10 -19 -21.5t-50 -18.5t-66 -7q-54 0 -89 17t-55.5 68t-20.5 147q0 121 26 184.5t64.5 83.5t88.5 20q64 0 94.5 -41.5t30.5 -116.5q0 -73 -8 -116
q-59 -11 -131 -14.5zM128 427.5q-36 -41.5 -41 -169.5h32q120 0 178 14q4 33 4 69q-1 66 -19 97t-65 31q-53 0 -89 -41.5z" />
    <glyph glyph-name="uni1EC0" unicode="&#x1ec0;" horiz-adv-x="344" 
d="M288.5 900.5q-5.5 -10.5 -9.5 -10.5q-38 26 -83.5 61t-51.5 41q1 9 7.5 22.5t13.5 13.5q4 0 49.5 -38t81.5 -75q-2 -4 -7.5 -14.5zM73 788l106 105q6 2 12 2q9 0 17 -8q14 -15 53 -55t39 -43q0 -5 -11 -12t-23 -7q-12 12 -43 46t-33 40q-12 -13 -46 -49t-41 -36
q-20 0 -30 17zM106 42h207q0 -29 -1.5 -35.5t-9.5 -6.5h-241v688q0 3 3 7.5t10 4.5h239q0 -29 -1 -35.5t-8 -6.5h-198v-254h185q0 -28 -1.5 -35t-8.5 -7h-175v-320z" />
    <glyph glyph-name="uni1EC1" unicode="&#x1ec1;" horiz-adv-x="379" 
d="M310.5 700.5q-5.5 -10.5 -9.5 -10.5q-38 26 -83.5 61t-51.5 41q1 9 7.5 22.5t13.5 13.5q4 0 49.5 -38t81.5 -75q-2 -4 -7.5 -14.5zM95 588l106 105q6 2 12 2q9 0 17 -8q14 -15 53 -55t39 -43q0 -5 -11 -12t-23 -7q-12 12 -43 46t-33 40q-12 -13 -46 -49t-41 -36
q-20 0 -30 17zM279.5 43.5q32.5 9.5 55.5 25.5q6 -16 6 -32q0 -10 -19 -21.5t-50 -18.5t-66 -7q-54 0 -89 17t-55.5 68t-20.5 147q0 121 26 184.5t64.5 83.5t88.5 20q64 0 94.5 -41.5t30.5 -116.5q0 -73 -8 -116q-59 -11 -131 -14.5t-120 -2.5q0 -78 15 -118t42 -53.5
t69 -13.5q35 0 67.5 9.5zM128 427.5q-36 -41.5 -41 -169.5h32q120 0 178 14q4 33 4 69q-1 66 -19 97t-65 31q-53 0 -89 -41.5z" />
    <glyph glyph-name="uni1EC2" unicode="&#x1ec2;" horiz-adv-x="344" 
d="M350 1000.5q20 -18.5 20 -53.5q0 -22 -9.5 -34t-19.5 -18.5t-14 -9.5t-5.5 -10.5t-1.5 -9.5q-2 -2 -17 -2l-12 1q0 1 -0.5 3.5t-0.5 6.5q0 8 3 15q6 9 18 18q10 7 15 14t5 22q0 40 -39 40q-21 0 -37 -11v33q0 4 11 9t25 5q39 0 59 -18.5zM73 788l106 105q6 2 12 2
q9 0 17 -8q14 -15 53 -55t39 -43q0 -5 -11 -12t-23 -7q-12 12 -43 46t-33 40q-12 -13 -46 -49t-41 -36q-20 0 -30 17zM106 658v-254h185q0 -28 -1.5 -35t-8.5 -7h-175v-320h207q0 -29 -1.5 -35.5t-9.5 -6.5h-241v688q0 3 3 7.5t10 4.5h239q0 -29 -1 -35.5t-8 -6.5h-198z" />
    <glyph glyph-name="uni1EC3" unicode="&#x1ec3;" horiz-adv-x="379" 
d="M372 800.5q20 -18.5 20 -53.5q0 -22 -9.5 -34t-19.5 -18.5t-14 -9.5t-5.5 -10.5t-1.5 -9.5q-2 -2 -17 -2l-12 1q0 1 -0.5 3.5t-0.5 6.5q0 8 3 15q6 9 18 18q10 7 15 14t5 22q0 40 -39 40q-21 0 -37 -11v33q0 4 11 9t25 5q39 0 59 -18.5zM95 588l106 105q6 2 12 2
q9 0 17 -8q14 -15 53 -55t39 -43q0 -5 -11 -12t-23 -7q-12 12 -43 46t-33 40q-12 -13 -46 -49t-41 -36q-20 0 -30 17zM206 221.5q-72 -3.5 -120 -2.5q0 -78 15 -118t42 -53.5t69 -13.5q35 0 67.5 9.5t55.5 25.5q6 -16 6 -32q0 -10 -19 -21.5t-50 -18.5t-66 -7q-54 0 -89 17
t-55.5 68t-20.5 147q0 121 26 184.5t64.5 83.5t88.5 20q64 0 94.5 -41.5t30.5 -116.5q0 -73 -8 -116q-59 -11 -131 -14.5zM128 427.5q-36 -41.5 -41 -169.5h32q120 0 178 14q4 33 4 69q-1 66 -19 97t-65 31q-53 0 -89 -41.5z" />
    <glyph glyph-name="uni1EC4" unicode="&#x1ec4;" horiz-adv-x="344" 
d="M334 993q6 -11 6 -14q-33 -63 -93 -63q-21 0 -33 8t-26 24q-10 11 -17 16t-16 5q-17 0 -28.5 -9.5t-21 -22.5t-12.5 -13q-8 0 -16 10t-8 12q21 35 43.5 49t50.5 14q15 0 25 -6.5t21 -19.5q11 -12 20 -18t23 -6q22 0 34.5 9.5t21.5 22.5t13 13q7 0 13 -11zM73 788l106 105
q6 2 12 2q9 0 17 -8q14 -15 53 -55t39 -43q0 -5 -11 -12t-23 -7q-12 12 -43 46t-33 40q-12 -13 -46 -49t-41 -36q-20 0 -30 17zM106 658v-254h185q0 -28 -1.5 -35t-8.5 -7h-175v-320h207q0 -29 -1.5 -35.5t-9.5 -6.5h-241v688q0 3 3 7.5t10 4.5h239q0 -29 -1 -35.5t-8 -6.5
h-198z" />
    <glyph glyph-name="uni1EC5" unicode="&#x1ec5;" horiz-adv-x="379" 
d="M99 734q-8 10 -8 12q21 35 43.5 49t50.5 14q15 0 25 -6.5t21 -19.5q11 -12 20 -18t23 -6q22 0 34.5 9.5t21.5 22.5t13 13q7 0 13 -11t6 -14q-33 -63 -93 -63q-21 0 -33 8t-26 24q-10 11 -17 16t-16 5q-17 0 -28.5 -9.5t-21 -22.5t-12.5 -13q-8 0 -16 10zM230 687
q14 -15 53 -55t39 -43q0 -5 -11 -12t-23 -7q-12 12 -43 46t-33 40q-12 -13 -46 -49t-41 -36q-20 0 -30 17l106 105q6 2 12 2q9 0 17 -8zM206 221.5q-72 -3.5 -120 -2.5q0 -78 15 -118t42 -53.5t69 -13.5q35 0 67.5 9.5t55.5 25.5q6 -16 6 -32q0 -10 -19 -21.5t-50 -18.5
t-66 -7q-54 0 -89 17t-55.5 68t-20.5 147q0 121 26 184.5t64.5 83.5t88.5 20q64 0 94.5 -41.5t30.5 -116.5q0 -73 -8 -116q-59 -11 -131 -14.5zM128 427.5q-36 -41.5 -41 -169.5h32q120 0 178 14q4 33 4 69q-1 66 -19 97t-65 31q-53 0 -89 -41.5z" />
    <glyph glyph-name="uni1EC6" unicode="&#x1ec6;" horiz-adv-x="344" 
d="M106 42h207q0 -29 -1.5 -35.5t-9.5 -6.5h-241v688q0 3 3 7.5t10 4.5h239q0 -29 -1 -35.5t-8 -6.5h-198v-254h185q0 -28 -1.5 -35t-8.5 -7h-175v-320zM152 -142.5q-6 9.5 -6 29.5q2 38 28 38q14 0 20 -9t6 -29q-2 -39 -29 -39q-13 0 -19 9.5zM225.5 821q-32.5 35 -35.5 41
q-12 -14 -47.5 -51t-42.5 -37q-18 0 -32 17l111 110q6 2 12 2q10 0 18 -8q15 -15 55.5 -57t40.5 -46q0 -5 -11.5 -12t-23.5 -7q-12 13 -44.5 48z" />
    <glyph glyph-name="uni1EC7" unicode="&#x1ec7;" horiz-adv-x="379" 
d="M279.5 43.5q32.5 9.5 55.5 25.5q6 -16 6 -32q0 -10 -19 -21.5t-50 -18.5t-66 -7q-54 0 -89 17t-55.5 68t-20.5 147q0 121 26 184.5t64.5 83.5t88.5 20q64 0 94.5 -41.5t30.5 -116.5q0 -73 -8 -116q-59 -11 -131 -14.5t-120 -2.5q0 -78 15 -118t42 -53.5t69 -13.5
q35 0 67.5 9.5zM128 427.5q-36 -41.5 -41 -169.5h32q120 0 178 14q4 33 4 69q-1 66 -19 97t-65 31q-53 0 -89 -41.5zM170 -142.5q-6 9.5 -6 29.5q2 38 28 38q14 0 20 -9t6 -29q-2 -39 -29 -39q-13 0 -19 9.5zM247.5 621q-32.5 35 -35.5 41q-12 -14 -47.5 -51t-42.5 -37
q-18 0 -32 17l111 110q6 2 12 2q10 0 18 -8q15 -15 55.5 -57t40.5 -46q0 -5 -11.5 -12t-23.5 -7q-12 13 -44.5 48z" />
    <glyph glyph-name="uni1EC8" unicode="&#x1ec8;" horiz-adv-x="164" 
d="M59 676q0 13 2 17.5t10.5 5.5t33.5 1v-688q0 -6 -2.5 -8.5t-13.5 -3t-30 -0.5v676zM59.5 753q-0.5 3 -0.5 7q0 10 3 15q4 7 18 19q11 8 16 15t5 22q0 42 -40 42q-22 0 -39 -12v35q0 4 11.5 9t26.5 5q41 0 61.5 -19.5t20.5 -55.5q0 -23 -10 -35.5t-21 -19.5t-14 -9
q-4 -4 -5.5 -11.5t-1.5 -9.5q-2 -2 -18 -2l-12 1q0 1 -0.5 4z" />
    <glyph glyph-name="uni1EC9" unicode="&#x1ec9;" horiz-adv-x="169" 
d="M62 477q0 16 8 19.5t37 3.5v-488q0 -7 -2 -9t-13 -2.5t-30 -0.5v477zM62.5 553q-0.5 3 -0.5 7q0 10 3 15q4 7 18 19q11 8 16 15t5 22q0 42 -40 42q-22 0 -39 -12v35q0 4 11.5 9t26.5 5q41 0 61.5 -19.5t20.5 -55.5q0 -23 -10 -35.5t-21 -19.5t-14 -9q-4 -4 -5.5 -11.5
t-1.5 -9.5q-2 -2 -18 -2l-12 1q0 1 -0.5 4z" />
    <glyph glyph-name="uni1ECA" unicode="&#x1eca;" horiz-adv-x="164" 
d="M59 676q0 13 2 17.5t10.5 5.5t33.5 1v-688q0 -6 -2.5 -8.5t-13.5 -3t-30 -0.5v676zM62 -142.5q-6 9.5 -6 29.5q2 38 28 38q14 0 20 -9t6 -29q-2 -39 -29 -39q-13 0 -19 9.5z" />
    <glyph glyph-name="uni1ECB" unicode="&#x1ecb;" horiz-adv-x="169" 
d="M62 477q0 16 8 19.5t37 3.5v-488q0 -7 -2 -9t-13 -2.5t-30 -0.5v477zM63 607.5q-6 9.5 -6 30.5q2 40 29 40q15 0 21 -9.5t6 -30.5q-2 -40 -30 -40q-14 0 -20 9.5zM65 -142.5q-6 9.5 -6 29.5q2 38 28 38q14 0 20 -9t6 -29q-2 -39 -29 -39q-13 0 -19 9.5z" />
    <glyph glyph-name="uni1ECC" unicode="&#x1ecc;" 
d="M117.5 23.5q-39.5 33.5 -58 112.5t-18.5 219q0 190 46.5 272.5t146.5 82.5q66 0 104 -34t55.5 -110.5t17.5 -209.5q0 -134 -19.5 -214t-60.5 -116t-108 -36q-66 0 -105.5 33.5zM304.5 67.5q30.5 31.5 45 101.5t14.5 188q0 115 -13 182t-41.5 96t-76.5 29q-50 0 -81 -31.5
t-46.5 -102.5t-15.5 -190q0 -112 13.5 -178t42.5 -96t78 -30q50 0 80.5 31.5zM206 -142.5q-6 9.5 -6 29.5q2 38 28 38q14 0 20 -9t6 -29q-2 -39 -29 -39q-13 0 -19 9.5z" />
    <glyph glyph-name="uni1ECD" unicode="&#x1ecd;" horiz-adv-x="392" 
d="M104 8.5q-33 18.5 -51 75t-18 165.5q0 261 167 261q54 0 87.5 -23t50.5 -80t17 -157q0 -131 -42.5 -195.5t-123.5 -64.5q-54 0 -87 18.5zM278.5 84q30.5 54 30.5 168q0 86 -12.5 134t-36 66t-60.5 18q-57 0 -87 -51.5t-30 -174.5q0 -86 12.5 -132.5t35.5 -64t61 -17.5
q56 0 86.5 54zM176 -142.5q-6 9.5 -6 29.5q2 38 28 38q14 0 20 -9t6 -29q-2 -39 -29 -39q-13 0 -19 9.5z" />
    <glyph glyph-name="uni1ECE" unicode="&#x1ece;" 
d="M117.5 23.5q-39.5 33.5 -58 112.5t-18.5 219q0 190 46.5 272.5t146.5 82.5q66 0 104 -34t55.5 -110.5t17.5 -209.5q0 -134 -19.5 -214t-60.5 -116t-108 -36q-66 0 -105.5 33.5zM304.5 67.5q30.5 31.5 45 101.5t14.5 188q0 115 -13 182t-41.5 96t-76.5 29q-50 0 -81 -31.5
t-46.5 -102.5t-15.5 -190q0 -112 13.5 -178t42.5 -96t78 -30q50 0 80.5 31.5zM203.5 753q-0.5 3 -0.5 7q0 10 3 15q4 7 18 19q11 8 16 15t5 22q0 42 -40 42q-22 0 -39 -12v35q0 4 11.5 9t26.5 5q41 0 61.5 -19.5t20.5 -55.5q0 -23 -10 -35.5t-21 -19.5t-14 -9
q-4 -4 -5.5 -11.5t-1.5 -9.5q-2 -2 -18 -2l-12 1q0 1 -0.5 4z" />
    <glyph glyph-name="uni1ECF" unicode="&#x1ecf;" horiz-adv-x="392" 
d="M104 8.5q-33 18.5 -51 75t-18 165.5q0 261 167 261q54 0 87.5 -23t50.5 -80t17 -157q0 -131 -42.5 -195.5t-123.5 -64.5q-54 0 -87 18.5zM278.5 84q30.5 54 30.5 168q0 86 -12.5 134t-36 66t-60.5 18q-57 0 -87 -51.5t-30 -174.5q0 -86 12.5 -132.5t35.5 -64t61 -17.5
q56 0 86.5 54zM177.5 553q-0.5 3 -0.5 7q0 10 3 15q4 7 18 19q11 8 16 15t5 22q0 42 -40 42q-22 0 -39 -12v35q0 4 11.5 9t26.5 5q41 0 61.5 -19.5t20.5 -55.5q0 -23 -10 -35.5t-21 -19.5t-14 -9q-4 -4 -5.5 -11.5t-1.5 -9.5q-2 -2 -18 -2l-12 1q0 1 -0.5 4z" />
    <glyph glyph-name="uni1ED0" unicode="&#x1ed0;" 
d="M336.5 864l-7.5 15q37 37 82.5 74.5t48.5 37.5q8 0 14 -12.5t7 -22.5q-4 -6 -49.5 -41t-85.5 -62q-4 0 -9.5 11zM262 816q-31 34 -33 40q-12 -13 -46 -49t-41 -36q-20 0 -30 17l106 105q6 2 12 2q9 0 17 -8q14 -15 53 -55t39 -43q0 -5 -11 -12t-23 -7q-12 12 -43 46z
M117.5 23.5q-39.5 33.5 -58 112.5t-18.5 219q0 190 46.5 272.5t146.5 82.5q66 0 104 -34t55.5 -110.5t17.5 -209.5q0 -134 -19.5 -214t-60.5 -116t-108 -36q-66 0 -105.5 33.5zM304.5 67.5q30.5 31.5 45 101.5t14.5 188q0 115 -13 182t-41.5 96t-76.5 29q-50 0 -81 -31.5
t-46.5 -102.5t-15.5 -190q0 -112 13.5 -178t42.5 -96t78 -30q50 0 80.5 31.5z" />
    <glyph glyph-name="uni1ED1" unicode="&#x1ed1;" horiz-adv-x="392" 
d="M310.5 664l-7.5 15q37 37 82.5 74.5t48.5 37.5q8 0 14 -12.5t7 -22.5q-4 -6 -49.5 -41t-85.5 -62q-4 0 -9.5 11zM236 616q-31 34 -33 40q-12 -13 -46 -49t-41 -36q-20 0 -30 17l106 105q6 2 12 2q9 0 17 -8q14 -15 53 -55t39 -43q0 -5 -11 -12t-23 -7q-12 12 -43 46z
M104 8.5q-33 18.5 -51 75t-18 165.5q0 261 167 261q54 0 87.5 -23t50.5 -80t17 -157q0 -131 -42.5 -195.5t-123.5 -64.5q-54 0 -87 18.5zM278.5 84q30.5 54 30.5 168q0 86 -12.5 134t-36 66t-60.5 18q-57 0 -87 -51.5t-30 -174.5q0 -86 12.5 -132.5t35.5 -64t61 -17.5
q56 0 86.5 54z" />
    <glyph glyph-name="uni1ED2" unicode="&#x1ed2;" 
d="M234.5 951q-45.5 35 -51.5 41q1 9 7.5 22.5t13.5 13.5q4 0 49.5 -38t81.5 -75q-2 -4 -7.5 -14.5t-9.5 -10.5q-38 26 -83.5 61zM262 816q-31 34 -33 40q-12 -13 -46 -49t-41 -36q-20 0 -30 17l106 105q6 2 12 2q9 0 17 -8q14 -15 53 -55t39 -43q0 -5 -11 -12t-23 -7
q-12 12 -43 46zM117.5 23.5q-39.5 33.5 -58 112.5t-18.5 219q0 190 46.5 272.5t146.5 82.5q66 0 104 -34t55.5 -110.5t17.5 -209.5q0 -134 -19.5 -214t-60.5 -116t-108 -36q-66 0 -105.5 33.5zM304.5 67.5q30.5 31.5 45 101.5t14.5 188q0 115 -13 182t-41.5 96t-76.5 29
q-50 0 -81 -31.5t-46.5 -102.5t-15.5 -190q0 -112 13.5 -178t42.5 -96t78 -30q50 0 80.5 31.5z" />
    <glyph glyph-name="uni1ED3" unicode="&#x1ed3;" horiz-adv-x="392" 
d="M208.5 751q-45.5 35 -51.5 41q1 9 7.5 22.5t13.5 13.5q4 0 49.5 -38t81.5 -75q-2 -4 -7.5 -14.5t-9.5 -10.5q-38 26 -83.5 61zM236 616q-31 34 -33 40q-12 -13 -46 -49t-41 -36q-20 0 -30 17l106 105q6 2 12 2q9 0 17 -8q14 -15 53 -55t39 -43q0 -5 -11 -12t-23 -7
q-12 12 -43 46zM104 8.5q-33 18.5 -51 75t-18 165.5q0 261 167 261q54 0 87.5 -23t50.5 -80t17 -157q0 -131 -42.5 -195.5t-123.5 -64.5q-54 0 -87 18.5zM278.5 84q30.5 54 30.5 168q0 86 -12.5 134t-36 66t-60.5 18q-57 0 -87 -51.5t-30 -174.5q0 -86 12.5 -132.5t35.5 -64
t61 -17.5q56 0 86.5 54z" />
    <glyph glyph-name="uni1ED4" unicode="&#x1ed4;" 
d="M329.5 867.5q-0.5 2.5 -0.5 6.5q0 8 3 15q6 9 18 18q10 7 15 14t5 22q0 40 -39 40q-21 0 -37 -11v33q0 4 11 9t25 5q39 0 59 -18.5t20 -53.5q0 -22 -9.5 -34t-19.5 -18.5t-14 -9.5t-5.5 -10.5t-1.5 -9.5q-2 -2 -17 -2l-12 1q0 1 -0.5 3.5zM262 816q-31 34 -33 40
q-12 -13 -46 -49t-41 -36q-20 0 -30 17l106 105q6 2 12 2q9 0 17 -8q14 -15 53 -55t39 -43q0 -5 -11 -12t-23 -7q-12 12 -43 46zM117.5 23.5q-39.5 33.5 -58 112.5t-18.5 219q0 190 46.5 272.5t146.5 82.5q66 0 104 -34t55.5 -110.5t17.5 -209.5q0 -134 -19.5 -214
t-60.5 -116t-108 -36q-66 0 -105.5 33.5zM304.5 67.5q30.5 31.5 45 101.5t14.5 188q0 115 -13 182t-41.5 96t-76.5 29q-50 0 -81 -31.5t-46.5 -102.5t-15.5 -190q0 -112 13.5 -178t42.5 -96t78 -30q50 0 80.5 31.5z" />
    </font>
</defs>
</svg>
